<svg width="361" height="259" viewBox="0 0 361 259" fill="none" xmlns="http://www.w3.org/2000/svg">
<rect y="0.176514" width="361" height="258.752" rx="20" fill="white"/>
<g clip-path="url(#clip0_21_1173)">
<path d="M298.376 11.2515H7V168.972H298.376V11.2515Z" fill="#3F3D56"/>
<path d="M62.2432 33.4875H59.6737V37.6244H62.2432V33.4875Z" fill="#0056D2"/>
<path d="M70.9794 32.4532H68.4099V36.5902H70.9794V32.4532Z" fill="#0056D2"/>
<path d="M75.6044 32.4532H73.0349V36.5902H75.6044V32.4532Z" fill="#0056D2"/>
<path d="M75.6044 44.864H73.0349V49.0009H75.6044V44.864Z" fill="#0056D2"/>
<path d="M80.7433 38.6586H78.1738V42.7956H80.7433V38.6586Z" fill="#0056D2"/>
<path d="M80.7433 45.3812H78.1738V49.5181H80.7433V45.3812Z" fill="#0056D2"/>
<path d="M75.6044 58.309H73.0349V62.4459H75.6044V58.309Z" fill="#0056D2"/>
<path d="M80.7433 65.0315H78.1738V69.1684H80.7433V65.0315Z" fill="#0056D2"/>
<path d="M75.6044 90.3702H73.0349V94.5071H75.6044V90.3702Z" fill="#0056D2"/>
<path d="M70.9794 65.0315H68.4099V69.1684H70.9794V65.0315Z" fill="#0056D2"/>
<path d="M62.2432 40.21H59.6737V44.3469H62.2432V40.21Z" fill="#0056D2"/>
<path d="M62.2432 104.849H59.6737V108.986H62.2432V104.849Z" fill="#0056D2"/>
<path d="M62.2432 118.294H59.6737V122.431H62.2432V118.294Z" fill="#0056D2"/>
<path d="M62.2432 125.017H59.6737V129.154H62.2432V125.017Z" fill="#0056D2"/>
<path d="M62.2432 47.4496H58.646V47.9667H62.2432V47.4496Z" fill="#0056D2"/>
<path d="M76.1182 53.655H72.521V54.1721H76.1182V53.655Z" fill="#0056D2"/>
<path d="M62.2432 80.545H58.646V81.0621H62.2432V80.545Z" fill="#0056D2"/>
<path d="M62.2432 86.2332H58.646V86.7503H62.2432V86.2332Z" fill="#0056D2"/>
<path d="M76.1182 119.329H72.521V119.846H76.1182V119.329Z" fill="#0056D2"/>
<path d="M72.0071 131.739H68.4099V132.256H72.0071V131.739Z" fill="#0056D2"/>
<path d="M59.6737 52.1038V53.1378H60.7013V55.2064H59.6737V56.2405H62.2431V52.1038H59.6737Z" fill="#0056D2"/>
<path d="M68.41 44.8641V45.8982H69.4377V47.9667H68.41V49.0008H70.9795V44.8641H68.41Z" fill="#0056D2"/>
<path d="M78.174 51.5864V52.6208H79.2016V54.6894H78.174V55.7235H80.7434V51.5864H78.174Z" fill="#0056D2"/>
<path d="M78.174 71.7542V72.7882H79.2016V74.8568H78.174V75.8908H80.7434V71.7542H78.174Z" fill="#0056D2"/>
<path d="M78.174 78.4764V79.5109H79.2016V81.5794H78.174V82.6135H80.7434V78.4764H78.174Z" fill="#0056D2"/>
<path d="M78.174 57.7919V58.826H79.2016V60.8945H78.174V61.929H80.7434V57.7919H78.174Z" fill="#0056D2"/>
<path d="M73.0348 38.6586V39.693H74.0628V41.7612H73.0348V42.7956H75.6046V38.6586H73.0348Z" fill="#0056D2"/>
<path d="M75.6044 71.754H73.0349V75.891H75.6044V71.754Z" fill="#0056D2"/>
<path d="M75.6044 84.1648H73.0349V88.3017H75.6044V84.1648Z" fill="#0056D2"/>
<path d="M73.0348 77.9594V78.9934H74.0628V81.062H73.0348V82.0964H75.6046V77.9594H73.0348Z" fill="#0056D2"/>
<path d="M68.41 51.5864V52.6208H69.4377V54.6894H68.41V55.7235H70.9795V51.5864H68.41Z" fill="#0056D2"/>
<path d="M68.41 58.309V59.3434H69.4377V61.4116H68.41V62.446H70.9795V58.309H68.41Z" fill="#0056D2"/>
<path d="M70.9794 78.4765H68.4099V82.6134H70.9794V78.4765Z" fill="#0056D2"/>
<path d="M68.41 71.7542V72.7882H69.4377V74.8568H68.41V75.8908H70.9795V71.7542H68.41Z" fill="#0056D2"/>
<path d="M70.9794 91.9215H68.4099V96.0584H70.9794V91.9215Z" fill="#0056D2"/>
<path d="M68.41 85.199V86.2331H69.4377V88.3016H68.41V89.336H70.9795V85.199H68.41Z" fill="#0056D2"/>
<path d="M70.9794 105.367H68.4099V109.503H70.9794V105.367Z" fill="#0056D2"/>
<path d="M75.6044 104.332H73.0349V108.469H75.6044V104.332Z" fill="#0056D2"/>
<path d="M68.41 98.6439V99.6783H69.4377V101.747H68.41V102.781H70.9795V98.6439H68.41Z" fill="#0056D2"/>
<path d="M78.174 98.6439V99.6783H79.2016V101.747H78.174V102.781H80.7434V98.6439H78.174Z" fill="#0056D2"/>
<path d="M106.952 38.6586H104.382V42.7956H106.952V38.6586Z" fill="#0056D2"/>
<path d="M106.952 45.3812H104.382V49.5181H106.952V45.3812Z" fill="#0056D2"/>
<path d="M106.952 65.0315H104.382V69.1684H106.952V65.0315Z" fill="#0056D2"/>
<path d="M104.382 51.5864V52.6208H105.41V54.6894H104.382V55.7235H106.952V51.5864H104.382Z" fill="#0056D2"/>
<path d="M104.382 71.7542V72.7882H105.41V74.8568H104.382V75.8908H106.952V71.7542H104.382Z" fill="#0056D2"/>
<path d="M104.382 78.4764V79.5109H105.41V81.5794H104.382V82.6135H106.952V78.4764H104.382Z" fill="#0056D2"/>
<path d="M104.382 57.7919V58.826H105.41V60.8945H104.382V61.929H106.952V57.7919H104.382Z" fill="#0056D2"/>
<path d="M104.382 98.6439V99.6783H105.41V101.747H104.382V102.781H106.952V98.6439H104.382Z" fill="#0056D2"/>
<path d="M70.9794 118.812H68.4099V122.948H70.9794V118.812Z" fill="#0056D2"/>
<path d="M75.6044 111.055H73.0349V115.192H75.6044V111.055Z" fill="#0056D2"/>
<path d="M70.9794 136.393H68.4099V140.53H70.9794V136.393Z" fill="#0056D2"/>
<path d="M75.6044 123.983H73.0349V128.12H75.6044V123.983Z" fill="#0056D2"/>
<path d="M68.41 112.089V113.123H69.4377V115.192H68.41V116.226H70.9795V112.089H68.41Z" fill="#0056D2"/>
<path d="M68.41 143.633V144.667H69.4377V146.736H68.41V147.77H70.9795V143.633H68.41Z" fill="#0056D2"/>
<path d="M99.2433 32.4532H96.6738V36.5902H99.2433V32.4532Z" fill="#0056D2"/>
<path d="M99.2433 65.0315H96.6738V69.1684H99.2433V65.0315Z" fill="#0056D2"/>
<path d="M100.271 131.739H96.6738V132.256H100.271V131.739Z" fill="#0056D2"/>
<path d="M96.6738 44.8641V45.8982H97.7018V47.9667H96.6738V49.0008H99.2433V44.8641H96.6738Z" fill="#0056D2"/>
<path d="M96.6738 51.5864V52.6208H97.7018V54.6894H96.6738V55.7235H99.2433V51.5864H96.6738Z" fill="#0056D2"/>
<path d="M96.6738 58.309V59.3434H97.7018V61.4116H96.6738V62.446H99.2433V58.309H96.6738Z" fill="#0056D2"/>
<path d="M99.2433 78.4765H96.6738V82.6134H99.2433V78.4765Z" fill="#0056D2"/>
<path d="M96.6738 71.7542V72.7882H97.7018V74.8568H96.6738V75.8908H99.2433V71.7542H96.6738Z" fill="#0056D2"/>
<path d="M99.2433 91.9215H96.6738V96.0584H99.2433V91.9215Z" fill="#0056D2"/>
<path d="M96.6738 85.199V86.2331H97.7018V88.3016H96.6738V89.336H99.2433V85.199H96.6738Z" fill="#0056D2"/>
<path d="M99.2433 105.367H96.6738V109.503H99.2433V105.367Z" fill="#0056D2"/>
<path d="M96.6738 98.6439V99.6783H97.7018V101.747H96.6738V102.781H99.2433V98.6439H96.6738Z" fill="#0056D2"/>
<path d="M99.2433 118.812H96.6738V122.948H99.2433V118.812Z" fill="#0056D2"/>
<path d="M99.2433 136.393H96.6738V140.53H99.2433V136.393Z" fill="#0056D2"/>
<path d="M96.6738 112.089V113.123H97.7018V115.192H96.6738V116.226H99.2433V112.089H96.6738Z" fill="#0056D2"/>
<path d="M96.6738 143.633V144.667H97.7018V146.736H96.6738V147.77H99.2433V143.633H96.6738Z" fill="#0056D2"/>
<path d="M111.577 32.4532H109.007V36.5902H111.577V32.4532Z" fill="#0056D2"/>
<path d="M111.577 65.0315H109.007V69.1684H111.577V65.0315Z" fill="#0056D2"/>
<path d="M112.604 131.739H109.007V132.256H112.604V131.739Z" fill="#0056D2"/>
<path d="M109.007 44.8641V45.8982H110.035V47.9667H109.007V49.0008H111.577V44.8641H109.007Z" fill="#0056D2"/>
<path d="M109.007 51.5864V52.6208H110.035V54.6894H109.007V55.7235H111.577V51.5864H109.007Z" fill="#0056D2"/>
<path d="M109.007 58.309V59.3434H110.035V61.4116H109.007V62.446H111.577V58.309H109.007Z" fill="#0056D2"/>
<path d="M111.577 78.4765H109.007V82.6134H111.577V78.4765Z" fill="#0056D2"/>
<path d="M109.007 71.7542V72.7882H110.035V74.8568H109.007V75.8908H111.577V71.7542H109.007Z" fill="#0056D2"/>
<path d="M111.577 91.9215H109.007V96.0584H111.577V91.9215Z" fill="#0056D2"/>
<path d="M109.007 85.199V86.2331H110.035V88.3016H109.007V89.336H111.577V85.199H109.007Z" fill="#0056D2"/>
<path d="M111.577 105.367H109.007V109.503H111.577V105.367Z" fill="#0056D2"/>
<path d="M109.007 98.6439V99.6783H110.035V101.747H109.007V102.781H111.577V98.6439H109.007Z" fill="#0056D2"/>
<path d="M111.577 118.812H109.007V122.948H111.577V118.812Z" fill="#0056D2"/>
<path d="M111.577 136.393H109.007V140.53H111.577V136.393Z" fill="#0056D2"/>
<path d="M109.007 112.089V113.123H110.035V115.192H109.007V116.226H111.577V112.089H109.007Z" fill="#0056D2"/>
<path d="M109.007 143.633V144.667H110.035V146.736H109.007V147.77H111.577V143.633H109.007Z" fill="#0056D2"/>
<path d="M73.0348 136.394V137.428H74.0628V139.496H73.0348V140.53H75.6046V136.394H73.0348Z" fill="#0056D2"/>
<path d="M73.0348 143.116V144.15H74.0628V146.219H73.0348V147.253H75.6046V143.116H73.0348Z" fill="#0056D2"/>
<path d="M59.6737 65.0316V66.0656H60.7013V68.1342H59.6737V69.1686H62.2431V65.0316H59.6737Z" fill="#0056D2"/>
<path d="M59.6737 91.4045V92.4386H60.7013V94.5071H59.6737V95.5412H62.2431V91.4045H59.6737Z" fill="#0056D2"/>
<path d="M59.6737 98.1268V99.1613H60.7013V101.23H59.6737V102.264H62.2431V98.1268H59.6737Z" fill="#0056D2"/>
<path d="M59.6737 111.572V112.606H60.7013V114.675H59.6737V115.709H62.2431V111.572H59.6737Z" fill="#0056D2"/>
<path d="M59.6737 130.705V131.739H60.7013V133.808H59.6737V134.842H62.2431V130.705H59.6737Z" fill="#0056D2"/>
<path d="M59.6737 136.394V137.428H60.7013V139.496H59.6737V140.53H62.2431V136.394H59.6737Z" fill="#0056D2"/>
<path d="M88.9654 33.4875H86.396V37.6244H88.9654V33.4875Z" fill="#0056D2"/>
<path d="M88.9654 40.21H86.396V44.3469H88.9654V40.21Z" fill="#0056D2"/>
<path d="M88.9655 47.4496H85.3683V47.9667H88.9655V47.4496Z" fill="#0056D2"/>
<path d="M88.9655 80.545H85.3683V81.0621H88.9655V80.545Z" fill="#0056D2"/>
<path d="M88.9655 86.2332H85.3683V86.7503H88.9655V86.2332Z" fill="#0056D2"/>
<path d="M86.3961 52.1038V53.1378H87.4238V55.2064H86.3961V56.2405H88.9656V52.1038H86.3961Z" fill="#0056D2"/>
<path d="M86.3961 65.0316V66.0656H87.4238V68.1342H86.3961V69.1686H88.9656V65.0316H86.3961Z" fill="#0056D2"/>
<path d="M86.3961 91.4045V92.4386H87.4238V94.5071H86.3961V95.5412H88.9656V91.4045H86.3961Z" fill="#0056D2"/>
<path d="M118.257 78.4765H115.688V82.6134H118.257V78.4765Z" fill="#0056D2"/>
<path d="M118.257 85.199H115.688V89.336H118.257V85.199Z" fill="#0056D2"/>
<path d="M118.257 92.4386H114.66V92.9557H118.257V92.4386Z" fill="#0056D2"/>
<path d="M118.257 125.534H114.66V126.051H118.257V125.534Z" fill="#0056D2"/>
<path d="M118.257 131.222H114.66V131.739H118.257V131.222Z" fill="#0056D2"/>
<path d="M115.688 97.0927V98.1268H116.716V100.195H115.688V101.23H118.257V97.0927H115.688Z" fill="#0056D2"/>
<path d="M115.688 110.021V111.055H116.716V113.123H115.688V114.158H118.257V110.021H115.688Z" fill="#0056D2"/>
<path d="M115.688 136.394V137.428H116.716V139.496H115.688V140.53H118.257V136.394H115.688Z" fill="#0056D2"/>
<path d="M126.479 33.4875H123.91V37.6244H126.479V33.4875Z" fill="#0056D2"/>
<path d="M135.216 32.4532H132.646V36.5902H135.216V32.4532Z" fill="#0056D2"/>
<path d="M139.841 32.4532H137.271V36.5902H139.841V32.4532Z" fill="#0056D2"/>
<path d="M139.841 44.864H137.271V49.0009H139.841V44.864Z" fill="#0056D2"/>
<path d="M144.98 38.6586H142.41V42.7956H144.98V38.6586Z" fill="#0056D2"/>
<path d="M144.98 45.3812H142.41V49.5181H144.98V45.3812Z" fill="#0056D2"/>
<path d="M139.841 58.309H137.271V62.4459H139.841V58.309Z" fill="#0056D2"/>
<path d="M144.98 65.0315H142.41V69.1684H144.98V65.0315Z" fill="#0056D2"/>
<path d="M139.841 90.3702H137.271V94.5071H139.841V90.3702Z" fill="#0056D2"/>
<path d="M135.216 65.0315H132.646V69.1684H135.216V65.0315Z" fill="#0056D2"/>
<path d="M126.479 40.21H123.91V44.3469H126.479V40.21Z" fill="#0056D2"/>
<path d="M126.479 104.849H123.91V108.986H126.479V104.849Z" fill="#0056D2"/>
<path d="M126.479 118.294H123.91V122.431H126.479V118.294Z" fill="#0056D2"/>
<path d="M126.479 125.017H123.91V129.154H126.479V125.017Z" fill="#0056D2"/>
<path d="M126.48 47.4496H122.882V47.9667H126.48V47.4496Z" fill="#0056D2"/>
<path d="M140.355 53.655H136.757V54.1721H140.355V53.655Z" fill="#0056D2"/>
<path d="M126.48 80.545H122.882V81.0621H126.48V80.545Z" fill="#0056D2"/>
<path d="M126.48 86.2332H122.882V86.7503H126.48V86.2332Z" fill="#0056D2"/>
<path d="M140.355 119.329H136.757V119.846H140.355V119.329Z" fill="#0056D2"/>
<path d="M136.243 131.739H132.646V132.256H136.243V131.739Z" fill="#0056D2"/>
<path d="M123.91 52.1038V53.1378H124.938V55.2064H123.91V56.2405H126.479V52.1038H123.91Z" fill="#0056D2"/>
<path d="M132.646 44.8641V45.8982H133.674V47.9667H132.646V49.0008H135.216V44.8641H132.646Z" fill="#0056D2"/>
<path d="M142.41 51.5864V52.6208H143.438V54.6894H142.41V55.7235H144.98V51.5864H142.41Z" fill="#0056D2"/>
<path d="M142.41 71.7542V72.7882H143.438V74.8568H142.41V75.8908H144.98V71.7542H142.41Z" fill="#0056D2"/>
<path d="M142.41 78.4764V79.5109H143.438V81.5794H142.41V82.6135H144.98V78.4764H142.41Z" fill="#0056D2"/>
<path d="M142.41 57.7919V58.826H143.438V60.8945H142.41V61.929H144.98V57.7919H142.41Z" fill="#0056D2"/>
<path d="M137.271 38.6586V39.693H138.299V41.7612H137.271V42.7956H139.841V38.6586H137.271Z" fill="#0056D2"/>
<path d="M139.841 71.754H137.271V75.891H139.841V71.754Z" fill="#0056D2"/>
<path d="M139.841 84.1648H137.271V88.3017H139.841V84.1648Z" fill="#0056D2"/>
<path d="M137.271 77.9594V78.9934H138.299V81.062H137.271V82.0964H139.841V77.9594H137.271Z" fill="#0056D2"/>
<path d="M132.646 51.5864V52.6208H133.674V54.6894H132.646V55.7235H135.216V51.5864H132.646Z" fill="#0056D2"/>
<path d="M132.646 58.309V59.3434H133.674V61.4116H132.646V62.446H135.216V58.309H132.646Z" fill="#0056D2"/>
<path d="M135.216 78.4765H132.646V82.6134H135.216V78.4765Z" fill="#0056D2"/>
<path d="M132.646 71.7542V72.7882H133.674V74.8568H132.646V75.8908H135.216V71.7542H132.646Z" fill="#0056D2"/>
<path d="M135.216 91.9215H132.646V96.0584H135.216V91.9215Z" fill="#0056D2"/>
<path d="M132.646 85.199V86.2331H133.674V88.3016H132.646V89.336H135.216V85.199H132.646Z" fill="#0056D2"/>
<path d="M135.216 105.367H132.646V109.503H135.216V105.367Z" fill="#0056D2"/>
<path d="M139.841 104.332H137.271V108.469H139.841V104.332Z" fill="#0056D2"/>
<path d="M132.646 98.6439V99.6783H133.674V101.747H132.646V102.781H135.216V98.6439H132.646Z" fill="#0056D2"/>
<path d="M142.41 98.6439V99.6783H143.438V101.747H142.41V102.781H144.98V98.6439H142.41Z" fill="#0056D2"/>
<path d="M171.188 38.6586H168.619V42.7956H171.188V38.6586Z" fill="#0056D2"/>
<path d="M171.188 45.3812H168.619V49.5181H171.188V45.3812Z" fill="#0056D2"/>
<path d="M171.188 65.0315H168.619V69.1684H171.188V65.0315Z" fill="#0056D2"/>
<path d="M168.619 51.5864V52.6208H169.646V54.6894H168.619V55.7235H171.188V51.5864H168.619Z" fill="#0056D2"/>
<path d="M168.619 71.7542V72.7882H169.646V74.8568H168.619V75.8908H171.188V71.7542H168.619Z" fill="#0056D2"/>
<path d="M168.619 78.4764V79.5109H169.646V81.5794H168.619V82.6135H171.188V78.4764H168.619Z" fill="#0056D2"/>
<path d="M168.619 57.7919V58.826H169.646V60.8945H168.619V61.929H171.188V57.7919H168.619Z" fill="#0056D2"/>
<path d="M168.619 98.6439V99.6783H169.646V101.747H168.619V102.781H171.188V98.6439H168.619Z" fill="#0056D2"/>
<path d="M135.216 118.812H132.646V122.948H135.216V118.812Z" fill="#0056D2"/>
<path d="M139.841 111.055H137.271V115.192H139.841V111.055Z" fill="#0056D2"/>
<path d="M135.216 136.393H132.646V140.53H135.216V136.393Z" fill="#0056D2"/>
<path d="M139.841 123.983H137.271V128.12H139.841V123.983Z" fill="#0056D2"/>
<path d="M132.646 112.089V113.123H133.674V115.192H132.646V116.226H135.216V112.089H132.646Z" fill="#0056D2"/>
<path d="M132.646 143.633V144.667H133.674V146.736H132.646V147.77H135.216V143.633H132.646Z" fill="#0056D2"/>
<path d="M163.48 32.4532H160.91V36.5902H163.48V32.4532Z" fill="#0056D2"/>
<path d="M163.48 65.0315H160.91V69.1684H163.48V65.0315Z" fill="#0056D2"/>
<path d="M164.507 131.739H160.91V132.256H164.507V131.739Z" fill="#0056D2"/>
<path d="M160.91 44.8641V45.8982H161.938V47.9667H160.91V49.0008H163.479V44.8641H160.91Z" fill="#0056D2"/>
<path d="M160.91 51.5864V52.6208H161.938V54.6894H160.91V55.7235H163.479V51.5864H160.91Z" fill="#0056D2"/>
<path d="M160.91 58.309V59.3434H161.938V61.4116H160.91V62.446H163.479V58.309H160.91Z" fill="#0056D2"/>
<path d="M163.48 78.4765H160.91V82.6134H163.48V78.4765Z" fill="#0056D2"/>
<path d="M160.91 71.7542V72.7882H161.938V74.8568H160.91V75.8908H163.479V71.7542H160.91Z" fill="#0056D2"/>
<path d="M163.48 91.9215H160.91V96.0584H163.48V91.9215Z" fill="#0056D2"/>
<path d="M160.91 85.199V86.2331H161.938V88.3016H160.91V89.336H163.479V85.199H160.91Z" fill="#0056D2"/>
<path d="M163.48 105.367H160.91V109.503H163.48V105.367Z" fill="#0056D2"/>
<path d="M160.91 98.6439V99.6783H161.938V101.747H160.91V102.781H163.479V98.6439H160.91Z" fill="#0056D2"/>
<path d="M163.48 118.812H160.91V122.948H163.48V118.812Z" fill="#0056D2"/>
<path d="M163.48 136.393H160.91V140.53H163.48V136.393Z" fill="#0056D2"/>
<path d="M160.91 112.089V113.123H161.938V115.192H160.91V116.226H163.479V112.089H160.91Z" fill="#0056D2"/>
<path d="M160.91 143.633V144.667H161.938V146.736H160.91V147.77H163.479V143.633H160.91Z" fill="#0056D2"/>
<path d="M175.813 32.4532H173.244V36.5902H175.813V32.4532Z" fill="#0056D2"/>
<path d="M175.813 65.0315H173.244V69.1684H175.813V65.0315Z" fill="#0056D2"/>
<path d="M176.841 131.739H173.244V132.256H176.841V131.739Z" fill="#0056D2"/>
<path d="M173.243 44.8641V45.8982H174.271V47.9667H173.243V49.0008H175.813V44.8641H173.243Z" fill="#0056D2"/>
<path d="M173.243 51.5864V52.6208H174.271V54.6894H173.243V55.7235H175.813V51.5864H173.243Z" fill="#0056D2"/>
<path d="M173.243 58.309V59.3434H174.271V61.4116H173.243V62.446H175.813V58.309H173.243Z" fill="#0056D2"/>
<path d="M175.813 78.4765H173.244V82.6134H175.813V78.4765Z" fill="#0056D2"/>
<path d="M173.243 71.7542V72.7882H174.271V74.8568H173.243V75.8908H175.813V71.7542H173.243Z" fill="#0056D2"/>
<path d="M175.813 91.9215H173.244V96.0584H175.813V91.9215Z" fill="#0056D2"/>
<path d="M173.243 85.199V86.2331H174.271V88.3016H173.243V89.336H175.813V85.199H173.243Z" fill="#0056D2"/>
<path d="M175.813 105.367H173.244V109.503H175.813V105.367Z" fill="#0056D2"/>
<path d="M173.243 98.6439V99.6783H174.271V101.747H173.243V102.781H175.813V98.6439H173.243Z" fill="#0056D2"/>
<path d="M175.813 118.812H173.244V122.948H175.813V118.812Z" fill="#0056D2"/>
<path d="M175.813 136.393H173.244V140.53H175.813V136.393Z" fill="#0056D2"/>
<path d="M173.243 112.089V113.123H174.271V115.192H173.243V116.226H175.813V112.089H173.243Z" fill="#0056D2"/>
<path d="M173.243 143.633V144.667H174.271V146.736H173.243V147.77H175.813V143.633H173.243Z" fill="#0056D2"/>
<path d="M137.271 136.394V137.428H138.299V139.496H137.271V140.53H139.841V136.394H137.271Z" fill="#0056D2"/>
<path d="M137.271 143.116V144.15H138.299V146.219H137.271V147.253H139.841V143.116H137.271Z" fill="#0056D2"/>
<path d="M123.91 65.0316V66.0656H124.938V68.1342H123.91V69.1686H126.479V65.0316H123.91Z" fill="#0056D2"/>
<path d="M123.91 91.4045V92.4386H124.938V94.5071H123.91V95.5412H126.479V91.4045H123.91Z" fill="#0056D2"/>
<path d="M123.91 98.1268V99.1613H124.938V101.23H123.91V102.264H126.479V98.1268H123.91Z" fill="#0056D2"/>
<path d="M123.91 111.572V112.606H124.938V114.675H123.91V115.709H126.479V111.572H123.91Z" fill="#0056D2"/>
<path d="M123.91 130.705V131.739H124.938V133.808H123.91V134.842H126.479V130.705H123.91Z" fill="#0056D2"/>
<path d="M123.91 136.394V137.428H124.938V139.496H123.91V140.53H126.479V136.394H123.91Z" fill="#0056D2"/>
<path d="M153.202 33.4875H150.632V37.6244H153.202V33.4875Z" fill="#0056D2"/>
<path d="M153.202 40.21H150.632V44.3469H153.202V40.21Z" fill="#0056D2"/>
<path d="M153.202 47.4496H149.605V47.9667H153.202V47.4496Z" fill="#0056D2"/>
<path d="M153.202 80.545H149.605V81.0621H153.202V80.545Z" fill="#0056D2"/>
<path d="M153.202 86.2332H149.605V86.7503H153.202V86.2332Z" fill="#0056D2"/>
<path d="M150.632 52.1038V53.1378H151.66V55.2064H150.632V56.2405H153.202V52.1038H150.632Z" fill="#0056D2"/>
<path d="M150.632 65.0316V66.0656H151.66V68.1342H150.632V69.1686H153.202V65.0316H150.632Z" fill="#0056D2"/>
<path d="M150.632 91.4045V92.4386H151.66V94.5071H150.632V95.5412H153.202V91.4045H150.632Z" fill="#0056D2"/>
<path d="M182.494 78.4765H179.924V82.6134H182.494V78.4765Z" fill="#0056D2"/>
<path d="M182.494 85.199H179.924V89.336H182.494V85.199Z" fill="#0056D2"/>
<path d="M182.494 92.4386H178.896V92.9557H182.494V92.4386Z" fill="#0056D2"/>
<path d="M182.494 125.534H178.896V126.051H182.494V125.534Z" fill="#0056D2"/>
<path d="M182.494 131.222H178.896V131.739H182.494V131.222Z" fill="#0056D2"/>
<path d="M179.924 97.0927V98.1268H180.952V100.195H179.924V101.23H182.494V97.0927H179.924Z" fill="#0056D2"/>
<path d="M179.924 110.021V111.055H180.952V113.123H179.924V114.158H182.494V110.021H179.924Z" fill="#0056D2"/>
<path d="M179.924 136.394V137.428H180.952V139.496H179.924V140.53H182.494V136.394H179.924Z" fill="#0056D2"/>
<path d="M190.716 33.4875H188.146V37.6244H190.716V33.4875Z" fill="#0056D2"/>
<path d="M199.452 32.4532H196.882V36.5902H199.452V32.4532Z" fill="#0056D2"/>
<path d="M204.077 32.4532H201.507V36.5902H204.077V32.4532Z" fill="#0056D2"/>
<path d="M204.077 44.864H201.507V49.0009H204.077V44.864Z" fill="#0056D2"/>
<path d="M209.216 38.6586H206.646V42.7956H209.216V38.6586Z" fill="#0056D2"/>
<path d="M209.216 45.3812H206.646V49.5181H209.216V45.3812Z" fill="#0056D2"/>
<path d="M204.077 58.309H201.507V62.4459H204.077V58.309Z" fill="#0056D2"/>
<path d="M209.216 65.0315H206.646V69.1684H209.216V65.0315Z" fill="#0056D2"/>
<path d="M204.077 90.3702H201.507V94.5071H204.077V90.3702Z" fill="#0056D2"/>
<path d="M199.452 65.0315H196.882V69.1684H199.452V65.0315Z" fill="#0056D2"/>
<path d="M190.716 40.21H188.146V44.3469H190.716V40.21Z" fill="#0056D2"/>
<path d="M190.716 104.849H188.146V108.986H190.716V104.849Z" fill="#0056D2"/>
<path d="M190.716 118.294H188.146V122.431H190.716V118.294Z" fill="#0056D2"/>
<path d="M190.716 125.017H188.146V129.154H190.716V125.017Z" fill="#0056D2"/>
<path d="M190.716 47.4496H187.119V47.9667H190.716V47.4496Z" fill="#0056D2"/>
<path d="M204.591 53.655H200.994V54.1721H204.591V53.655Z" fill="#0056D2"/>
<path d="M190.716 80.545H187.119V81.0621H190.716V80.545Z" fill="#0056D2"/>
<path d="M190.716 86.2332H187.119V86.7503H190.716V86.2332Z" fill="#0056D2"/>
<path d="M204.591 119.329H200.994V119.846H204.591V119.329Z" fill="#0056D2"/>
<path d="M200.48 131.739H196.882V132.256H200.48V131.739Z" fill="#0056D2"/>
<path d="M188.146 52.1038V53.1378H189.174V55.2064H188.146V56.2405H190.716V52.1038H188.146Z" fill="#0056D2"/>
<path d="M196.882 44.8641V45.8982H197.91V47.9667H196.882V49.0008H199.452V44.8641H196.882Z" fill="#0056D2"/>
<path d="M206.646 51.5864V52.6208H207.674V54.6894H206.646V55.7235H209.216V51.5864H206.646Z" fill="#0056D2"/>
<path d="M206.646 71.7542V72.7882H207.674V74.8568H206.646V75.8908H209.216V71.7542H206.646Z" fill="#0056D2"/>
<path d="M206.646 78.4764V79.5109H207.674V81.5794H206.646V82.6135H209.216V78.4764H206.646Z" fill="#0056D2"/>
<path d="M206.646 57.7919V58.826H207.674V60.8945H206.646V61.929H209.216V57.7919H206.646Z" fill="#0056D2"/>
<path d="M201.508 38.6586V39.693H202.535V41.7612H201.508V42.7956H204.077V38.6586H201.508Z" fill="#0056D2"/>
<path d="M204.077 71.754H201.507V75.891H204.077V71.754Z" fill="#0056D2"/>
<path d="M204.077 84.1648H201.507V88.3017H204.077V84.1648Z" fill="#0056D2"/>
<path d="M201.508 77.9594V78.9934H202.535V81.062H201.508V82.0964H204.077V77.9594H201.508Z" fill="#0056D2"/>
<path d="M196.882 51.5864V52.6208H197.91V54.6894H196.882V55.7235H199.452V51.5864H196.882Z" fill="#0056D2"/>
<path d="M196.882 58.309V59.3434H197.91V61.4116H196.882V62.446H199.452V58.309H196.882Z" fill="#0056D2"/>
<path d="M199.452 78.4765H196.882V82.6134H199.452V78.4765Z" fill="#0056D2"/>
<path d="M196.882 71.7542V72.7882H197.91V74.8568H196.882V75.8908H199.452V71.7542H196.882Z" fill="#0056D2"/>
<path d="M199.452 91.9215H196.882V96.0584H199.452V91.9215Z" fill="#0056D2"/>
<path d="M196.882 85.199V86.2331H197.91V88.3016H196.882V89.336H199.452V85.199H196.882Z" fill="#0056D2"/>
<path d="M199.452 105.367H196.882V109.503H199.452V105.367Z" fill="#0056D2"/>
<path d="M204.077 104.332H201.507V108.469H204.077V104.332Z" fill="#0056D2"/>
<path d="M196.882 98.6439V99.6783H197.91V101.747H196.882V102.781H199.452V98.6439H196.882Z" fill="#0056D2"/>
<path d="M206.646 98.6439V99.6783H207.674V101.747H206.646V102.781H209.216V98.6439H206.646Z" fill="#0056D2"/>
<path d="M235.424 38.6586H232.855V42.7956H235.424V38.6586Z" fill="#0056D2"/>
<path d="M235.424 45.3812H232.855V49.5181H235.424V45.3812Z" fill="#0056D2"/>
<path d="M235.424 65.0315H232.855V69.1684H235.424V65.0315Z" fill="#0056D2"/>
<path d="M232.855 51.5864V52.6208H233.883V54.6894H232.855V55.7235H235.424V51.5864H232.855Z" fill="#0056D2"/>
<path d="M232.855 71.7542V72.7882H233.883V74.8568H232.855V75.8908H235.424V71.7542H232.855Z" fill="#0056D2"/>
<path d="M232.855 78.4764V79.5109H233.883V81.5794H232.855V82.6135H235.424V78.4764H232.855Z" fill="#0056D2"/>
<path d="M232.855 57.7919V58.826H233.883V60.8945H232.855V61.929H235.424V57.7919H232.855Z" fill="#0056D2"/>
<path d="M232.855 98.6439V99.6783H233.883V101.747H232.855V102.781H235.424V98.6439H232.855Z" fill="#0056D2"/>
<path d="M199.452 118.812H196.882V122.948H199.452V118.812Z" fill="#0056D2"/>
<path d="M204.077 111.055H201.507V115.192H204.077V111.055Z" fill="#0056D2"/>
<path d="M199.452 136.393H196.882V140.53H199.452V136.393Z" fill="#0056D2"/>
<path d="M204.077 123.983H201.507V128.12H204.077V123.983Z" fill="#0056D2"/>
<path d="M196.882 112.089V113.123H197.91V115.192H196.882V116.226H199.452V112.089H196.882Z" fill="#0056D2"/>
<path d="M196.882 143.633V144.667H197.91V146.736H196.882V147.77H199.452V143.633H196.882Z" fill="#0056D2"/>
<path d="M227.716 32.4532H225.146V36.5902H227.716V32.4532Z" fill="#0056D2"/>
<path d="M227.716 65.0315H225.146V69.1684H227.716V65.0315Z" fill="#0056D2"/>
<path d="M228.744 131.739H225.146V132.256H228.744V131.739Z" fill="#0056D2"/>
<path d="M225.147 44.8641V45.8982H226.174V47.9667H225.147V49.0008H227.716V44.8641H225.147Z" fill="#0056D2"/>
<path d="M225.147 51.5864V52.6208H226.174V54.6894H225.147V55.7235H227.716V51.5864H225.147Z" fill="#0056D2"/>
<path d="M225.147 58.309V59.3434H226.174V61.4116H225.147V62.446H227.716V58.309H225.147Z" fill="#0056D2"/>
<path d="M227.716 78.4765H225.146V82.6134H227.716V78.4765Z" fill="#0056D2"/>
<path d="M225.147 71.7542V72.7882H226.174V74.8568H225.147V75.8908H227.716V71.7542H225.147Z" fill="#0056D2"/>
<path d="M227.716 91.9215H225.146V96.0584H227.716V91.9215Z" fill="#0056D2"/>
<path d="M225.147 85.199V86.2331H226.174V88.3016H225.147V89.336H227.716V85.199H225.147Z" fill="#0056D2"/>
<path d="M227.716 105.367H225.146V109.503H227.716V105.367Z" fill="#0056D2"/>
<path d="M225.147 98.6439V99.6783H226.174V101.747H225.147V102.781H227.716V98.6439H225.147Z" fill="#0056D2"/>
<path d="M227.716 118.812H225.146V122.948H227.716V118.812Z" fill="#0056D2"/>
<path d="M227.716 136.393H225.146V140.53H227.716V136.393Z" fill="#0056D2"/>
<path d="M225.147 112.089V113.123H226.174V115.192H225.147V116.226H227.716V112.089H225.147Z" fill="#0056D2"/>
<path d="M225.147 143.633V144.667H226.174V146.736H225.147V147.77H227.716V143.633H225.147Z" fill="#0056D2"/>
<path d="M240.049 32.4532H237.48V36.5902H240.049V32.4532Z" fill="#0056D2"/>
<path d="M240.049 65.0315H237.48V69.1684H240.049V65.0315Z" fill="#0056D2"/>
<path d="M241.077 131.739H237.48V132.256H241.077V131.739Z" fill="#0056D2"/>
<path d="M237.48 44.8641V45.8982H238.508V47.9667H237.48V49.0008H240.049V44.8641H237.48Z" fill="#0056D2"/>
<path d="M237.48 51.5864V52.6208H238.508V54.6894H237.48V55.7235H240.049V51.5864H237.48Z" fill="#0056D2"/>
<path d="M237.48 58.309V59.3434H238.508V61.4116H237.48V62.446H240.049V58.309H237.48Z" fill="#0056D2"/>
<path d="M240.049 78.4765H237.48V82.6134H240.049V78.4765Z" fill="#0056D2"/>
<path d="M237.48 71.7542V72.7882H238.508V74.8568H237.48V75.8908H240.049V71.7542H237.48Z" fill="#0056D2"/>
<path d="M240.049 91.9215H237.48V96.0584H240.049V91.9215Z" fill="#0056D2"/>
<path d="M237.48 85.199V86.2331H238.508V88.3016H237.48V89.336H240.049V85.199H237.48Z" fill="#0056D2"/>
<path d="M240.049 105.367H237.48V109.503H240.049V105.367Z" fill="#0056D2"/>
<path d="M237.48 98.6439V99.6783H238.508V101.747H237.48V102.781H240.049V98.6439H237.48Z" fill="#0056D2"/>
<path d="M240.049 118.812H237.48V122.948H240.049V118.812Z" fill="#0056D2"/>
<path d="M240.049 136.393H237.48V140.53H240.049V136.393Z" fill="#0056D2"/>
<path d="M237.48 112.089V113.123H238.508V115.192H237.48V116.226H240.049V112.089H237.48Z" fill="#0056D2"/>
<path d="M237.48 143.633V144.667H238.508V146.736H237.48V147.77H240.049V143.633H237.48Z" fill="#0056D2"/>
<path d="M201.508 136.394V137.428H202.535V139.496H201.508V140.53H204.077V136.394H201.508Z" fill="#0056D2"/>
<path d="M201.508 143.116V144.15H202.535V146.219H201.508V147.253H204.077V143.116H201.508Z" fill="#0056D2"/>
<path d="M188.146 65.0316V66.0656H189.174V68.1342H188.146V69.1686H190.716V65.0316H188.146Z" fill="#0056D2"/>
<path d="M188.146 91.4045V92.4386H189.174V94.5071H188.146V95.5412H190.716V91.4045H188.146Z" fill="#0056D2"/>
<path d="M188.146 98.1268V99.1613H189.174V101.23H188.146V102.264H190.716V98.1268H188.146Z" fill="#0056D2"/>
<path d="M188.146 111.572V112.606H189.174V114.675H188.146V115.709H190.716V111.572H188.146Z" fill="#0056D2"/>
<path d="M188.146 130.705V131.739H189.174V133.808H188.146V134.842H190.716V130.705H188.146Z" fill="#0056D2"/>
<path d="M188.146 136.394V137.428H189.174V139.496H188.146V140.53H190.716V136.394H188.146Z" fill="#0056D2"/>
<path d="M217.438 33.4875H214.869V37.6244H217.438V33.4875Z" fill="#0056D2"/>
<path d="M217.438 40.21H214.869V44.3469H217.438V40.21Z" fill="#0056D2"/>
<path d="M217.438 47.4496H213.841V47.9667H217.438V47.4496Z" fill="#0056D2"/>
<path d="M217.438 80.545H213.841V81.0621H217.438V80.545Z" fill="#0056D2"/>
<path d="M217.438 86.2332H213.841V86.7503H217.438V86.2332Z" fill="#0056D2"/>
<path d="M214.869 52.1038V53.1378H215.896V55.2064H214.869V56.2405H217.438V52.1038H214.869Z" fill="#0056D2"/>
<path d="M214.869 65.0316V66.0656H215.896V68.1342H214.869V69.1686H217.438V65.0316H214.869Z" fill="#0056D2"/>
<path d="M214.869 91.4045V92.4386H215.896V94.5071H214.869V95.5412H217.438V91.4045H214.869Z" fill="#0056D2"/>
<path d="M246.73 78.4765H244.16V82.6134H246.73V78.4765Z" fill="#0056D2"/>
<path d="M246.73 85.199H244.16V89.336H246.73V85.199Z" fill="#0056D2"/>
<path d="M246.73 92.4386H243.133V92.9557H246.73V92.4386Z" fill="#0056D2"/>
<path d="M246.73 125.534H243.133V126.051H246.73V125.534Z" fill="#0056D2"/>
<path d="M246.73 131.222H243.133V131.739H246.73V131.222Z" fill="#0056D2"/>
<path d="M244.16 97.0927V98.1268H245.188V100.195H244.16V101.23H246.73V97.0927H244.16Z" fill="#0056D2"/>
<path d="M244.16 110.021V111.055H245.188V113.123H244.16V114.158H246.73V110.021H244.16Z" fill="#0056D2"/>
<path d="M244.16 136.394V137.428H245.188V139.496H244.16V140.53H246.73V136.394H244.16Z" fill="#0056D2"/>
<path d="M354 248.005H78.407V248.86H354V248.005Z" fill="#2F2E41"/>
<path d="M135.372 146.742V164.167L137.703 174.89C137.703 174.89 137.37 181.591 137.703 183.602C138.036 185.612 137.37 188.963 135.372 188.963C133.374 188.963 132.375 193.99 132.375 193.99C132.375 193.99 131.709 196 130.044 196.335C128.379 196.67 128.379 196.335 128.379 196.335L127.047 199.686L99.4077 218.116L104.736 231.52C104.736 231.52 113.061 228.504 113.727 227.499C114.393 226.494 120.054 228.839 120.054 226.494C120.054 224.148 121.053 218.116 123.051 217.781C125.049 217.446 141.699 209.739 141.699 209.739C141.699 209.739 150.357 200.021 151.023 196.335C151.689 192.649 154.686 182.262 154.686 182.262L163.011 196.335V224.483L161.679 239.562L176.331 237.552C176.331 237.552 174.999 228.169 176.331 226.829C177.663 225.488 179.661 209.404 178.329 207.393C176.997 205.383 178.995 196.335 178.329 194.995C177.663 193.655 177.996 183.937 176.331 181.256C174.666 178.576 164.676 151.098 164.676 151.098L135.372 146.742Z" fill="#2F2E41"/>
<path d="M163.677 238.892C163.677 238.892 158.682 247.269 162.012 248.274C165.342 249.28 171.669 248.274 172.335 248.274C173.001 248.274 184.989 248.61 184.989 248.61C184.989 248.61 192.981 246.934 192.981 244.588C192.981 242.243 187.986 242.243 186.321 241.908C184.656 241.573 174.333 237.552 174.333 237.552L163.677 238.892Z" fill="#2F2E41"/>
<path d="M100.937 218.494C100.937 218.494 91.3126 217.212 91.7195 220.686C92.1263 224.161 95.5578 229.603 95.8225 230.218C96.0018 230.635 98.1051 235.907 99.444 239.268C100.412 241.731 101.866 243.971 103.718 245.853C105.027 247.169 106.454 248.225 107.39 247.817C109.529 246.885 107.544 242.273 107.187 240.602C106.831 238.931 106.395 227.801 106.395 227.801L100.937 218.494Z" fill="#2F2E41"/>
<path d="M167.839 91.2844L178.495 66.4877C178.495 66.4877 177.496 64.1421 175.165 64.4772C175.165 64.4772 172.002 56.2674 166.008 56.2674C166.008 56.2674 157.017 51.2411 154.353 56.2674C154.353 56.2674 148.692 61.2938 149.025 65.9851C149.358 70.6763 149.691 74.0273 149.691 74.0273C149.691 74.0273 144.363 74.6974 145.362 77.3782C146.361 80.0589 146.694 80.0589 145.362 81.0642L144.03 82.0694C144.03 82.0694 116.391 107.201 131.709 144.061L133.041 149.758V155.119C133.041 155.119 166.674 155.454 166.674 155.119C166.674 154.784 166.008 152.774 167.34 151.433C168.672 150.093 168.672 148.082 168.672 148.082C168.672 148.082 167.34 141.38 168.006 139.37C168.672 137.359 169.005 128.647 167.673 126.636C166.341 124.626 167.007 108.542 167.007 108.542L170.004 102.845L169.005 99.4942L168.006 96.1432L167.839 91.2844Z" fill="#8985A8"/>
<path opacity="0.1" d="M165.009 158.47C165.009 158.47 161.013 147.412 161.346 145.402C161.679 143.391 160.68 139.37 160.68 139.37L159.348 112.228C159.348 112.228 165.009 88.101 152.355 84.08C152.355 84.08 149.153 85.4858 146.529 90.0101C143.935 91.1729 140.787 94.1157 140.034 101.505C138.702 114.573 144.696 148.082 147.693 153.779C150.69 159.475 152.688 163.496 152.688 163.496L155.82 162.096C155.95 162.354 156.018 162.491 156.018 162.491L165.009 158.47Z" fill="black"/>
<path d="M166.84 88.2686C167.392 88.2686 167.839 87.8185 167.839 87.2633C167.839 86.7081 167.392 86.2581 166.84 86.2581C166.289 86.2581 165.841 86.7081 165.841 87.2633C165.841 87.8185 166.289 88.2686 166.84 88.2686Z" fill="#F2F2F2"/>
<path d="M167.173 87.2633H166.507V103.013H167.173V87.2633Z" fill="#3F3D56"/>
<path d="M154.852 159.643L157.516 165.339C157.516 165.339 163.51 163.329 163.51 162.324C163.51 161.318 160.846 156.962 160.846 156.962L154.852 159.643Z" fill="#FFB8B8"/>
<path d="M151.023 84.08C151.023 84.08 143.364 87.4309 142.032 100.499C140.7 113.568 146.694 147.077 149.691 152.774C152.688 158.47 154.686 162.491 154.686 162.491L163.677 158.47C163.677 158.47 159.681 147.412 160.014 145.402C160.347 143.391 159.348 139.37 159.348 139.37L158.016 112.228C158.016 112.228 163.677 88.101 151.023 84.08Z" fill="#8985A8"/>
</g>
<defs>
<clipPath id="clip0_21_1173">
<rect width="347" height="237.609" fill="white" transform="translate(7 11.2515)"/>
</clipPath>
</defs>
</svg>
