<svg width="35" height="35" viewBox="0 0 35 35" fill="none" xmlns="http://www.w3.org/2000/svg">
<path fill-rule="evenodd" clip-rule="evenodd" d="M17.5 31.5C21.213 31.5 24.774 30.025 27.3995 27.3995C30.025 24.774 31.5 21.213 31.5 17.5C31.5 13.787 30.025 10.226 27.3995 7.60051C24.774 4.975 21.213 3.5 17.5 3.5C13.787 3.5 10.226 4.975 7.60051 7.60051C4.975 10.226 3.5 13.787 3.5 17.5C3.5 21.213 4.975 24.774 7.60051 27.3995C10.226 30.025 13.787 31.5 17.5 31.5ZM23.9872 15.2372C24.306 14.9072 24.4824 14.4651 24.4784 14.0063C24.4744 13.5475 24.2904 13.1085 23.9659 12.7841C23.6415 12.4596 23.2025 12.2756 22.7437 12.2716C22.2849 12.2676 21.8428 12.444 21.5128 12.7628L15.75 18.5255L13.4872 16.2628C13.1572 15.944 12.7151 15.7676 12.2563 15.7716C11.7975 15.7756 11.3585 15.9596 11.0341 16.2841C10.7096 16.6085 10.5256 17.0475 10.5216 17.5063C10.5176 17.9651 10.694 18.4072 11.0128 18.7372L14.5128 22.2372C14.8409 22.5653 15.286 22.7496 15.75 22.7496C16.214 22.7496 16.6591 22.5653 16.9872 22.2372L23.9872 15.2372Z" fill="#0B2852"/>
</svg>
