<svg width="142" height="58" viewBox="0 0 142 58" fill="none" xmlns="http://www.w3.org/2000/svg">
<rect y="2" width="142" height="54" rx="10" fill="white"/>
<path d="M36.7146 15.4128V19.7452H29.632V42.1742H24.3011V19.7452H17.2185V15.4128H36.7146ZM39.2335 31.4773C39.2335 29.3303 39.6523 27.426 40.49 25.7646C41.3531 24.1032 42.5082 22.8252 43.9552 21.9306C45.4275 21.036 47.0649 20.5887 48.8673 20.5887C50.4412 20.5887 51.812 20.9082 52.9797 21.5472C54.1729 22.1862 55.1248 22.9914 55.8356 23.9626V20.9338H61.2045V42.1742H55.8356V39.0687C55.1502 40.0655 54.1982 40.8962 52.9797 41.5608C51.7866 42.1998 50.4031 42.5193 48.8292 42.5193C47.0522 42.5193 45.4275 42.0592 43.9552 41.1391C42.5082 40.2189 41.3531 38.9281 40.49 37.2667C39.6523 35.5797 39.2335 33.6499 39.2335 31.4773ZM55.8356 31.554C55.8356 30.2504 55.5818 29.1386 55.074 28.2184C54.5663 27.2727 53.8809 26.557 53.0178 26.0714C52.1547 25.5602 51.2281 25.3046 50.2381 25.3046C49.2481 25.3046 48.3342 25.5474 47.4965 26.033C46.6587 26.5187 45.9733 27.2343 45.4402 28.1801C44.9325 29.1002 44.6787 30.1993 44.6787 31.4773C44.6787 32.7553 44.9325 33.88 45.4402 34.8513C45.9733 35.797 46.6587 36.5254 47.4965 37.0367C48.3596 37.5479 49.2734 37.8035 50.2381 37.8035C51.2281 37.8035 52.1547 37.5606 53.0178 37.075C53.8809 36.5638 54.5663 35.8481 55.074 34.9279C55.5818 33.9822 55.8356 32.8576 55.8356 31.554ZM74.4837 42.5193C72.7575 42.5193 71.2089 42.2126 69.8381 41.5991C68.4673 40.9601 67.3757 40.1039 66.5634 39.0303C65.7764 37.9568 65.3449 36.7683 65.2687 35.4647H70.6378C70.7393 36.2826 71.1328 36.96 71.8182 37.4967C72.529 38.0335 73.4048 38.3019 74.4456 38.3019C75.461 38.3019 76.248 38.0974 76.8064 37.6884C77.3903 37.2795 77.6822 36.7555 77.6822 36.1165C77.6822 35.4264 77.3268 34.9152 76.6161 34.5829C75.9306 34.225 74.8264 33.8416 73.3032 33.4327C71.7293 33.0493 70.4347 32.6531 69.4193 32.2441C68.4292 31.8352 67.5661 31.2089 66.8299 30.3655C66.1191 29.522 65.7637 28.3845 65.7637 26.9532C65.7637 25.7774 66.0937 24.7039 66.7538 23.7326C67.4392 22.7613 68.4038 21.9945 69.6477 21.4322C70.917 20.8699 72.402 20.5887 74.1029 20.5887C76.6161 20.5887 78.6215 21.2277 80.1193 22.5057C81.617 23.7582 82.442 25.4579 82.5944 27.605H77.4919C77.4157 26.7615 77.0603 26.0969 76.4257 25.6113C75.8164 25.1001 74.9914 24.8445 73.9506 24.8445C72.9859 24.8445 72.237 25.0234 71.7039 25.3812C71.1962 25.7391 70.9424 26.2375 70.9424 26.8765C70.9424 27.5922 71.2978 28.1417 72.0086 28.5251C72.7194 28.883 73.8236 29.2536 75.3214 29.637C76.8445 30.0204 78.1011 30.4166 79.0911 30.8255C80.0812 31.2345 80.9316 31.8735 81.6424 32.7425C82.3786 33.586 82.7594 34.7107 82.7847 36.1165C82.7847 37.3434 82.442 38.4425 81.7566 39.4137C81.0966 40.385 80.132 41.1518 78.8627 41.7142C77.6188 42.2509 76.1591 42.5193 74.4837 42.5193ZM99.6505 42.1742L92.4918 33.126V42.1742H87.1608V13.8025H92.4918V29.9437L99.5743 20.9338H106.505L97.2135 31.5923L106.581 42.1742H99.6505Z" fill="#0B2852"/>
<path d="M114.409 19.5695L99.1072 12.4368L96.0193 19.1526L111.321 26.2853L114.409 19.5695Z" fill="#0056D2"/>
<path d="M102.762 24.6941C106.987 26.6637 110.819 27.3761 111.321 26.2852C111.822 25.1943 108.804 22.7132 104.578 20.7436C100.353 18.774 96.5206 18.0616 96.019 19.1525C95.5174 20.2434 98.5362 22.7245 102.762 24.6941Z" fill="#0056D2"/>
<path d="M111.495 6.21826L94.5226 7.90097L104.23 22.0202L121.398 20.429L111.495 6.21826Z" fill="#0056D2" stroke="white"/>
<path d="M120.025 19.7889C120.125 19.5707 120.031 19.312 119.814 19.211C119.598 19.11 119.341 19.2049 119.24 19.4231L116.697 24.9538C116.597 25.172 116.691 25.4308 116.908 25.5318C117.125 25.6328 117.382 25.5378 117.482 25.3196L120.025 19.7889Z" fill="#0056D2"/>
<path d="M116.182 27.112C116.398 27.213 116.737 26.9411 116.937 26.5048C117.138 26.0684 117.125 25.6328 116.908 25.5318C116.692 25.4308 116.353 25.7026 116.153 26.139C115.952 26.5753 115.965 27.011 116.182 27.112Z" fill="#0056D2"/>
</svg>
