<svg width="361" height="259" viewBox="0 0 361 259" fill="none" xmlns="http://www.w3.org/2000/svg">
<rect y="0.176453" width="361" height="258.752" rx="20" fill="white"/>
<path d="M315.805 58.8544C279.486 8.24949 202.763 -12.278 127.308 9.8306C87.4175 21.5188 48.9556 44.9378 29.8949 90.2845C-4.1783 171.347 67.3626 197.236 114.143 205.487C136.763 209.477 158.067 216.179 177.535 225.304C212.561 241.72 274.557 256.267 321.307 187.885C355.191 138.321 339.997 92.5622 315.805 58.8544Z" fill="#F2F2F2"/>
<path d="M105.237 68.8663C105.136 68.062 104.93 67.2744 104.626 66.5231C104.587 66.3811 104.519 66.2486 104.427 66.1343C104.334 66.0199 104.219 65.9262 104.088 65.859C103.913 65.8134 103.729 65.8114 103.553 65.853L100.81 66.2733C100.58 66.2838 100.36 66.3694 100.184 66.5169C99.8266 66.8931 100.178 67.499 100.167 68.0181C100.155 68.6018 99.6372 69.0756 99.0755 69.2323C98.5022 69.3483 97.9108 69.341 97.3405 69.2108L93.5043 68.6139C94.6341 68.2527 95.6397 67.5808 96.4064 66.6748C96.9112 66.076 97.1798 64.9581 96.4502 64.6745C96.2334 64.6149 96.0074 64.5968 95.7839 64.6209C94.0459 64.6345 92.6782 63.1815 91.0511 62.5695C90.0097 62.2031 88.8793 62.1759 87.8216 62.4916C86.7638 62.8074 85.8328 63.4499 85.1617 64.3274L87.2053 64.4261C87.3975 64.4154 87.5882 64.4663 87.7496 64.5714C88.1975 64.9399 87.6407 65.6475 87.7038 66.2245C87.7857 66.974 88.7797 67.134 89.529 67.2098C90.2782 67.2856 91.2287 67.8952 90.8683 68.5572C87.1025 69.856 83.2703 66.0184 79.3154 66.4908C78.3144 66.6104 77.3692 67.0041 76.3919 67.2517C70.422 68.7641 64.2502 64.7288 58.1516 65.5834C56.7958 65.8148 55.4633 66.1667 54.1698 66.6349C53.3398 66.9078 52.474 67.2027 51.871 67.8355C51.2679 68.4684 51.0383 69.5507 51.6097 70.2125C50.0349 70.3423 48.4496 70.1914 46.9275 69.7668C47.3391 69.9959 47.6815 70.3317 47.9188 70.739C48.1561 71.1463 48.2795 71.6101 48.2761 72.0816C45.8173 72.4831 43.4236 73.2139 41.1594 74.2544C41.582 74.958 42.0756 75.6164 42.6324 76.2191L39.5197 78.2214C40.5713 78.4867 41.115 79.9226 40.5035 80.8194C41.5939 80.3336 42.2697 79.0771 43.4357 78.8223C44.1996 78.6554 44.9769 78.9683 45.7016 79.2623C46.4263 79.5562 47.2228 79.8412 47.973 79.6206C48.7232 79.4 49.2766 78.426 48.7999 77.8055C52.0064 76.8687 55.3203 76.3503 58.6595 76.2631C58.9171 76.2307 59.1783 76.2804 59.4062 76.405C59.8408 76.7069 59.7265 77.3591 59.7031 77.8883C59.6797 78.4175 60.0916 79.113 60.5639 78.8745C60.0082 79.357 60.4833 80.2654 61.0165 80.7728C61.5496 81.2802 62.1923 81.9804 61.8658 82.6404C61.7807 82.8127 61.6362 82.9505 61.5542 83.1243C61.3122 83.6374 61.6964 84.2356 62.1495 84.5763C62.6026 84.9171 63.1577 85.1552 63.4725 85.627C63.7872 86.0989 63.6443 86.9247 63.0814 86.9906L61.4816 84.9568C60.935 85.5243 60.5603 86.2353 60.4009 87.0074C62.0974 88.396 62.3526 91.2224 60.9323 92.8931C60.2065 93.7469 59.1743 94.2657 58.2735 94.9316C57.3727 95.5976 56.5391 96.5459 56.5414 97.6671C56.5453 99.6041 56.3872 101.404 57.1122 103.2C58.4489 106.511 59.9922 109.735 61.733 112.853C62.1902 113.671 62.781 114.568 63.707 114.709C62.5367 111.857 61.4831 108.959 60.5463 106.018C61.1565 106.02 61.8616 106.069 62.2192 106.564C62.5154 106.973 62.4518 107.531 62.5438 108.028C62.6609 108.51 62.856 108.969 63.1216 109.388L68.7104 119.356C69.1737 120.183 69.7052 121.07 70.5906 121.404C71.1567 121.618 71.8117 121.578 72.3328 121.886C72.7412 122.127 73.0163 122.556 73.4327 122.783C74.61 123.426 76.2472 122.193 77.3474 122.961C77.662 123.18 77.8621 123.529 78.152 123.781C79.1682 124.662 80.8351 124.072 82.0081 124.729C82.7641 125.153 83.1559 126 83.5592 126.768C84.5693 128.691 86.2036 130.575 88.3683 130.728C89.0482 130.777 89.7428 130.647 90.4075 130.799C91.0721 130.95 91.7264 131.531 91.6197 132.205C91.4368 133.361 92.0071 134.626 91.854 135.786C91.575 137.9 88.5816 138.828 88.3245 140.944C88.2682 141.407 88.3563 141.885 88.2461 142.339C88.1111 142.895 87.6943 143.347 87.5461 143.899C87.2654 144.946 88.0145 145.988 88.8374 146.692C89.6602 147.397 90.6418 148.004 91.0917 148.99C91.5672 150.032 91.3336 151.247 91.4882 152.382C91.8258 154.86 93.9636 156.698 96.1636 157.882C96.8339 158.243 97.5536 158.592 97.9875 159.219C98.5537 160.036 98.4973 161.113 98.6864 162.09C99.1495 164.481 101.16 166.451 101.217 168.887C101.258 170.617 100.297 172.188 99.7228 173.821C99.1846 175.386 98.9899 177.048 99.1518 178.695C99.3138 180.342 99.8286 181.935 100.661 183.364C101.091 184.09 101.604 184.775 101.908 185.562C102.45 186.966 102.274 188.563 102.774 189.983C103.435 191.861 105.25 193.411 105.077 195.395C105.901 197.108 107.721 197.951 109.551 198.461L112.832 199.375C113.46 199.55 114.116 199.727 114.756 199.6C115.395 199.473 116.006 198.941 115.989 198.289C114.381 197.925 112.72 197.539 111.394 196.558C110.068 195.576 109.16 193.828 109.663 192.256C109.896 191.527 110.393 190.685 109.921 190.082C109.651 189.737 109.157 189.647 108.852 189.332C108.377 188.842 108.54 188.017 108.882 187.425C109.223 186.833 109.717 186.304 109.855 185.634C109.925 185.26 109.878 184.873 109.722 184.525C109.565 184.178 109.307 183.887 108.98 183.691C109.589 183.461 110.142 183.105 110.604 182.647C111.031 182.159 111.228 181.406 110.892 180.851C111.89 180.978 113.067 181.04 113.722 180.276C114.245 179.666 114.209 178.754 114.003 177.977C113.796 177.2 113.447 176.446 113.436 175.642C115.737 175.751 118.043 175.673 120.331 175.408C120 174.292 119.248 173.349 118.235 172.779C119.271 172.603 120.215 171.361 120.543 170.361C120.87 169.361 120.787 168.272 120.584 167.239C120.506 166.973 120.496 166.692 120.553 166.421C120.67 166.048 121.035 165.821 121.373 165.627L126.517 162.669C126.824 162.515 127.103 162.309 127.34 162.061C127.879 161.427 127.799 160.47 127.523 159.685C127.247 158.899 126.805 158.161 126.699 157.335C126.381 154.866 129.021 153.094 129.912 150.77C130.261 149.858 130.333 148.866 130.4 147.892C130.473 146.845 130.478 145.629 129.676 144.954C128.906 144.307 127.704 144.452 126.898 143.85C126.16 143.299 125.906 142.228 125.099 141.782C124.367 141.378 123.448 141.635 122.634 141.445C121.199 141.11 120.297 139.454 118.832 139.301C118.006 139.215 117.07 139.619 116.393 139.137C115.796 138.713 115.772 137.859 115.658 137.135C115.459 136.009 114.92 134.972 114.115 134.162C113.309 133.353 112.274 132.81 111.151 132.607C110.298 132.47 109.371 132.522 108.646 132.053C107.912 131.578 107.575 130.689 106.999 130.032C106.07 128.972 104.606 128.596 103.235 128.273L97.658 126.96C96.668 126.727 95.3919 126.604 94.8607 127.472C94.7034 127.802 94.5921 128.153 94.5298 128.514C94.3307 129.167 93.9301 129.739 93.3855 130.15C92.8409 130.56 92.1804 130.787 91.4988 130.798C91.0315 130 90.2743 129.413 89.3852 129.161C88.8197 129.003 88.2144 128.985 87.6751 128.753C87.3814 128.61 87.12 128.408 86.9069 128.159C86.6939 127.911 86.5337 127.622 86.4361 127.31C86.3385 126.997 86.3057 126.668 86.3395 126.343C86.3733 126.017 86.4731 125.702 86.6328 125.417C86.9543 124.843 87.0785 124.18 86.9861 123.529C86.8938 122.878 86.59 122.276 86.1218 121.815C85.1734 120.963 83.8015 120.757 82.5298 120.842C82.1967 120.114 82.7536 119.293 83.3537 118.764C83.9539 118.236 84.6826 117.716 84.8133 116.926C85.0188 115.684 83.4359 114.74 82.2341 115.111C81.0322 115.481 80.2651 116.65 79.7581 117.802C79.4671 118.463 79.2198 119.159 78.7608 119.717C78.3019 120.274 77.5629 120.673 76.8638 120.495C75.8742 120.241 75.492 119.064 75.273 118.065C74.9791 116.725 74.6835 115.366 74.7451 113.995C74.8067 112.624 75.2682 111.217 76.2778 110.289C77.9228 108.777 80.4465 108.925 82.6667 109.166C82.1421 108.574 82.2718 107.577 82.833 107.02C83.1292 106.756 83.4852 106.569 83.8701 106.475C84.255 106.38 84.6571 106.381 85.0416 106.477C85.7106 106.616 86.3133 106.977 86.7526 107.501C87.3835 108.271 87.5629 109.311 88.0398 110.185C88.5167 111.06 89.589 111.805 90.4667 111.336C91.2247 110.931 91.3451 109.879 91.1564 109.039C90.9677 108.2 90.567 107.384 90.6353 106.526C90.7657 104.889 92.46 103.904 93.9551 103.23C95.4502 102.556 97.1621 101.65 97.399 100.025C97.4071 99.7073 97.467 99.3927 97.5764 99.094C97.7422 98.8301 97.9727 98.6132 98.2458 98.4637C102.609 95.5763 107.045 92.6537 112.033 91.076C112.292 90.9939 112.322 91.0852 112.587 91.0208C112.957 90.8067 112.712 90.2142 112.357 89.9756C112.002 89.7369 111.528 89.5539 111.438 89.1355C111.372 88.8279 111.553 88.5259 111.6 88.2149C111.715 87.4505 110.802 86.7447 110.093 87.0503C109.692 86.5191 110.485 85.9018 111.126 85.7251C113.05 85.1947 115.026 84.8716 117.019 84.7611C117.249 84.7245 117.485 84.7646 117.69 84.8753C118.025 85.1075 117.982 85.6401 117.745 85.9715C117.507 86.3029 117.138 86.511 116.843 86.7915C116.52 87.1065 116.289 87.5044 116.177 87.9417C116.064 88.3789 116.074 88.8387 116.204 89.2709C117.245 89.8009 118.376 90.3465 119.528 90.1598C120.681 89.973 121.704 88.6765 121.162 87.641C120.658 86.6767 119.142 86.4593 118.882 85.4024C118.577 84.1651 120.326 83.0646 119.932 81.8527C119.759 81.3218 119.231 81.0094 118.826 80.6262C118.347 80.1563 118.021 79.5524 117.891 78.8938C117.761 78.2352 117.834 77.5526 118.098 76.9358C117.438 77.0522 116.759 77.0082 116.119 76.8077C115.479 76.6072 114.897 76.256 114.421 75.7835C113.541 74.8946 112.839 73.4923 111.59 73.5321C110.444 73.5686 109.456 74.9076 108.384 74.4991C108.121 74.3986 107.843 74.1941 107.587 74.3139C107.503 74.3683 107.433 74.4411 107.382 74.5267C107.33 74.6124 107.299 74.7086 107.29 74.8082C107.017 76.1121 107.486 77.5978 106.776 78.7246C106.004 79.9508 104.217 80.1208 103.281 81.2265C102.773 81.8267 102.576 82.6354 102.109 83.2682C101.641 83.901 100.65 84.3033 100.089 83.7519C100.365 83.1847 100.44 82.5406 100.302 81.9251C100.165 81.3095 99.8233 80.7587 99.3328 80.3629C98.8123 80.0228 98.2512 79.7495 97.6626 79.5494C97.005 79.2707 96.3794 78.9216 95.7967 78.5082C95.5048 78.3319 95.2677 78.0778 95.1117 77.7743C94.9884 77.3943 95.005 76.9826 95.1586 76.6138C95.4429 75.7976 95.9444 75.0747 96.6091 74.5231C97.2738 73.9715 98.0763 73.6121 98.93 73.4838C99.6765 73.3821 100.545 73.418 101.039 72.8484C101.301 72.5471 101.438 72.0915 101.817 71.9691C102.06 71.9202 102.312 71.9513 102.536 72.0576L105.322 73.0397C105.633 73.1802 105.975 73.2369 106.315 73.2041C106.483 73.1813 106.637 73.0957 106.745 72.9644C106.852 72.833 106.907 72.6657 106.897 72.4959C106.808 72.0326 106.096 71.8102 106.16 71.3429C106.197 71.1915 106.278 71.0546 106.394 70.9504C107.399 69.8787 108.629 69.0429 109.995 68.5028C111.361 67.9627 112.829 67.7317 114.295 67.8263C114.646 68.4047 114.09 69.0895 113.627 69.5832C113.164 70.077 112.793 70.9591 113.352 71.3392C113.582 71.4564 113.837 71.5139 114.094 71.5065C114.78 71.5994 115.447 71.8019 116.069 72.1062C117.032 72.5257 117.976 72.9848 118.902 73.4834C118.82 72.8721 118.742 72.2281 118.974 71.6566C119.205 71.085 119.863 70.6367 120.437 70.8593C120.991 71.0738 121.275 71.8078 121.864 71.875C122.651 71.9647 122.962 70.8009 122.633 70.0796C122.304 69.3582 121.654 68.7542 121.599 67.9632C121.563 67.4296 121.766 66.7678 121.34 66.4447C121.188 66.3476 121.016 66.2873 120.838 66.2683L110.208 64.3098C109.577 64.1935 108.665 64.2826 108.637 64.9246C108.621 65.283 108.941 65.6375 108.799 65.967C108.648 66.3187 108.152 66.2865 107.79 66.4109C107.229 66.6039 106.947 67.271 107.001 67.8626C107.1 68.4504 107.327 69.0091 107.667 69.4985C106.976 69.209 105.929 69.1558 105.237 68.8663Z" fill="#3F3D56"/>
<path d="M96.7559 59.8315C96.0856 59.6094 95.3634 59.599 94.687 59.8019C94.0106 60.0047 93.4129 60.4109 92.9749 60.9653C92.7999 61.196 92.6529 61.5141 92.7994 61.764C93.0095 62.1222 93.5447 61.9807 93.9394 61.8526C94.5194 61.6451 95.1507 61.63 95.74 61.8096C96.1106 61.937 96.4421 62.1621 96.8143 62.2847C96.9954 62.3605 97.1938 62.3856 97.3881 62.3572C97.5824 62.3287 97.7654 62.2479 97.9173 62.1233C98.1727 61.8624 98.1887 61.4569 98.1892 61.0916C98.2069 60.9694 98.1971 60.8447 98.1606 60.7267C98.1241 60.6088 98.0617 60.5004 97.978 60.4097C97.8291 60.3233 97.6617 60.2737 97.4897 60.265C97.1046 60.1937 96.7565 59.99 96.5053 59.6891" fill="#3F3D56"/>
<path d="M100.589 58.763C100.439 58.7548 100.289 58.7854 100.154 58.8519C100.02 58.9183 99.9042 59.0183 99.8192 59.1424C99.7342 59.2664 99.6825 59.4102 99.669 59.56C99.6556 59.7099 99.6809 59.8606 99.7425 59.9978C100.203 60.1236 100.684 60.155 101.158 60.0902C101.393 60.0535 101.613 59.9477 101.789 59.7861C101.965 59.6246 102.09 59.4144 102.147 59.1822C101.59 59.2837 101.015 59.1738 100.534 58.8739" fill="#3F3D56"/>
<path d="M113.448 56.9784C112.195 57.2454 110.977 57.6596 109.82 58.2127C110.365 58.4226 110.829 58.8023 111.142 59.2959C111.456 59.7896 111.603 60.371 111.561 60.9545C111.512 61.1785 111.518 61.411 111.578 61.6324C111.711 61.9559 112.097 62.0773 112.437 62.1603C113.047 62.3462 113.683 62.4276 114.32 62.4011C114.639 62.3844 114.949 62.2884 115.221 62.1218C115.493 61.9552 115.72 61.7232 115.88 61.4469C115.972 61.1847 116.081 60.9283 116.204 60.6794C117.018 59.4384 119.435 60.9389 120.309 59.7395C120.617 59.317 120.589 58.681 120.99 58.3462C121.198 58.2003 121.438 58.1084 121.69 58.0787C123.447 57.7292 125.222 57.4761 127.007 57.3206C127.852 57.2469 128.954 56.9429 128.961 56.093C125.776 55.4667 122.474 55.9115 119.567 57.3584C118.52 57.8836 117.135 58.9883 116.126 58.2921C115.749 58.0314 115.767 57.3294 115.248 57.0362C114.716 56.7365 114.013 56.8584 113.448 56.9784Z" fill="#3F3D56"/>
<path d="M123.864 58.9288L125.36 59.2165C125.084 59.2043 124.81 59.251 124.554 59.3534C124.298 59.4559 124.067 59.6119 123.876 59.8108C123.686 60.0098 123.539 60.2472 123.447 60.5072C123.356 60.7673 123.32 61.0439 123.343 61.3188C124.744 61.7871 126.27 61.3314 127.745 61.3936C129.22 61.4559 130.936 62.5108 130.684 63.9672C130.608 64.4076 130.354 64.8476 130.486 65.2745C130.578 65.5737 130.842 65.786 130.991 66.0616C131.301 66.6358 131.053 67.3622 130.662 67.8842C130.27 68.4062 129.744 68.8227 129.401 69.3774C128.546 70.7571 129.032 72.5408 129.541 74.0822C129.688 74.6646 129.96 75.2081 130.337 75.675C131.091 76.4778 132.32 76.5476 133.421 76.5637C134.222 76.5754 135.14 76.5358 135.646 75.9143C136.307 75.103 135.845 73.8371 136.28 72.8849C136.676 72.0201 137.683 71.6491 138.596 71.3859C140.269 70.9039 141.973 70.494 143.554 69.7659C145.517 68.8617 147.352 67.4526 149.51 67.3362C150.115 67.3036 150.736 67.3751 151.319 67.209C151.902 67.043 152.456 66.5381 152.412 65.9327C152.374 65.4154 151.937 65.0356 151.595 64.6456C151.254 64.2557 150.986 63.656 151.3 63.2434L156.956 62.1856C156.555 61.0916 156.242 59.6508 157.164 58.9386C157.496 58.6817 157.941 58.579 158.224 58.2684C158.706 57.739 158.464 56.827 157.907 56.3768C157.35 55.9265 156.597 55.822 155.884 55.7627C153.404 55.5565 150.91 55.6927 148.425 55.8291C143.568 56.0957 138.71 56.3623 133.853 56.6289C132.875 56.6826 131.746 56.6006 130.849 56.9346C130.09 57.2174 129.55 57.7365 128.682 57.9188C127.079 58.2555 125.315 58.0277 123.864 58.9288Z" fill="#3F3D56"/>
<path d="M150.649 70.7619C150.497 70.7378 150.341 70.7732 150.214 70.8608C150.13 70.9534 150.08 71.0719 150.072 71.1968C149.976 71.7479 150.091 72.3152 150.394 72.785C150.549 73.0155 150.762 73.2004 151.012 73.3204C151.262 73.4404 151.54 73.4912 151.816 73.4676C152.489 73.3816 152.985 72.8065 153.604 72.5259C154.558 72.0938 158.609 71.4202 155.807 69.9042C154.841 69.3818 154.217 69.843 153.456 70.187C152.59 70.6306 151.62 70.8294 150.649 70.7619Z" fill="#3F3D56"/>
<path d="M175.194 58.073C174.867 58.2069 174.593 58.4455 174.416 58.7516C174.334 58.907 174.315 59.0879 174.363 59.257C174.41 59.426 174.521 59.5702 174.672 59.6597C174.794 59.7041 174.924 59.7247 175.054 59.7204L176.384 59.7602C176.95 59.7771 177.656 59.8976 177.808 60.443C177.92 60.848 177.668 61.3684 177.972 61.6578C178.103 61.7591 178.26 61.8205 178.425 61.8345C178.863 61.9473 179.321 61.9621 179.766 61.8779C180.734 61.6179 180.225 61.0262 180.53 60.4995C180.997 59.6934 180.916 60.1814 181.738 59.7194C182.345 59.3783 183.129 58.7594 182.623 57.8899C181.741 56.3779 176.494 57.4235 175.194 58.073Z" fill="#3F3D56"/>
<path d="M201.455 57.3128L200.683 57.4161C198.941 57.6489 197.188 57.8838 195.51 58.4076C196.237 58.6952 196.999 58.8824 197.776 58.9642C198.203 58.9852 198.628 59.0456 199.045 59.1448C199.786 59.3657 200.532 59.9362 201.249 59.644C201.692 59.4628 201.837 58.9999 202.205 58.7546C202.459 58.5852 203.422 58.3111 203.53 58.1401C204.4 56.758 202.124 57.2234 201.455 57.3128Z" fill="#3F3D56"/>
<path d="M204.848 60.8288C203.816 61.4065 202.858 62.1086 201.997 62.9194C201.634 63.2611 201.263 63.686 201.296 64.1838C201.34 64.8453 202.044 65.2291 202.653 65.4876L205.123 66.5346C205.423 66.1117 205.149 65.528 204.839 65.1125C204.529 64.697 204.161 64.2162 204.298 63.7162C204.454 63.1456 205.149 62.9511 205.732 62.8528C206.681 62.6926 209.242 62.7055 208.934 61.1735C208.572 59.3684 205.801 60.2954 204.848 60.8288Z" fill="#3F3D56"/>
<path d="M204.351 162.983C204.116 163.664 204.094 164.467 204.501 165.062C204.957 165.73 205.87 165.979 206.661 165.809C207.447 165.6 208.149 165.148 208.666 164.518C209.139 163.991 209.528 163.393 209.819 162.747C210.226 161.74 210.513 160.689 210.674 159.615L211.441 155.584C211.613 154.683 211.606 151.92 209.952 152.82C209.5 153.066 208.454 155.007 207.981 155.558C207.127 156.55 207.014 157.513 206.565 158.715C206.002 160.22 204.871 161.475 204.351 162.983Z" fill="#3F3D56"/>
<path d="M291.703 183.613C291.162 183.401 290.636 183.151 290.131 182.864C289.625 184.258 289.355 185.727 289.334 187.211L293.038 185.113C293.595 184.797 294.226 184.359 294.214 183.718C294.219 183.639 294.203 183.56 294.167 183.489C294.131 183.419 294.076 183.359 294.009 183.317C293.927 183.284 293.837 183.273 293.75 183.286C293.201 183.332 292.7 183.603 292.182 183.791C291.664 183.979 291.058 184.078 290.583 183.799" fill="#3F3D56"/>
<path d="M311.237 184.858C310.831 184.969 310.434 185.112 310.05 185.285C309.2 185.718 308.622 186.54 307.857 187.11C307.125 187.656 306.244 187.956 305.38 188.247C305.125 188.472 305.242 188.926 305.518 189.123C305.815 189.293 306.156 189.369 306.496 189.344C307.395 189.363 308.341 189.372 309.128 188.938C309.572 188.65 309.986 188.32 310.367 187.953C311.287 187.184 312.392 186.677 313.486 186.187C313.884 186.036 314.252 185.816 314.573 185.536C315.26 184.858 315.309 183.812 314.318 183.581C313.517 183.395 312 184.611 311.237 184.858Z" fill="#3F3D56"/>
<path d="M319.868 179.213C319.913 178.747 319.851 178.276 319.687 177.837C319.524 177.398 319.262 177.002 318.923 176.679C318.913 177.612 318.885 178.607 318.361 179.378C317.987 179.928 317.401 180.3 316.992 180.824C316.583 181.348 316.401 182.178 316.881 182.638C317.188 182.871 317.562 183 317.947 183.005C318.903 183.118 320.009 183.181 320.679 182.489C321.045 182.112 321.223 181.553 321.669 181.276C321.835 181.206 321.984 181.1 322.104 180.965C322.288 180.671 321.995 180.285 321.666 180.179C321.336 180.074 320.973 180.123 320.642 180.023C320.311 179.923 320.007 179.55 320.177 179.248" fill="#3F3D56"/>
<path d="M304.528 144.991C304.027 145.113 303.508 145.143 302.995 145.081C302.145 144.924 301.482 144.282 300.796 143.756C299.163 142.511 297.178 141.817 295.126 141.773C293.26 141.737 291.376 142.244 289.543 141.89C289.663 142.557 290.233 143.058 290.841 143.355C291.449 143.652 292.12 143.802 292.731 144.093C293.71 144.564 294.486 145.373 294.918 146.371C295.115 146.831 295.238 147.331 295.537 147.733C296.146 148.554 297.301 148.734 298.32 148.667C299.649 148.58 301.038 148.197 302.274 148.693C303.22 149.072 303.897 149.901 304.687 150.545C305.476 151.19 306.589 151.668 307.496 151.203C306.554 150.898 305.734 150.299 305.156 149.494C304.578 148.689 304.272 147.72 304.283 146.729C305.172 146.811 307.734 146.779 307.596 145.266C307.479 143.984 305.292 144.852 304.528 144.991Z" fill="#3F3D56"/>
<path d="M292.892 155.425C293.05 154.558 293.914 153.792 293.645 152.952C293.459 152.372 292.787 152.085 292.178 152.071C291.569 152.057 290.971 152.238 290.363 152.255C289.967 152.234 289.569 152.24 289.174 152.272C287.966 152.471 287.221 153.739 286.082 154.19C285.39 154.464 284.612 154.412 283.892 154.601C282.258 155.031 281.224 156.578 280.081 157.825C278.235 159.831 275.83 161.235 273.177 161.856C272.248 162.072 271.249 162.209 270.51 162.814C269.532 163.614 269.291 164.986 269.074 166.232C268.472 169.673 267.553 173.051 266.329 176.322L270.21 176.818C270.948 176.912 271.712 177.004 272.423 176.786C272.94 176.591 273.429 176.33 273.879 176.009C275.608 174.935 277.542 174.235 279.558 173.957C280.574 173.817 281.64 173.791 282.593 174.17C283.547 174.548 284.365 175.406 284.445 176.43C284.858 176.301 285.297 176.287 285.717 176.39C286.137 176.492 286.521 176.706 286.828 177.01C287.436 177.63 287.834 178.426 287.966 179.284C288.068 179.816 288.171 180.453 288.663 180.676C289.065 180.858 289.526 180.662 289.966 180.627C291.458 180.507 292.697 182.249 294.163 181.949C295.736 181.628 296.122 179.269 297.657 178.796C298.538 178.525 299.774 178.855 300.196 178.034C300.568 177.311 299.826 176.476 299.903 175.666C299.997 174.668 301.172 174.245 302.078 173.819C305.201 172.352 306.683 168.143 305.17 165.038C304.273 163.199 302.509 161.751 302.183 159.731C301.932 158.176 302.544 156.363 301.554 155.139C301.051 154.517 300.198 154.173 299.899 153.431C299.71 152.963 299.786 152.433 299.684 151.939C299.583 151.445 299.152 150.928 298.665 151.056C297.251 151.428 296.8 155.801 296.043 156.864C294.892 158.479 292.53 157.415 292.892 155.425Z" fill="#3F3D56"/>
<path d="M266.758 146.643C266.275 146.507 265.747 146.374 265.284 146.568C264.821 146.761 264.551 147.442 264.922 147.78C267.829 147.666 270.754 147.554 273.636 147.949C276.957 148.404 280.243 149.533 283.579 149.201C281.674 148.638 279.737 148.188 277.779 147.853L274.514 147.229C273.638 147.045 272.753 146.908 271.862 146.818C269.999 146.664 268.589 147.157 266.758 146.643Z" fill="#3F3D56"/>
<path d="M269.668 136.506C269.427 136.486 269.128 136.468 269.003 136.676C268.884 136.874 269.02 137.137 268.956 137.359C268.868 137.663 268.471 137.741 268.157 137.7C267.844 137.658 267.505 137.559 267.227 137.71C267.087 137.807 266.981 137.946 266.926 138.108C266.871 138.269 266.87 138.445 266.923 138.607C267.036 138.929 267.22 139.222 267.46 139.465C267.871 139.983 268.339 140.453 268.855 140.865C269.854 141.604 271.207 141.96 271.837 143.032C271.925 143.239 272.062 143.423 272.235 143.568C272.537 143.76 272.931 143.614 273.256 143.465L274.396 142.944C274.602 142.87 274.785 142.745 274.929 142.581C275.19 142.227 275.03 141.724 274.811 141.343C274.592 140.961 274.313 140.567 274.36 140.13C274.443 139.35 275.444 139.052 275.855 138.386C276.27 137.713 276 136.848 276.048 136.059C276.104 135.137 276.683 133.937 275.751 133.248C274.96 132.662 274.204 133.203 273.635 133.85C272.437 135.213 271.871 136.69 269.668 136.506Z" fill="#3F3D56"/>
<path d="M276.588 122.726C276.978 123.472 277.789 123.917 278.213 124.644C278.674 125.432 278.621 126.449 279.12 127.213C279.632 127.996 280.663 128.412 280.95 129.303C281.263 130.276 280.552 131.458 281.119 132.308C281.225 132.447 281.358 132.562 281.511 132.647C281.664 132.731 281.832 132.783 282.006 132.799C282.18 132.815 282.355 132.795 282.52 132.74C282.686 132.684 282.838 132.595 282.967 132.478C283.206 132.217 283.334 131.873 283.324 131.52C283.313 131.166 283.165 130.83 282.911 130.584C282.575 130.278 282.093 130.145 281.813 129.787C281.667 129.581 281.57 129.344 281.529 129.094C281.376 128.374 281.4 127.627 281.6 126.918C281.675 126.738 281.694 126.54 281.655 126.349C281.528 125.982 281.032 125.956 280.683 125.786C279.891 125.399 279.911 124.28 280.049 123.408C279.957 123.989 277.893 123.002 277.677 122.673C277.248 122.021 277.482 120.762 277.397 120.04C276.47 120.488 276.112 121.813 276.588 122.726Z" fill="#3F3D56"/>
<path d="M255.8 134.207C255.419 133.78 254.845 133.333 254.335 133.591C253.945 133.787 253.838 134.327 253.991 134.736C254.177 135.134 254.463 135.475 254.822 135.728C255.886 136.607 257.032 137.4 257.96 138.421C259.621 140.249 260.501 142.716 262.308 144.4C262.671 144.79 263.152 145.051 263.677 145.142C264.203 145.191 264.794 144.853 264.855 144.327C264.905 143.894 264.603 143.507 264.309 143.186C263.607 142.421 262.838 141.718 262.176 140.919C261.87 140.612 261.677 140.21 261.631 139.779C261.627 139.349 262.019 138.899 262.435 139.005C261.929 138.876 261.554 138.032 260.811 137.873C260.19 137.74 260.04 138.125 259.301 137.808C257.892 137.203 256.787 135.313 255.8 134.207Z" fill="#3F3D56"/>
<path d="M288.907 92.6387C288.503 92.5184 288.106 92.3762 287.717 92.2129C286.671 91.8985 285.287 92.6684 285.426 93.7531C285.519 94.4738 286.189 94.9597 286.559 95.5849C287.107 96.512 286.961 97.6878 286.673 98.726C286.602 99.0475 286.467 99.3514 286.277 99.6198C286.011 99.9031 285.692 100.132 285.339 100.295C283.927 101.088 282.681 102.148 281.67 103.416C281.561 103.533 281.484 103.677 281.449 103.834C281.399 104.2 281.767 104.467 281.975 104.773C282.436 105.451 282.103 106.364 282.148 107.184C282.141 107.3 282.164 107.416 282.214 107.52C282.264 107.625 282.34 107.715 282.435 107.782C282.713 107.924 283.043 107.683 283.194 107.41C283.695 106.501 283.318 105.044 284.257 104.606C284.434 104.523 284.65 104.488 284.768 104.332C284.956 104.084 284.775 103.717 284.87 103.421C285.013 102.976 285.621 102.956 286.087 102.976C286.89 103.009 287.693 102.902 288.46 102.66C288.76 102.588 289.033 102.43 289.245 102.204C289.526 101.853 289.501 101.355 289.445 100.909C289.164 98.685 288.461 96.5359 287.373 94.5772C288.198 94.6827 289.095 94.7741 289.807 94.3437C290.205 94.1026 290.683 93.3818 290.486 92.8912C290.173 92.1153 289.608 92.7684 288.907 92.6387Z" fill="#3F3D56"/>
<path d="M183.152 104.868C183.251 105.398 183.348 105.956 183.175 106.466C183.001 106.977 182.455 107.404 181.94 107.247C181.54 107.126 181.309 106.723 181.025 106.416C179.445 104.708 175.881 105.697 174.905 103.585C174.507 102.722 174.778 101.689 174.506 100.779C174.335 100.253 173.994 99.7992 173.537 99.4883C173.08 99.1774 172.532 99.0273 171.981 99.0616C171.478 99.1344 170.988 99.2807 170.528 99.496C167.442 100.733 164.203 101.544 160.9 101.907C160.272 101.945 159.651 102.059 159.05 102.244C157.693 102.737 156.766 103.996 156.107 105.281C155.447 106.566 154.96 107.957 154.076 109.099C153.146 110.298 151.844 111.139 150.629 112.047C150.161 112.349 149.771 112.758 149.492 113.241C149.229 113.782 149.243 114.412 149.264 115.014L149.512 122.324C149.544 123.264 149.584 124.238 150.005 125.079C150.529 126.13 151.566 126.818 152.285 127.746C153.019 128.7 153.402 129.879 153.368 131.082C153.352 131.566 153.304 132.139 153.681 132.442C153.91 132.591 154.178 132.668 154.451 132.664L164.326 133.473C166.063 133.616 167.989 133.85 169.123 135.175C169.658 135.8 170.088 136.7 170.908 136.767C171.26 136.796 171.602 136.651 171.954 136.623C172.841 136.553 173.621 137.227 174.113 137.97C174.857 139.103 175.195 140.455 175.071 141.805C174.991 142.652 174.728 143.476 174.672 144.325C174.456 147.557 177.193 150.365 177.246 153.603C177.277 155.508 176.374 157.288 175.493 158.977C176.914 161.133 175.751 164.003 176.316 166.523C176.853 168.914 178.844 170.786 179.34 173.186C179.567 174.284 179.58 175.636 180.548 176.202C180.972 176.409 181.443 176.503 181.914 176.476C184.758 176.509 187.569 175.869 190.118 174.606C191.315 174.011 192.554 173.124 192.763 171.803C192.932 170.738 192.392 169.547 192.941 168.619C193.588 167.525 195.246 167.612 196.198 166.771C197.742 165.408 196.538 162.807 197.164 160.842C197.726 159.077 199.662 158.138 200.622 156.554C201 155.872 201.271 155.137 201.426 154.373C201.865 152.547 202.139 150.685 202.243 148.81C202.269 147.671 202.353 146.534 202.495 145.403C203.53 138.966 209.885 134.656 211.949 128.472C212.146 127.882 212.238 127.095 211.713 126.761C211.402 126.612 211.049 126.575 210.714 126.656L206.162 127.231C205.596 127.302 204.997 127.369 204.478 127.134C203.958 126.898 203.586 126.241 203.862 125.741C204.635 124.339 203.044 122.567 202.338 121.129C200.435 117.26 198.169 113.58 195.57 110.14C195.404 109.963 195.299 109.736 195.273 109.495L196.565 109.538C196.129 107.971 195.409 106.256 193.889 105.683C193.032 105.36 192.083 105.471 191.169 105.521C188.551 105.665 185.744 105.269 183.152 104.868Z" fill="#3F3D56"/>
<path d="M191.171 69.5545C191.856 70.283 192.624 71.0555 193.615 71.1824C195.366 71.4067 196.625 69.5938 197.427 68.019C197.457 68.4205 197.641 68.7945 197.942 69.0616C198.243 69.3286 198.636 69.4676 199.038 69.449C199.47 69.3762 199.882 69.2147 200.249 68.9747C203.719 67.0765 207.604 66.0707 211.558 66.0477C211.52 65.7479 211.594 65.4446 211.766 65.1963C211.938 64.9481 212.196 64.7725 212.49 64.7035C213.294 64.5439 214.018 65.2397 214.406 65.9625C214.793 66.6853 215.035 67.5231 215.651 68.0642C216.267 68.6052 217.46 68.5816 217.703 67.7982C217.937 67.046 217.154 66.4045 216.504 65.9611C215.854 65.5176 215.169 64.6969 215.606 64.0425C218.928 63.3063 222.27 62.5672 225.669 62.4209C226.248 62.4411 226.825 62.3416 227.363 62.1287C227.881 61.8741 228.293 61.2959 228.154 60.7349C227.412 60.9095 226.635 60.8589 225.923 60.5897C225.21 60.3204 224.593 59.8447 224.151 59.2231C228.867 58.8334 233.884 58.5013 238.063 60.7233C238.565 61.8014 236.008 62.6984 236.692 63.6708C236.911 63.9809 237.348 64.0173 237.726 64.0243C240.631 64.0783 243.552 64.1312 246.424 63.6922C247.473 63.5317 248.533 63.3052 249.587 63.4353C251.342 63.652 252.843 64.8245 254.569 65.2068C255.272 65.3623 256.06 65.3676 256.652 64.9584C257.245 64.5491 257.499 63.6173 257.014 63.0852C258.64 61.49 261.338 61.8853 263.482 62.6491C265.627 63.4128 267.658 64.6445 269.928 64.8147C271.556 64.9368 273.206 64.4984 274.814 64.7771C275.825 64.9522 276.766 65.4024 277.753 65.6789C279.622 66.2021 281.598 66.0916 283.538 66.1168C288.487 66.1836 293.382 67.1575 297.981 68.9905C298.579 69.1855 299.127 69.5097 299.587 69.9403C300.014 70.3991 300.233 71.1121 299.945 71.6699L295.193 70.9747C295.641 71.8572 296.799 72.0076 297.74 72.3121C298.68 72.6165 299.656 73.6566 299.09 74.4687C298.071 74.1438 297.148 75.1641 296.633 76.1029C296.118 77.0416 295.49 78.166 294.422 78.2231C293.466 78.2744 292.309 77.4589 291.686 78.187C292.547 79.2749 293.285 80.4556 293.885 81.7071C294.501 82.992 294.939 84.6109 294.107 85.7669C293.976 85.9732 293.777 86.1275 293.545 86.2031C292.865 86.3755 292.423 85.5426 291.936 85.0379C291.321 84.4018 290.392 84.2216 289.56 83.9233C288.728 83.625 287.852 83.0381 287.786 82.1556C287.746 81.6066 288.035 81.0961 288.249 80.5887C288.607 79.7333 288.764 78.8067 288.707 77.8809C288.66 77.136 288.452 76.3612 287.917 75.8407C287.383 75.3203 286.461 75.1552 285.887 75.6319C285.62 75.8543 285.405 76.2101 285.058 76.2234C284.444 76.2469 283.972 75.1749 283.478 75.5408C283.536 75.9307 283.455 76.3286 283.25 76.6649C281.776 77.9488 279.511 77.4056 277.61 77.8591C276.707 78.1181 275.841 78.4965 275.037 78.9842C274.737 79.113 274.481 79.3281 274.302 79.6024C274.065 80.064 274.326 80.6552 274.744 80.9621C275.188 81.2345 275.686 81.4048 276.203 81.4608C278.52 81.9002 280.871 82.5803 282.7 84.0705C284.53 85.5607 285.729 88.024 285.151 90.313L280.581 85.9413C280.755 87.7769 280.853 89.6175 280.877 91.4632C280.906 91.8236 280.857 92.1861 280.732 92.5253C280.406 93.2457 279.523 93.4882 278.75 93.6472C278.534 93.6881 278.33 93.7742 278.151 93.8997C277.971 94.0252 277.82 94.1874 277.707 94.3755C277.595 94.5636 277.523 94.7735 277.498 94.9913C277.472 95.2091 277.492 95.4298 277.558 95.6391C277.832 96.5362 278.518 97.2357 279.145 97.9326C279.773 98.6295 280.391 99.4216 280.473 100.356C280.555 101.291 279.851 102.345 278.916 102.28C278.207 102.23 277.681 101.595 277.379 100.951C277.076 100.308 276.897 99.5906 276.442 99.0436C275.068 97.388 271.98 98.0973 270.748 96.3324C270.434 96.6889 270.216 97.1199 270.116 97.5844C270.015 98.0489 270.034 98.5315 270.172 98.9864C270.745 98.6272 271.529 98.9609 271.96 99.4828C272.39 100.005 272.593 100.674 272.932 101.26C273.388 102.051 274.114 102.752 274.177 103.663C274.16 104.007 274.166 104.353 274.195 104.696C274.308 105.248 274.774 105.645 275.097 106.106C275.849 107.18 275.812 108.655 275.327 109.873C274.842 111.091 273.972 112.109 273.11 113.096C271.604 114.82 270.067 116.534 268.281 117.965C267.772 118.374 267.228 118.775 266.911 119.346C266.593 119.917 266.577 120.719 267.065 121.153C266.716 121.171 266.09 121.343 265.741 121.36C265.618 119.959 265.592 118.551 265.661 117.145C264.284 116.484 262.802 118.256 262.98 119.775C263.157 121.294 264.255 122.513 265.036 123.827C265.607 124.788 266.032 125.909 265.841 127.011C265.65 128.113 264.668 129.129 263.555 129.032C261.785 128.878 261.045 126.333 259.292 126.042C259.138 126.006 258.975 126.022 258.831 126.088C258.571 126.231 258.526 126.58 258.511 126.876C258.439 128.333 258.377 129.848 258.945 131.191C259.776 133.155 261.922 134.806 261.472 136.891C259.047 135.762 257.786 133.039 257.213 130.423C256.64 127.807 256.545 125.061 255.519 122.588C254.739 123.588 253.101 122.761 252.389 121.712C251.714 120.717 251.299 119.566 250.644 118.558C249.989 117.55 248.985 116.647 247.785 116.592C246.527 116.534 245.436 117.398 244.477 118.215C243.688 118.886 242.878 119.584 242.417 120.513C241.746 121.864 241.921 123.456 241.889 124.965C241.854 126.596 241.509 128.316 240.399 129.51C239.289 130.704 237.24 131.12 236.015 130.044C235.376 129.482 235.067 128.643 234.791 127.837C233.462 123.954 232.355 119.998 231.476 115.988C231.27 116.904 230.468 118.083 229.701 117.544C229.529 117.399 229.39 117.219 229.292 117.016C227.862 114.59 225.214 113.134 222.538 112.261C219.862 111.388 217.047 110.981 214.401 110.022C212.918 109.484 211.501 108.778 210.179 107.916C209.842 108.412 209.646 108.99 209.61 109.589C209.574 110.187 209.701 110.784 209.976 111.317C210.563 112.357 211.892 112.96 213.029 112.596C213.616 112.408 214.113 111.999 214.696 111.798C215.279 111.596 216.061 111.695 216.316 112.257C216.56 112.796 216.191 113.447 216.374 114.009C216.653 114.865 217.942 114.931 218.393 115.71C218.729 116.29 218.453 117.059 217.974 117.527C217.495 117.995 216.855 118.251 216.271 118.577C214.373 119.633 213.024 121.437 211.366 122.84C209.708 124.243 207.369 125.267 205.392 124.367C205.863 121.979 203.022 120.226 202.5 117.848C202.327 117.066 202.417 116.234 202.171 115.472C201.815 114.368 200.837 113.608 200.035 112.772C199.061 111.746 198.303 110.535 197.804 109.211C197.306 107.887 197.077 106.476 197.132 105.062C197.175 104.08 197.356 103.081 197.132 102.123C196.908 101.166 196.116 100.239 195.135 100.282C192.894 100.381 190.07 100.548 188.894 98.6352C188.475 97.9524 188.292 96.9524 188.899 96.4293C189.327 96.0602 189.959 96.095 190.521 96.1504L195.571 96.6478C196.752 96.7641 198.029 96.8601 199.042 96.2419C200.056 95.6236 200.495 93.9825 199.557 93.2551C198.871 92.7236 197.642 92.7524 197.443 91.9074C197.277 91.2036 198.055 90.4051 197.635 89.8169C197.333 89.3952 196.656 89.5122 196.246 89.8283C195.835 90.1445 195.537 90.6068 195.078 90.8462C194.272 91.2661 193.309 90.8665 192.442 90.5948C191.575 90.3232 190.413 90.3002 189.993 91.1064C189.522 92.0081 190.41 93.1897 189.943 94.0932C189.326 95.2878 187.236 94.6077 186.37 95.6353C185.375 96.8144 187.046 98.5726 186.711 100.079C186.283 100.291 185.807 100.389 185.33 100.362C184.853 100.335 184.391 100.185 183.989 99.9257C183.594 99.6567 183.279 99.2854 183.078 98.8514C182.877 98.4174 182.797 97.937 182.847 97.4611C182.93 96.7835 183.283 96.0918 183.046 95.4515C182.855 94.9338 182.336 94.6255 181.853 94.3586L176.946 91.6433C176.49 92.4896 177.066 93.5387 177.787 94.1744C178.507 94.81 179.409 95.2888 179.883 96.1253C180.182 96.7049 180.249 97.3771 180.07 98.0045C179.891 98.632 179.48 99.1674 178.92 99.5015C178.85 99.5499 178.77 99.5826 178.686 99.5973C178.602 99.612 178.516 99.6083 178.434 99.5864C178.356 99.5403 178.287 99.479 178.233 99.4061C178.179 99.3331 178.14 99.25 178.118 99.1616C177.253 96.943 175.953 94.7554 173.874 93.5964C171.796 92.4374 168.809 92.6757 167.446 94.6281C167.123 95.0919 166.905 95.6204 166.623 96.1107C165.125 98.7155 161.913 99.949 158.912 99.8684C158.618 99.8847 158.326 99.816 158.071 99.6705C157.586 99.3351 157.608 98.6234 157.682 98.0379L157.997 95.5532C158.06 95.0543 158.152 94.5028 158.546 94.1913C159.102 93.7523 159.904 94.0293 160.612 94.0191C161.148 93.994 161.664 93.8043 162.089 93.4758C162.514 93.1473 162.828 92.6959 162.989 92.1827C163.132 91.6645 163.131 91.117 162.986 90.5993C162.841 90.0815 162.558 89.6131 162.167 89.2446C161.843 88.9394 161.407 88.5561 161.578 88.1447C161.647 88.0309 161.739 87.9335 161.849 87.8593C161.959 87.7851 162.084 87.736 162.215 87.7153C163.487 87.3455 164.831 87.2486 166.081 86.8123C167.332 86.3759 168.545 85.4832 168.841 84.1908C168.931 83.7948 168.973 83.315 169.328 83.1186C169.506 83.0433 169.698 83.0041 169.891 83.0034C170.569 82.9068 171.187 82.5596 171.622 82.0301C172.057 81.5006 172.278 80.8272 172.242 80.1425C172.842 79.7232 173.681 80.0316 174.261 80.4776C174.841 80.9236 175.353 81.5128 176.058 81.7051C177.373 82.0634 178.644 80.8978 180.006 80.8924C180.579 80.8901 181.172 81.093 181.711 80.8985C182.258 80.7013 182.584 80.1566 183.004 79.7542C183.423 79.3518 184.159 79.1064 184.546 79.5399L184.216 77.0939C184.881 77.2619 185.573 77.2857 186.247 77.1637C186.921 77.0416 187.561 76.7766 188.125 76.3864L183.862 74.9444C183.714 74.9073 183.577 74.834 183.464 74.731C183.154 74.3969 183.462 73.8762 183.714 73.4965C184.317 72.5879 184.418 71.0913 183.426 70.6389C182.75 70.3302 181.973 70.7008 181.324 71.0634L178.213 72.8002C178.114 73.3923 178.837 73.7279 179.285 74.1267C179.556 74.368 179.748 74.6857 179.836 75.0382C179.923 75.3907 179.902 75.7615 179.775 76.1017C179.648 76.442 179.422 76.7359 179.125 76.9448C178.828 77.1538 178.475 77.268 178.113 77.2724C178.318 77.5391 178.46 77.8485 178.529 78.1777C178.598 78.5069 178.593 78.8475 178.513 79.1743L176.42 79.325C176.185 79.3723 175.941 79.3246 175.741 79.1923C175.517 78.9933 175.547 78.6444 175.495 78.3492C175.37 77.6365 174.673 77.1371 173.962 77.009C173.251 76.8809 172.523 77.0451 171.819 77.2072C171.52 77.3149 171.191 77.3073 170.898 77.1859C170.729 77.0763 170.601 76.9145 170.533 76.7253C170.224 75.9756 170.513 75.0945 171.009 74.4535C171.505 73.8124 172.184 73.3438 172.793 72.8101C174.251 71.5292 175.323 69.8655 175.886 68.0071C177.038 67.5237 178.231 66.8669 179.383 66.3834C181.16 65.4829 183.152 65.0964 185.136 65.2675L189.038 65.3421C190.194 65.3642 191.38 65.3925 192.448 65.8335C193.517 66.2745 194.455 67.2284 194.529 68.3831C194.551 68.5138 194.54 68.648 194.496 68.7732C194.453 68.8983 194.378 69.0103 194.279 69.0986C194.128 69.181 193.957 69.2196 193.786 69.2099C192.708 69.2478 192.249 69.5166 191.171 69.5545Z" fill="#3F3D56"/>
<path d="M160.068 81.8C160.221 81.6555 160.33 81.4717 160.385 81.2688C160.44 81.066 160.438 80.8519 160.38 80.6501C160.009 80.5067 159.605 80.4699 159.214 80.5438C158.824 80.6177 158.461 80.7993 158.168 81.0682C157.937 81.3023 157.738 81.5661 157.575 81.8525C157.063 82.6902 156.609 83.6907 156.906 84.6271C156.93 84.7292 156.975 84.8254 157.037 84.9101C157.099 84.9949 157.177 85.0664 157.267 85.1204C157.4 85.174 157.543 85.1965 157.686 85.1863C158.251 85.1856 158.816 85.1508 159.376 85.0822C159.721 85.04 160.121 84.9426 160.254 84.6219C160.429 84.2002 160.005 83.723 160.129 83.2835C160.21 83.0869 160.333 82.9105 160.489 82.7664C160.567 82.6939 160.626 82.6043 160.663 82.5047C160.7 82.405 160.713 82.2982 160.702 82.1926C160.652 81.9863 160.337 81.8693 160.223 82.0485" fill="#3F3D56"/>
<path d="M162.997 77.9974C162.495 77.8821 161.978 77.8496 161.466 77.9012C161.353 77.8978 161.24 77.9233 161.14 77.9754C161.042 78.0475 160.971 78.1501 160.939 78.267C160.83 78.6147 160.857 78.9905 161.013 79.3194C161.169 79.6484 161.443 79.9064 161.781 80.0421C161.965 80.0845 162.141 80.1554 162.303 80.2523C162.736 80.5887 162.46 81.2765 162.542 81.8192C162.634 82.4286 163.223 82.9402 163.115 83.547C163.03 84.025 162.52 84.4036 162.602 84.8822C162.688 85.3834 163.324 85.534 163.83 85.5742C164.123 85.6256 164.425 85.591 164.7 85.4744C164.975 85.2862 165.17 85.0027 165.248 84.6787C165.456 84.0608 165.543 83.409 165.505 82.7583C165.503 82.4624 165.429 82.1714 165.289 81.9107C165.136 81.7041 164.967 81.5103 164.783 81.3312C163.813 80.2013 164.835 78.5159 162.997 77.9974Z" fill="#3F3D56"/>
<path opacity="0.8" d="M290.567 166.51C290.567 166.51 216.265 123.805 184.277 131.896C184.277 131.896 116.485 139.201 108.628 155.272C108.628 155.272 87.078 87.8423 79.2213 85.5946" stroke="#6C63FF" stroke-width="2" stroke-miterlimit="10"/>
<path opacity="0.8" d="M108.628 155.272C121.086 122.007 233.325 85.1451 233.325 85.1451C217.388 89.1909 184.277 131.896 184.277 131.896C184.277 131.896 114.24 80.8745 79.2213 85.5946C79.2213 85.5946 233.438 90.6518 290.567 166.51" stroke="#6C63FF" stroke-width="2" stroke-miterlimit="10"/>
<path d="M79.2212 88.8537C81.0189 88.8537 82.4762 87.3945 82.4762 85.5946C82.4762 83.7946 81.0189 82.3354 79.2212 82.3354C77.4236 82.3354 75.9663 83.7946 75.9663 85.5946C75.9663 87.3945 77.4236 88.8537 79.2212 88.8537Z" fill="#0056D2"/>
<path d="M108.628 158.531C110.426 158.531 111.883 157.072 111.883 155.272C111.883 153.472 110.426 152.013 108.628 152.013C106.83 152.013 105.373 153.472 105.373 155.272C105.373 157.072 106.83 158.531 108.628 158.531Z" fill="#0056D2"/>
<path d="M233.325 88.4042C235.123 88.4042 236.58 86.945 236.58 85.145C236.58 83.3451 235.123 81.8859 233.325 81.8859C231.528 81.8859 230.071 83.3451 230.071 85.145C230.071 86.945 231.528 88.4042 233.325 88.4042Z" fill="#0056D2"/>
<path d="M290.567 169.77C292.365 169.77 293.822 168.31 293.822 166.51C293.822 164.71 292.365 163.251 290.567 163.251C288.77 163.251 287.312 164.71 287.312 166.51C287.312 168.31 288.77 169.77 290.567 169.77Z" fill="#0056D2"/>
<path d="M184.277 135.156C186.075 135.156 187.532 133.696 187.532 131.896C187.532 130.096 186.075 128.637 184.277 128.637C182.479 128.637 181.022 130.096 181.022 131.896C181.022 133.696 182.479 135.156 184.277 135.156Z" fill="#0056D2"/>
</svg>
