<svg width="361" height="259" viewBox="0 0 361 259" fill="none" xmlns="http://www.w3.org/2000/svg">
<rect y="0.176453" width="361" height="258.752" rx="20" fill="white"/>
<g clip-path="url(#clip0_79_3)">
<path d="M181 178.663C147.405 178.663 115.805 173.622 92.0211 164.468C67.9206 155.193 54.6479 142.733 54.6479 129.383C54.6479 116.034 67.9206 103.575 92.0211 94.2991C115.805 85.1457 147.405 80.1045 181 80.1045C214.596 80.1045 246.195 85.1457 269.979 94.2991C294.079 103.575 307.352 116.035 307.352 129.383C307.352 142.732 294.079 155.193 269.979 164.468C246.195 173.622 214.596 178.663 181 178.663V178.663ZM181 82.2068C147.653 82.2068 116.317 87.1987 92.765 96.2631C69.5296 105.206 56.7336 116.968 56.7336 129.383C56.7336 141.799 69.5296 153.561 92.765 162.504C116.317 171.569 147.653 176.561 181 176.561C214.348 176.561 245.683 171.569 269.235 162.504C292.47 153.561 305.266 141.799 305.266 129.383C305.266 116.968 292.47 105.206 269.235 96.2631C245.683 87.1987 214.347 82.2068 181 82.2068V82.2068Z" fill="#61DAFB"/>
<path d="M233.204 242.482C222.764 242.482 209.749 236.399 195.347 224.6C175.59 208.415 155.459 183.35 138.662 154.023C121.864 124.696 110.395 94.5902 106.368 69.2514C102.286 43.5749 106.355 25.7587 117.824 19.0843C129.293 12.4101 146.634 17.7665 166.653 34.1669C186.41 50.3522 206.541 75.4169 223.338 104.744C240.136 134.071 251.605 164.177 255.632 189.516C259.713 215.192 255.645 233.009 244.176 239.684C240.958 241.556 237.276 242.482 233.204 242.482V242.482ZM128.851 18.3716C125.129 18.3716 121.78 19.2092 118.867 20.9048C108.2 27.1126 104.492 44.1641 108.427 68.9188C112.415 94.0107 123.794 123.861 140.468 152.972C157.141 182.083 177.098 206.941 196.662 222.969C215.963 238.781 232.467 244.071 243.133 237.862C253.8 231.655 257.508 214.603 253.573 189.849C249.585 164.757 238.206 134.906 221.532 105.795C204.858 76.6846 184.902 51.826 165.338 35.7985C151.309 24.3051 138.758 18.3716 128.851 18.3716Z" fill="#61DAFB"/>
<path d="M128.795 242.482C124.722 242.482 121.043 241.556 117.824 239.684C106.355 233.009 102.286 215.192 106.368 189.516C110.395 164.177 121.864 134.071 138.662 104.744C155.459 75.4169 175.59 50.3522 195.347 34.1669C215.366 17.7662 232.708 12.4094 244.176 19.0843C255.645 25.7587 259.713 43.5749 255.632 69.2514C251.605 94.5902 240.136 124.696 223.338 154.023C206.541 183.35 186.41 208.415 166.653 224.6C152.252 236.399 139.236 242.482 128.795 242.482V242.482ZM233.148 18.3716C223.242 18.3716 210.692 24.3044 196.662 35.7985C177.098 51.826 157.141 76.6847 140.468 105.795C123.794 134.906 112.415 164.757 108.427 189.849C104.492 214.603 108.2 231.655 118.867 237.863C121.78 239.558 125.13 240.395 128.851 240.396C138.758 240.397 151.308 234.463 165.338 222.969C184.902 206.941 204.858 182.083 221.532 152.972C238.206 123.861 249.585 94.0107 253.573 68.9188C257.508 44.1641 253.8 27.1127 243.133 20.9048C240.22 19.2098 236.87 18.3716 233.148 18.3716V18.3716Z" fill="#61DAFB"/>
<path d="M181 152.924C193.898 152.924 204.353 142.384 204.353 129.384C204.353 116.383 193.898 105.844 181 105.844C168.102 105.844 157.647 116.383 157.647 129.384C157.647 142.384 168.102 152.924 181 152.924Z" fill="#61DAFB"/>
<path d="M323.481 194.343C323.041 193.595 321.137 194.396 320.786 193.717C320.438 193.041 322.207 192.01 323.218 189.655C323.4 189.23 324.549 186.554 323.699 185.728C322.087 184.162 314.71 190.622 312.128 188.508C311.562 188.044 311.166 187.118 309.451 185.614C308.769 185.016 308.356 184.746 307.957 184.847C307.391 184.989 307.346 185.753 306.739 187.256C305.828 189.509 305.289 189.373 304.758 191.171C304.364 192.506 304.454 193.281 303.991 193.433C303.335 193.646 302.731 192.231 301.899 192.358C301.051 192.487 300.538 194.135 300.376 195.369C300.072 197.685 300.916 199.213 301.383 200.82C301.891 202.566 302.193 205.221 301.019 208.981L289.404 241.969C291.968 235.2 299.393 216.644 302.513 209.748C303.414 207.758 304.408 205.739 306.45 204.942C308.416 204.175 311.116 204.633 314.558 203.797C314.96 203.699 316.076 203.413 316.216 202.752C316.332 202.205 315.676 201.9 315.777 201.388C315.912 200.701 317.203 200.692 318.788 199.9C319.906 199.341 320.603 198.676 321.202 198.105C321.383 197.932 324.067 195.339 323.481 194.343V194.343Z" fill="#F2F2F2"/>
<path d="M277.783 211.71C277.291 211.712 277.132 212.885 276.7 212.862C276.27 212.84 276.279 211.667 275.424 210.487C275.269 210.275 274.298 208.934 273.65 209.117C272.423 209.462 273.44 214.976 271.666 215.643C271.276 215.789 270.711 215.718 269.484 216.132C268.996 216.297 268.746 216.424 268.679 216.65C268.585 216.971 268.945 217.214 269.501 217.948C270.335 219.049 270.114 219.276 270.836 220.057C271.372 220.637 271.776 220.817 271.716 221.09C271.63 221.476 270.767 221.366 270.589 221.814C270.407 222.271 271.061 223.001 271.616 223.437C272.655 224.255 273.643 224.279 274.56 224.511C275.557 224.764 276.937 225.381 278.429 227.046L291.14 242.311C288.584 239.089 281.691 230.061 279.234 226.528C278.524 225.508 277.828 224.434 278.029 223.194C278.223 222 279.225 220.796 279.811 218.852C279.88 218.625 280.062 217.991 279.781 217.73C279.548 217.515 279.21 217.752 278.99 217.554C278.694 217.289 279.062 216.648 279.134 215.635C279.185 214.92 279.062 214.384 278.957 213.923C278.925 213.784 278.437 211.707 277.783 211.71H277.783Z" fill="#F2F2F2"/>
<path d="M287.585 213.928L287.289 211.264L287.424 211.062C288.05 210.128 288.369 209.217 288.373 208.351C288.373 208.213 288.367 208.076 288.361 207.936C288.335 207.38 288.303 206.689 288.66 205.884C288.861 205.435 289.424 204.396 290.27 204.525C290.497 204.557 290.67 204.662 290.8 204.786C290.819 204.755 290.839 204.724 290.86 204.69C291.124 204.285 291.332 204.112 291.533 203.944C291.688 203.816 291.847 203.683 292.097 203.37C292.207 203.232 292.293 203.111 292.365 203.009C292.584 202.702 292.869 202.335 293.373 202.342C293.912 202.368 294.194 202.816 294.381 203.114C294.714 203.643 294.866 204.026 294.966 204.279C295.002 204.371 295.044 204.476 295.065 204.508C295.238 204.765 296.649 204.525 297.18 204.437C298.374 204.236 299.407 204.063 299.832 204.822C300.137 205.364 299.911 206.082 299.139 207.012C298.898 207.301 298.643 207.521 298.415 207.694C298.604 207.807 298.772 207.981 298.84 208.253C299.001 208.899 298.451 209.546 297.205 210.179C296.895 210.337 296.478 210.548 295.895 210.649C295.62 210.697 295.372 210.709 295.16 210.715C295.156 210.838 295.127 210.972 295.053 211.11C294.834 211.515 294.378 211.708 293.692 211.662C292.936 211.622 292.314 211.476 291.766 211.349C291.286 211.238 290.874 211.145 290.55 211.166C289.949 211.215 289.485 211.7 288.942 212.329L287.585 213.928V213.928Z" fill="#F2F2F2"/>
<path d="M288.958 198.068L286.477 199.032L286.249 198.952C285.194 198.578 284.238 198.499 283.406 198.714C283.274 198.749 283.144 198.79 283.011 198.832C282.484 198.997 281.829 199.204 280.966 199.06C280.485 198.978 279.345 198.693 279.253 197.836C279.227 197.605 279.284 197.411 279.369 197.252C279.335 197.241 279.3 197.23 279.263 197.217C278.807 197.063 278.588 196.904 278.376 196.75C278.214 196.633 278.046 196.511 277.681 196.346C277.522 196.274 277.384 196.222 277.268 196.177C276.918 196.042 276.493 195.856 276.372 195.363C276.26 194.831 276.619 194.443 276.857 194.185C277.281 193.725 277.609 193.481 277.827 193.319C277.906 193.26 277.996 193.193 278.021 193.164C278.224 192.93 277.635 191.616 277.417 191.12C276.921 190.007 276.493 189.044 277.113 188.436C277.556 188.001 278.303 188.04 279.391 188.557C279.73 188.718 280.005 188.911 280.228 189.089C280.289 188.877 280.413 188.669 280.658 188.533C281.236 188.212 281.997 188.585 282.92 189.64C283.151 189.901 283.459 190.254 283.704 190.797C283.82 191.053 283.893 191.292 283.953 191.497C284.073 191.47 284.209 191.464 284.36 191.502C284.804 191.612 285.105 192.007 285.234 192.689C285.388 193.435 285.406 194.079 285.423 194.646C285.438 195.141 285.453 195.567 285.556 195.878C285.755 196.451 286.338 196.78 287.08 197.15L288.958 198.068V198.068Z" fill="#F2F2F2"/>
<path d="M287.585 190.221L287.289 187.557L287.424 187.355C288.05 186.421 288.369 185.509 288.373 184.644C288.373 184.506 288.367 184.369 288.361 184.228C288.335 183.673 288.303 182.982 288.66 182.177C288.861 181.728 289.424 180.689 290.27 180.817C290.497 180.85 290.67 180.955 290.8 181.078C290.819 181.048 290.839 181.017 290.86 180.983C291.124 180.578 291.332 180.405 291.533 180.237C291.688 180.109 291.847 179.976 292.097 179.662C292.207 179.525 292.293 179.404 292.365 179.302C292.584 178.995 292.869 178.628 293.373 178.635C293.912 178.66 294.194 179.109 294.381 179.406C294.714 179.936 294.866 180.318 294.966 180.572C295.002 180.664 295.044 180.769 295.065 180.801C295.238 181.058 296.649 180.817 297.18 180.73C298.374 180.529 299.407 180.356 299.832 181.115C300.137 181.657 299.911 182.375 299.139 183.305C298.898 183.594 298.643 183.814 298.415 183.987C298.604 184.1 298.772 184.273 298.84 184.546C299.001 185.192 298.451 185.839 297.205 186.472C296.895 186.63 296.478 186.841 295.895 186.942C295.62 186.99 295.372 187.001 295.16 187.008C295.156 187.131 295.127 187.265 295.053 187.403C294.834 187.808 294.378 188.001 293.692 187.954C292.936 187.915 292.314 187.769 291.766 187.642C291.286 187.531 290.874 187.437 290.55 187.459C289.949 187.508 289.485 187.993 288.942 188.622L287.585 190.221V190.221Z" fill="#F2F2F2"/>
<path d="M290.289 241.926L289.735 241.576L289.601 240.931L289.735 241.576L289.089 241.65C289.079 241.59 289.044 241.451 288.991 241.234C288.702 240.043 287.821 236.418 287.086 230.71C286.573 226.725 286.283 222.629 286.223 218.532C286.163 214.429 286.355 211.323 286.51 208.827C286.627 206.944 286.768 205.151 286.907 203.404C287.277 198.738 287.626 194.33 287.367 189.45C287.309 188.361 287.189 186.093 285.874 183.68C285.112 182.281 284.062 181.039 282.753 179.989L283.567 178.958C285.012 180.118 286.174 181.494 287.02 183.048C288.477 185.723 288.609 188.194 288.672 189.381C288.936 194.347 288.583 198.797 288.209 203.508C288.072 205.249 287.93 207.034 287.814 208.909C287.661 211.382 287.47 214.462 287.529 218.512C287.588 222.559 287.875 226.606 288.381 230.54C289.107 236.176 289.975 239.747 290.261 240.92C290.412 241.546 290.444 241.677 290.289 241.926V241.926Z" fill="#F2F2F2"/>
<path d="M280.356 182.082C280.303 182.082 280.249 182.08 280.194 182.077C279.081 182.016 278.051 181.345 277.131 180.082C276.699 179.487 276.479 178.81 276.038 177.458C275.97 177.249 275.638 176.192 275.437 174.738C275.305 173.787 275.321 173.39 275.508 173.038C275.716 172.647 276.051 172.375 276.429 172.191C276.412 172.065 276.426 171.935 276.48 171.802C276.703 171.253 277.295 171.325 277.615 171.36C277.777 171.381 277.979 171.408 278.197 171.396C278.541 171.379 278.725 171.276 279.004 171.122C279.272 170.974 279.604 170.79 280.097 170.689C281.07 170.484 281.884 170.762 282.153 170.853C283.566 171.328 284.263 172.435 285.069 173.718C285.23 173.975 285.782 174.911 286.146 176.195C286.409 177.121 286.372 177.532 286.293 177.839C286.132 178.467 285.752 178.828 284.788 179.622C283.782 180.455 283.276 180.871 282.843 181.125C281.833 181.713 281.198 182.082 280.356 182.082V182.082Z" fill="#F2F2F2"/>
<path d="M155.946 136.506C158.118 137.083 160.175 136.422 160.539 135.028C160.904 133.635 159.438 132.037 157.265 131.46C156.401 131.217 155.491 131.187 154.612 131.371L145.378 129.041L144.385 133.432L153.594 135.263C154.268 135.861 155.075 136.287 155.946 136.506V136.506Z" fill="#FFB6B6"/>
<path d="M105.195 115.126C105.195 115.126 103.319 118.754 105.919 120.544C108.518 122.334 130.165 130.628 130.165 130.628L151.663 135.344L152.439 130.077L132.866 123.774L116.544 112.709L105.195 115.126H105.195Z" fill="#2F2E41"/>
<path d="M130.793 232.229L134.439 230.576L128.699 213.28L123.318 215.719L130.793 232.229Z" fill="#FFB6B6"/>
<path d="M146.762 233.845C147.053 234.459 146.857 235.165 146.324 235.422L139.168 238.874C139.168 238.874 137.109 236.36 133.655 236.517L135.394 240.694L131.703 242.474L129.035 235.696C129.035 235.696 126.38 232.661 127.579 229.877C128.778 227.093 127.236 228.144 127.236 228.144L126.114 223.693L132.007 221.664L135.074 228.02L140.786 233.043L145.695 233.105C146.132 233.111 146.551 233.401 146.762 233.845L146.762 233.845V233.845Z" fill="#2F2E41"/>
<path d="M58.6475 223.299L61.9056 225.635L73.8086 211.899L69.0006 208.452L58.6475 223.299Z" fill="#FFB6B6"/>
<path d="M65.3363 238.004C64.9582 238.568 64.2546 238.754 63.765 238.421L57.1931 233.942C57.1931 233.942 58.3041 230.88 56.4237 227.956L53.7275 231.58L50.3373 229.269L54.7908 223.522C54.7908 223.522 56.0467 219.68 59.0358 219.315C62.0249 218.95 60.3454 218.14 60.3454 218.14L63.5885 214.915L68.3042 219.014L64.414 224.895L63.0015 232.402L65.4301 236.703C65.6463 237.086 65.6094 237.597 65.3363 238.004L65.3363 238.004V238.004Z" fill="#2F2E41"/>
<path d="M116.329 91.6119H99.2095V115.311H116.329V91.6119Z" fill="#2F2E41"/>
<path d="M112.484 105.158L103.189 102.372L101.43 107.184L101.179 136.559C101.179 136.559 114.494 133.52 117.509 138.585L118.514 129.469C118.514 129.469 121.78 124.91 119.016 119.086C116.253 113.261 113.648 110.635 113.648 110.635L111.48 109.463L112.484 105.158V105.158Z" fill="#0056D2"/>
<path d="M101.807 132.128L100.551 145.043L117.132 148.588C117.132 148.588 115.876 137.446 117.383 134.913L101.807 132.128V132.128Z" fill="#FFB6B6"/>
<path d="M118.137 148.335C118.137 148.335 107.586 140.485 98.5413 143.523C98.5413 143.523 87.8641 150.234 93.3912 161.883L84.975 182.016L66.1328 208.606L71.4086 214.937L96.2803 188.853L104.32 177.711L124.669 221.268L130.95 218.229L123.162 184.801L118.514 161.63L118.137 148.335H118.137Z" fill="#2F2E41"/>
<path d="M93.5168 163.276L80.9553 159.224L93.0143 125.543L91.7582 107.564L102.397 104.539L108.339 131.115L93.5168 163.276Z" fill="#2F2E41"/>
<path d="M112.953 111.335L111.054 109.421L111.901 107.656C111.901 107.656 117.384 113.388 118.388 114.907C119.393 116.427 128.777 154.59 128.777 154.59L114.62 160.49L117.384 130.525L118.407 123.786C118.558 122.789 118.389 121.77 117.924 120.877L112.953 111.335V111.335Z" fill="#2F2E41"/>
<path d="M108.333 102.762C112.933 102.762 116.663 99.0029 116.663 94.3652C116.663 89.7275 112.933 85.968 108.333 85.968C103.732 85.968 100.002 89.7275 100.002 94.3652C100.002 99.0029 103.732 102.762 108.333 102.762Z" fill="#FFB6B6"/>
<path d="M113.514 90.9327C110.656 89.0113 105.54 96.7064 103.976 91.9762C103.732 91.2386 103.158 94.5016 102.948 95.6433C102.682 97.0932 103.356 98.2513 102.948 98.5107C102.487 98.8038 101.358 97.4951 101.12 97.6914C100.886 97.8834 101.636 99.4043 102.948 101.173C104.69 103.521 105.782 104.093 107.215 105.679C108.549 107.156 111.018 109.889 110.669 112.233C110.013 116.642 99.3335 120.049 96.0399 116.739C95.2513 115.946 95.097 114.152 94.8208 110.595C94.4096 105.301 94.72 101.329 94.8208 100.149C95.2401 95.2385 95.4498 92.7831 96.4463 90.7279C97.0826 89.4154 99.2254 84.9955 103.964 83.5595C109.055 82.0169 115.113 84.5318 116.765 88.2701C117.242 89.3503 116.778 89.2351 117.374 92.776C118.08 96.9666 118.537 99.4811 120.422 100.968C122.154 102.335 123.491 101.571 124.08 102.607C125.606 105.294 118.523 113.796 115.546 112.643C113.752 111.948 113.593 107.804 113.717 105.884C113.984 101.749 116.017 100.871 115.952 97.077C115.935 96.0731 115.875 92.5196 113.514 90.9327V90.9327Z" fill="#2F2E41"/>
<path d="M77.2205 161.104C76.8668 163.34 77.7247 165.337 79.1365 165.563C80.5484 165.79 81.9792 164.161 82.3327 161.924C82.4861 161.032 82.4254 160.117 82.1557 159.254L83.5357 149.76L79.1022 149.202L78.2125 158.62C77.6898 159.357 77.3496 160.208 77.2205 161.104H77.2205Z" fill="#FFB6B6"/>
<path d="M93.2656 108.07C93.2656 108.07 89.4972 106.551 87.9898 109.336C86.4825 112.122 80.453 134.66 80.453 134.66L77.9407 156.692L83.2165 156.945L87.4874 136.686L96.7828 119.212L93.2656 108.07V108.07Z" fill="#2F2E41"/>
<path d="M333 242.378C333 242.622 332.804 242.82 332.562 242.82H29V241.937H332.562C332.804 241.937 333 242.134 333 242.378V242.378Z" fill="#E6E6E6"/>
</g>
<defs>
<clipPath id="clip0_79_3">
<rect width="304" height="226.534" fill="white" transform="translate(29 16.2855)"/>
</clipPath>
</defs>
</svg>
