<svg width="85" height="70" viewBox="0 0 85 70" fill="none" xmlns="http://www.w3.org/2000/svg">
<path d="M0 10C0 4.47715 4.47715 0 10 0H75C80.5229 0 85 4.47715 85 10V60C85 65.5228 80.5228 70 75 70H10C4.47715 70 0 65.5228 0 60V10Z" fill="#0056D2"/>
<path fill-rule="evenodd" clip-rule="evenodd" d="M37 17C33.8174 17 30.7652 18.2643 28.5147 20.5147C26.2643 22.7652 25 25.8174 25 29C25 32.1826 26.2643 35.2348 28.5147 37.4853C30.7652 39.7357 33.8174 41 37 41C40.1826 41 43.2348 39.7357 45.4853 37.4853C47.7357 35.2348 49 32.1826 49 29C49 25.8174 47.7357 22.7652 45.4853 20.5147C43.2348 18.2643 40.1826 17 37 17ZM19 29C18.9996 26.1671 19.6679 23.3741 20.9505 20.8482C22.2331 18.3223 24.0938 16.1348 26.3812 14.4636C28.6686 12.7924 31.3182 11.6846 34.1144 11.2305C36.9107 10.7764 39.7746 10.9886 42.4734 11.85C45.1721 12.7115 47.6295 14.1977 49.6455 16.1879C51.6615 18.1781 53.1794 20.616 54.0756 23.3034C54.9717 25.9908 55.221 28.8518 54.803 31.6537C54.385 34.4555 53.3115 37.1192 51.67 39.428L66.121 53.879C66.6675 54.4448 66.9699 55.2026 66.963 55.9892C66.9562 56.7758 66.6407 57.5282 66.0845 58.0845C65.5282 58.6407 64.7758 58.9562 63.9892 58.963C63.2026 58.9699 62.4448 58.6675 61.879 58.121L47.431 43.673C44.7381 45.5878 41.57 46.7245 38.274 46.9584C34.978 47.1922 31.6812 46.5143 28.7449 44.9989C25.8086 43.4835 23.3461 41.1891 21.6272 38.3671C19.9083 35.545 18.9994 32.3043 19 29V29Z" fill="white"/>
</svg>
