<svg width="30" height="30" viewBox="0 0 30 30" fill="none" xmlns="http://www.w3.org/2000/svg">
<path d="M13.5735 4.3905C14.0235 3.009 15.978 3.009 16.4265 4.3905L18.0315 9.3285C18.1295 9.62923 18.3201 9.89127 18.5761 10.0772C18.832 10.263 19.1401 10.3633 19.4565 10.3635H24.6495C26.103 10.3635 26.706 12.2235 25.5315 13.0785L21.3315 16.1295C21.075 16.3155 20.884 16.578 20.786 16.8793C20.6879 17.1805 20.6877 17.5051 20.7855 17.8065L22.3905 22.7445C22.8405 24.126 21.258 25.2765 20.0805 24.4215L15.8805 21.3705C15.6243 21.1845 15.3158 21.0843 14.9992 21.0843C14.6826 21.0843 14.3742 21.1845 14.118 21.3705L9.91796 24.4215C8.74196 25.2765 7.16096 24.126 7.60946 22.7445L9.21446 17.8065C9.31222 17.5051 9.31205 17.1805 9.21396 16.8793C9.11588 16.578 8.92492 16.3155 8.66846 16.1295L4.46996 13.08C3.29546 12.225 3.89996 10.365 5.35196 10.365H10.5435C10.86 10.3651 11.1685 10.265 11.4247 10.0791C11.681 9.89319 11.8718 9.63097 11.97 9.33L13.575 4.392L13.5735 4.3905Z" fill="#0B2852"/>
</svg>
