<svg width="114" height="60" viewBox="0 0 114 60" fill="none" xmlns="http://www.w3.org/2000/svg">
<path d="M21.6335 16.08V20.6H14.2368V44H8.66933V20.6H1.27258V16.08H21.6335ZM24.2641 32.84C24.2641 30.6 24.7015 28.6133 25.5764 26.88C26.4778 25.1467 27.6841 23.8133 29.1952 22.88C30.7329 21.9467 32.4429 21.48 34.3252 21.48C35.969 21.48 37.4006 21.8133 38.6201 22.48C39.8662 23.1467 40.8604 23.9867 41.6027 25V21.84H47.2097V44H41.6027V40.76C40.8869 41.8 39.8927 42.6667 38.6201 43.36C37.3741 44.0267 35.9292 44.36 34.2855 44.36C32.4297 44.36 30.7329 43.88 29.1952 42.92C27.6841 41.96 26.4778 40.6133 25.5764 38.88C24.7015 37.12 24.2641 35.1067 24.2641 32.84ZM41.6027 32.92C41.6027 31.56 41.3376 30.4 40.8073 29.44C40.2771 28.4533 39.5613 27.7067 38.6599 27.2C37.7585 26.6667 36.7908 26.4 35.7569 26.4C34.7229 26.4 33.7685 26.6533 32.8936 27.16C32.0187 27.6667 31.3029 28.4133 30.7462 29.4C30.2159 30.36 29.9508 31.5067 29.9508 32.84C29.9508 34.1733 30.2159 35.3467 30.7462 36.36C31.3029 37.3467 32.0187 38.1067 32.8936 38.64C33.795 39.1733 34.7494 39.44 35.7569 39.44C36.7908 39.44 37.7585 39.1867 38.6599 38.68C39.5613 38.1467 40.2771 37.4 40.8073 36.44C41.3376 35.4533 41.6027 34.28 41.6027 32.92ZM61.0779 44.36C59.2752 44.36 57.658 44.04 56.2263 43.4C54.7947 42.7333 53.6547 41.84 52.8063 40.72C51.9845 39.6 51.5338 38.36 51.4542 37H57.0614C57.1675 37.8533 57.5784 38.56 58.2942 39.12C59.0366 39.68 59.9512 39.96 61.0382 39.96C62.0987 39.96 62.9205 39.7467 63.5038 39.32C64.1135 38.8933 64.4184 38.3467 64.4184 37.68C64.4184 36.96 64.0472 36.4267 63.3049 36.08C62.5891 35.7067 61.4359 35.3067 59.8452 34.88C58.2014 34.48 56.8493 34.0667 55.7889 33.64C54.7549 33.2133 53.8535 32.56 53.0847 31.68C52.3424 30.8 51.9712 29.6133 51.9712 28.12C51.9712 26.8933 52.3159 25.7733 53.0052 24.76C53.721 23.7467 54.7284 22.9467 56.0275 22.36C57.3531 21.7733 58.904 21.48 60.6803 21.48C63.3049 21.48 65.3993 22.1467 66.9635 23.48C68.5277 24.7867 69.3893 26.56 69.5484 28.8H64.2196C64.14 27.92 63.7689 27.2267 63.1061 26.72C62.4698 26.1867 61.6082 25.92 60.5212 25.92C59.5138 25.92 58.7317 26.1067 58.1749 26.48C57.6447 26.8533 57.3796 27.3733 57.3796 28.04C57.3796 28.7867 57.7507 29.36 58.4931 29.76C59.2354 30.1333 60.3886 30.52 61.9528 30.92C63.5435 31.32 64.8559 31.7333 65.8898 32.16C66.9238 32.5867 67.8119 33.2533 68.5542 34.16C69.3231 35.04 69.7207 36.2133 69.7473 37.68C69.7473 38.96 69.3893 40.1067 68.6735 41.12C67.9842 42.1333 66.9768 42.9333 65.6512 43.52C64.3521 44.08 62.8277 44.36 61.0779 44.36ZM87.3611 44L79.8849 34.56V44H74.3174V14.4H79.8849V31.24L87.2816 21.84H94.5193L84.816 32.96L94.5988 44H87.3611Z" fill="#0B2852"/>
<path d="M102.774 20.4166L86.7938 12.9751L83.5689 19.9817L99.5493 27.4232L102.774 20.4166Z" fill="#0056D2"/>
<path d="M90.6103 25.7632C95.0232 27.8181 99.0252 28.5613 99.549 27.4232C100.073 26.2851 96.9201 23.6966 92.5073 21.6417C88.0944 19.5868 84.0924 18.8436 83.5685 19.9817C83.0447 21.1198 86.1974 23.7083 90.6103 25.7632Z" fill="#0056D2"/>
<path d="M99.7314 6.48746L82.0057 8.24301L92.1433 22.9735L110.074 21.3134L99.7314 6.48746Z" fill="#0056D2" stroke="white"/>
<path d="M108.64 20.6455C108.744 20.4179 108.646 20.148 108.419 20.0426C108.193 19.9372 107.925 20.0363 107.82 20.2639L105.164 26.0341C105.059 26.2617 105.158 26.5316 105.384 26.637C105.611 26.7424 105.879 26.6433 105.984 26.4157L108.64 20.6455Z" fill="#0056D2"/>
<path d="M104.626 28.2856C104.852 28.391 105.205 28.1074 105.415 27.6521C105.624 27.1969 105.611 26.7424 105.384 26.637C105.158 26.5317 104.805 26.8153 104.595 27.2705C104.386 27.7258 104.399 28.1803 104.626 28.2856Z" fill="#0056D2"/>
</svg>
