<svg width="362" height="258" viewBox="0 0 362 258" fill="none" xmlns="http://www.w3.org/2000/svg">
<g clip-path="url(#clip0_12_25)">
<rect x="0.299438" y="0.275879" width="361.234" height="257.069" rx="10" fill="white"/>
<path opacity="0.1" d="M115.629 9.97293C125.383 1.47251 140.689 -0.270073 154.619 0.406691C198.38 2.53506 237.881 23.227 272.048 46.6326C284.42 55.1036 296.598 64.235 304.626 75.9035C320.983 99.6523 316.123 132.559 293.396 152.123C285.662 158.783 276.288 163.893 266.664 168.408C249.552 176.454 231.088 182.911 211.67 184.755C197.819 186.062 183.799 185 170.032 183.172C131.565 178.056 93.8067 166.757 62.1602 147.444C48.2799 138.964 35.194 128.426 29.4723 114.708C23.7505 100.99 27.4126 83.6127 41.5867 75.4948C47.4486 72.1371 54.4589 70.6201 61.319 69.198C71.4205 67.1023 81.6822 65.036 90.7989 60.776C100.213 56.3754 111.359 47.8619 109.493 38.1224C107.497 27.6538 105.891 18.4733 115.629 9.97293Z" fill="#0056D2"/>
<path opacity="0.1" d="M284.196 234.041C304.377 234.041 320.736 233.013 320.736 231.746C320.736 230.478 304.377 229.45 284.196 229.45C264.015 229.45 247.656 230.478 247.656 231.746C247.656 233.013 264.015 234.041 284.196 234.041Z" fill="#0056D2"/>
<path opacity="0.1" d="M189.22 218.681C209.401 218.681 225.76 217.653 225.76 216.386C225.76 215.118 209.401 214.091 189.22 214.091C169.039 214.091 152.68 215.118 152.68 216.386C152.68 217.653 169.039 218.681 189.22 218.681Z" fill="#0056D2"/>
<path opacity="0.1" d="M55.0698 255.089C75.2505 255.089 91.6101 254.061 91.6101 252.794C91.6101 251.526 75.2505 250.499 55.0698 250.499C34.8892 250.499 18.5295 251.526 18.5295 252.794C18.5295 254.061 34.8892 255.089 55.0698 255.089Z" fill="#0056D2"/>
<path opacity="0.1" d="M124.505 257.345C132.809 257.345 139.54 256.922 139.54 256.4C139.54 255.878 132.809 255.455 124.505 255.455C116.201 255.455 109.47 255.878 109.47 256.4C109.47 256.922 116.201 257.345 124.505 257.345Z" fill="#0056D2"/>
<path opacity="0.1" d="M349.812 232.808C356.284 232.808 361.53 232.479 361.53 232.072C361.53 231.666 356.284 231.337 349.812 231.337C343.341 231.337 338.095 231.666 338.095 232.072C338.095 232.479 343.341 232.808 349.812 232.808Z" fill="#0056D2"/>
<path opacity="0.1" d="M242.271 217.367C247.758 217.367 252.206 217.087 252.206 216.742C252.206 216.397 247.758 216.118 242.271 216.118C236.785 216.118 232.337 216.397 232.337 216.742C232.337 217.087 236.785 217.367 242.271 217.367Z" fill="#0056D2"/>
<path d="M351.498 214.418C351.498 214.418 353.067 216.428 350.777 219.462C348.487 222.496 346.591 225.056 347.356 226.946C347.356 226.946 350.817 221.313 353.631 221.234C356.446 221.156 354.599 217.808 351.498 214.418Z" fill="#0056D2"/>
<path opacity="0.1" d="M351.498 214.418C351.639 214.612 351.752 214.824 351.832 215.049C354.579 218.21 356.042 221.159 353.401 221.234C350.941 221.303 347.99 225.612 347.282 226.701C347.305 226.784 347.333 226.866 347.366 226.946C347.366 226.946 350.827 221.313 353.641 221.234C356.456 221.156 354.599 217.808 351.498 214.418Z" fill="black"/>
<path d="M354.419 216.978C354.419 217.687 354.339 218.259 354.239 218.259C354.139 218.259 354.059 217.687 354.059 216.978C354.059 216.268 354.159 216.605 354.259 216.605C354.359 216.605 354.419 216.272 354.419 216.978Z" fill="#FFD037"/>
<path d="M355.421 217.824C354.786 218.151 354.236 218.367 354.186 218.282C354.136 218.197 354.613 217.851 355.247 217.511C355.881 217.171 355.631 217.419 355.678 217.511C355.724 217.602 356.055 217.484 355.421 217.824Z" fill="#FFD037"/>
<path d="M343.216 214.418C343.216 214.418 341.647 216.428 343.94 219.462C346.234 222.496 348.123 225.056 347.359 226.946C347.359 226.946 343.9 221.313 341.083 221.234C338.265 221.156 340.118 217.808 343.216 214.418Z" fill="#0056D2"/>
<path opacity="0.1" d="M343.216 214.418C343.074 214.611 342.962 214.824 342.882 215.049C340.135 218.21 338.669 221.159 341.31 221.234C343.77 221.303 346.725 225.612 347.429 226.701C347.406 226.784 347.378 226.866 347.345 226.946C347.345 226.946 343.887 221.313 341.07 221.234C338.252 221.156 340.118 217.808 343.216 214.418Z" fill="black"/>
<path d="M340.298 216.978C340.298 217.687 340.379 218.259 340.479 218.259C340.579 218.259 340.662 217.687 340.662 216.978C340.662 216.268 340.559 216.605 340.459 216.605C340.359 216.605 340.298 216.272 340.298 216.978Z" fill="#FFD037"/>
<path d="M339.297 217.824C339.931 218.151 340.485 218.367 340.532 218.282C340.579 218.197 340.105 217.851 339.471 217.511C338.836 217.171 339.087 217.419 339.04 217.511C338.993 217.602 338.663 217.484 339.297 217.824Z" fill="#FFD037"/>
<path d="M340.816 226.685C340.816 226.685 345.202 226.554 346.524 225.632C347.846 224.71 353.271 223.608 353.601 225.086C353.932 226.564 360.191 232.439 355.24 232.478C350.29 232.517 343.733 231.723 342.412 230.938C341.09 230.153 340.816 226.685 340.816 226.685Z" fill="#A8A8A8"/>
<path opacity="0.2" d="M355.31 231.965C350.36 232.004 343.804 231.209 342.485 230.421C341.484 229.823 341.08 227.672 340.946 226.678H340.799C340.799 226.678 341.076 230.144 342.395 230.928C343.713 231.713 350.27 232.507 355.224 232.468C356.652 232.468 357.146 231.961 357.12 231.222C356.919 231.677 356.375 231.955 355.31 231.965Z" fill="black"/>
<path d="M244.034 201.647C244.034 201.647 245.369 203.364 243.413 205.96C241.457 208.556 239.834 210.746 240.489 212.365C240.489 212.365 243.446 207.545 245.857 207.46C248.267 207.375 246.678 204.544 244.034 201.647Z" fill="#0056D2"/>
<path opacity="0.1" d="M244.034 201.647C244.15 201.814 244.242 201.995 244.308 202.187C246.644 204.891 247.91 207.418 245.643 207.477C243.54 207.536 241.013 211.224 240.409 212.155C240.428 212.226 240.453 212.296 240.482 212.365C240.482 212.365 243.44 207.545 245.85 207.46C248.26 207.375 246.678 204.544 244.034 201.647Z" fill="black"/>
<path d="M246.527 203.838C246.527 204.443 246.457 204.933 246.374 204.933C246.29 204.933 246.217 204.443 246.217 203.838C246.217 203.233 246.304 203.511 246.391 203.511C246.477 203.511 246.527 203.233 246.527 203.838Z" fill="#FFD037"/>
<path d="M247.385 204.561C246.841 204.848 246.384 205.025 246.327 204.95C246.27 204.874 246.694 204.583 247.235 204.296C247.776 204.008 247.569 204.217 247.606 204.296C247.642 204.374 247.926 204.27 247.385 204.561Z" fill="#FFD037"/>
<path d="M236.943 201.647C236.943 201.647 235.608 203.364 237.561 205.96C239.514 208.556 241.143 210.746 240.489 212.365C240.489 212.365 237.528 207.545 235.117 207.46C232.707 207.375 234.293 204.544 236.943 201.647Z" fill="#0056D2"/>
<path opacity="0.1" d="M236.943 201.647C236.825 201.813 236.732 201.995 236.666 202.187C234.33 204.891 233.064 207.418 235.331 207.477C237.438 207.536 239.961 211.224 240.565 212.155C240.545 212.224 240.522 212.296 240.495 212.365C240.495 212.365 237.534 207.545 235.124 207.46C232.714 207.375 234.293 204.544 236.943 201.647Z" fill="black"/>
<path d="M234.446 203.838C234.446 204.443 234.517 204.933 234.603 204.933C234.69 204.933 234.757 204.443 234.757 203.838C234.757 203.233 234.67 203.511 234.583 203.511C234.496 203.511 234.446 203.233 234.446 203.838Z" fill="#FFD037"/>
<path d="M233.592 204.561C234.133 204.848 234.593 205.025 234.647 204.95C234.7 204.874 234.283 204.583 233.739 204.296C233.195 204.008 233.405 204.217 233.368 204.296C233.331 204.374 233.048 204.27 233.592 204.561Z" fill="#FFD037"/>
<path d="M234.874 212.142C234.874 212.142 238.626 212.028 239.758 211.24C240.889 210.452 245.533 209.507 245.813 210.772C246.094 212.038 251.451 217.066 247.215 217.099C242.979 217.131 237.371 216.445 236.242 215.791C235.114 215.137 234.874 212.142 234.874 212.142Z" fill="#A8A8A8"/>
<path opacity="0.2" d="M247.292 216.657C243.052 216.693 237.444 216.003 236.316 215.35C235.458 214.836 235.114 212.996 235.001 212.146H234.874C234.874 212.146 235.111 215.108 236.242 215.781C237.374 216.455 242.979 217.135 247.215 217.089C248.437 217.089 248.861 216.654 248.838 216.023C248.681 216.428 248.2 216.651 247.292 216.657Z" fill="black"/>
<g opacity="0.8">
<path d="M49.6318 203.557C54.5684 203.559 59.3936 204.994 63.4973 207.681C67.601 210.369 70.7991 214.187 72.6871 218.655C74.5752 223.122 75.0685 228.037 74.1047 232.779C73.1409 237.52 70.7633 241.876 67.2724 245.294C63.7815 248.713 59.334 251.041 54.4923 251.984C49.6506 252.927 44.6321 252.443 40.0711 250.594C35.5101 248.744 31.6115 245.611 28.8681 241.592C26.1248 237.572 24.6598 232.847 24.6585 228.012C24.6563 224.799 25.3008 221.618 26.5551 218.65C27.8094 215.682 29.6489 212.985 31.9683 210.714C34.2878 208.442 37.0417 206.641 40.0726 205.413C43.1035 204.185 46.3518 203.554 49.6318 203.557Z" fill="#E74D89"/>
<path d="M49.6319 254.193C44.3444 254.187 39.1773 252.646 34.7837 249.765C30.3901 246.884 26.9671 242.793 24.9473 238.007C22.9276 233.221 22.4017 227.956 23.4361 222.878C24.4706 217.8 27.0189 213.136 30.7591 209.475C34.4993 205.815 39.2635 203.323 44.4496 202.313C49.6357 201.304 55.0108 201.823 59.8958 203.805C64.7808 205.786 68.9564 209.142 71.8948 213.447C74.8331 217.752 76.4025 222.814 76.4045 227.992C76.3983 234.943 73.575 241.606 68.5549 246.519C63.5348 251.432 56.7287 254.192 49.6319 254.193ZM72.2016 231.579C67.5797 230.259 62.7225 229.924 57.9574 230.598C59.9092 235.78 61.398 241.118 62.4073 246.553C65.0033 244.85 67.2129 242.642 68.8982 240.066C70.5834 237.489 71.708 234.6 72.2016 231.579ZM58.565 248.619C57.4903 242.828 55.8584 237.15 53.6912 231.66C53.645 231.682 53.5953 231.695 53.5443 231.7C40.6387 236.104 36.0152 244.852 35.5979 245.67C39.6045 248.727 44.5394 250.385 49.6185 250.381C52.6883 250.402 55.7295 249.802 58.5516 248.619H58.565ZM32.6503 242.986C33.171 242.126 39.4469 231.968 51.2442 228.218C51.5347 228.116 51.8484 228.035 52.1422 227.953C51.578 226.681 50.9505 225.413 50.2795 224.164C38.8627 227.502 27.7764 227.358 26.7716 227.338C26.7716 227.564 26.7516 227.789 26.7516 228.012C26.7583 233.546 28.86 238.881 32.6503 242.986ZM27.2523 223.444C34.3863 223.414 41.4875 222.499 48.3867 220.721C45.8005 216.267 42.9723 211.952 39.9143 207.794C36.7138 209.269 33.9053 211.449 31.7086 214.164C29.512 216.88 27.9867 220.056 27.2523 223.444ZM44.2773 206.28C47.4135 210.451 50.2649 214.819 52.8132 219.358C60.9485 216.37 64.3768 211.861 64.7975 211.289C60.6183 207.654 55.2212 205.649 49.6319 205.656C47.8281 205.669 46.0317 205.882 44.2773 206.293V206.28ZM67.3278 213.878C66.8471 214.516 63.0182 219.328 54.5691 222.706C55.0899 223.771 55.614 224.857 56.0947 225.942C56.2616 226.331 56.4285 226.72 56.5988 227.09C64.2099 226.145 71.761 227.662 72.5154 227.806C72.4591 222.719 70.6287 217.803 67.3278 213.875V213.878Z" fill="#B2215A"/>
</g>
<path d="M111.539 153.381C110.935 152.639 110.247 147.536 110.247 147.536L107.577 134.53L106.195 127.037C106.195 127.037 105.861 117.572 99.8121 112.877L99.3415 112.514C99.3415 112.429 99.3415 112.347 99.3415 112.262C99.2864 111.348 99.0824 110.449 98.7372 109.598C98.5911 109.322 98.5166 109.016 98.5202 108.705C98.5359 108.583 98.5768 108.465 98.6404 108.359C98.9238 107.978 99.2973 107.671 99.7287 107.463C100.827 106.809 101.762 105.779 102.015 104.56C102.014 104.532 102.014 104.505 102.015 104.478C102.015 104.426 102.015 104.37 102.039 104.314C102.062 104.259 102.039 104.256 102.039 104.223C102.042 104.166 102.042 104.11 102.039 104.053V103.981C102.039 103.916 102.039 103.847 102.039 103.778C102.037 103.764 102.037 103.75 102.039 103.736C102.039 103.661 102.022 103.582 102.009 103.507V103.491C101.948 103.048 101.775 102.628 101.504 102.269C101.233 101.91 100.874 101.624 100.46 101.437C100.61 101.402 100.75 101.334 100.869 101.237C100.988 101.14 101.082 101.017 101.144 100.878C101.185 100.798 101.218 100.714 101.241 100.627C101.264 100.545 101.278 100.462 101.284 100.378C101.284 100.378 101.284 100.352 101.284 100.339C101.289 100.267 101.289 100.195 101.284 100.123C101.284 100.1 101.284 100.077 101.284 100.054C101.274 99.9825 101.259 99.9115 101.238 99.8419C101.239 99.8234 101.239 99.8048 101.238 99.7864L101.218 99.7406C100.994 99.1129 100.463 98.629 100.006 98.1255C97.3686 95.2321 96.8578 91.1617 96.1401 87.3888C95.7428 85.2964 94.9917 82.913 92.922 82.1186C92.337 81.937 91.7418 81.7886 91.1394 81.6739C89.3034 81.1966 87.8012 79.9411 86.0052 79.3265C84.7923 78.9187 83.495 78.812 82.2297 79.0159C81.2649 79.1728 80.4571 79.6371 79.5257 79.8561C77.5228 80.3367 75.0925 79.8006 73.5169 81.3862C72.4119 82.488 72.3251 84.1685 71.781 85.6037C70.7528 88.2683 68.0822 90.207 67.3912 92.9762C66.9472 94.7613 67.4079 96.5725 67.892 98.3674C68.2565 99.5732 68.5024 100.81 68.6264 102.062C68.6447 102.378 68.6447 102.694 68.6264 103.01C68.555 103.932 68.3423 104.838 67.9954 105.697C65.7388 106.515 63.4054 107.479 63.2318 108.022C62.898 109.091 57.45 112.138 57.45 112.138C57.45 112.138 55.3803 113.868 55.3803 114.525C55.3803 115.182 54.6926 117.242 54.2586 117.242C53.8247 117.242 52.9667 125.556 52.9667 125.556V134.2C52.9667 134.2 49.7787 144.407 49.0443 153.463C49.0443 153.463 47.7557 159.247 49.8588 162.565C50.1339 163.015 50.485 163.417 50.897 163.752L51.9719 166.502C52.3501 165.883 52.8307 165.331 53.394 164.867C53.4474 165.21 53.5075 165.612 53.581 166.06C53.6711 166.623 53.7779 167.26 53.9148 167.943C53.2471 168.967 51.6348 171.108 49.6986 171.909C47.9093 172.648 50.2394 174.603 51.8484 175.744C51.4211 177.827 50.8036 180.383 50.3028 180.717C49.4382 181.292 46.6808 188.537 46.6808 188.537C46.6808 188.537 41.2495 200.961 49.0543 202.367C56.8591 203.773 60.8383 200.474 60.8383 200.474H62.7077C62.7077 200.474 64.981 199.218 65.0445 196.622C66.3163 195.596 68.2692 193.968 68.6664 193.311C69.0637 192.653 67.9687 190.515 67.2744 189.348L67.458 189.021C67.458 189.021 74.8789 179.72 75.8269 180.707C76.775 181.694 77.3792 183.257 76.9486 184.248L77.3559 189.946V198.836C77.3559 198.836 76.291 202.87 77.3559 203.282C78.4207 203.694 77.3559 205.244 77.3559 205.244C77.3559 205.244 77.7531 207.055 77.8265 207.63C77.8647 208.371 77.8647 209.113 77.8265 209.854L77.4694 218.746L76.7783 231.916C76.7783 231.916 76.0039 232.988 76.6081 233.727C77.2123 234.466 76.9419 236.198 76.7783 236.525C76.6148 236.852 76.5213 239.572 76.5213 239.572C76.5213 239.572 74.0176 242.123 76.0039 242.783L76.0806 242.806C75.2594 243.551 75.2494 245.228 75.3129 245.748C75.3763 246.268 74.7854 248.364 74.3414 249.551C74.2527 249.852 74.1152 250.138 73.9342 250.397C73.6304 250.607 73.9342 252.912 73.9342 252.912C73.9342 252.912 83.6351 253.693 84.4563 252.912C84.7901 252.607 84.7066 251.869 84.473 251.015C84.1004 249.777 83.6039 248.578 82.9908 247.435C82.4266 246.409 82.6904 245.091 82.6904 245.091V244.11C83.3413 244.212 83.7653 244.271 83.7653 244.271C83.7653 244.271 84.9737 243.29 84.4563 242.378C83.9388 241.465 85.4043 236.372 85.4043 236.372C85.4043 236.372 87.0434 230.608 87.0434 230.032C87.0434 229.457 89.1999 221.967 89.1999 221.967C89.1999 221.967 92.3913 208.713 90.839 202.455C90.839 202.455 92.2177 200.892 92.0441 200.493C91.8705 200.095 91.4699 198.352 92.0608 197.613C92.6516 196.874 95.152 187.651 95.843 186.088C96.1601 185.366 96.9546 183.372 97.7157 181.426C101.151 180.923 105.243 179.994 105.243 179.994C105.243 179.994 104.633 177.447 104.179 174.845L104.552 173.057L104.686 172.439C104.994 172.735 105.269 173.064 105.504 173.42L106.192 170.127C106.192 170.127 106.268 170.013 106.398 169.8C107.203 168.568 110.134 164.138 111.539 162.794C113.178 161.202 112.147 154.12 111.539 153.381Z" fill="url(#paint0_linear_12_25)"/>
<path d="M90.612 98.302H81.098V108.764H90.612V98.302Z" fill="#925978"/>
<path opacity="0.1" d="M90.612 98.302H81.098V108.764H90.612V98.302Z" fill="black"/>
<path d="M67.1576 188.455C67.1576 188.455 69.5778 192.215 68.9936 193.196C68.4094 194.177 64.4102 197.365 64.4102 197.365L63.2285 189.518L67.1576 188.455Z" fill="#FF6484"/>
<path d="M59.6465 200.552L61.4125 200.307H63.2218C63.2218 200.307 65.6253 198.953 65.4885 196.139C65.3516 193.324 65.4885 190.581 65.4885 190.581L59.6465 200.552Z" fill="#575988"/>
<path opacity="0.1" d="M59.6465 200.552L61.4125 200.307H63.2218C63.2218 200.307 65.6253 198.953 65.4885 196.139C65.3516 193.324 65.4885 190.581 65.4885 190.581L59.6465 200.552Z" fill="black"/>
<path d="M63.2218 162.219L53.2071 173.008C53.2071 173.008 52.0387 180.119 51.2042 180.691C50.3696 181.263 47.7191 188.455 47.7191 188.455C47.7191 188.455 42.468 200.797 50.0158 202.187C57.5635 203.576 61.4058 200.307 61.4058 200.307L67.8152 188.946C67.8152 188.946 74.9958 179.71 75.9138 180.691C76.8318 181.672 77.416 183.224 76.9987 184.205L77.3893 189.845V198.672C77.3893 198.672 76.3611 202.677 77.3893 203.086C78.4175 203.495 77.3893 205.048 77.3893 205.048C77.3893 205.048 77.7765 206.846 77.8466 207.418C77.9167 207.99 77.8466 209.625 77.8466 209.625L77.5128 218.452L76.8452 231.53C76.8452 231.53 76.0941 232.592 76.6782 233.328C77.2624 234.063 77.0121 235.78 76.8452 236.107C76.6782 236.434 76.5948 239.131 76.5948 239.131C76.5948 239.131 74.1746 241.665 76.0941 242.319C78.0135 242.973 83.6051 243.79 83.6051 243.79C83.6051 243.79 84.7735 242.809 84.2727 241.91C83.772 241.011 85.1907 235.943 85.1907 235.943C85.1907 235.943 86.7764 230.222 86.7764 229.65C86.7764 229.078 88.8628 221.64 88.8628 221.64C88.8628 221.64 91.9507 208.481 90.4485 202.269C90.4485 202.269 91.7837 200.716 91.6168 200.307C91.4499 199.898 91.0594 198.182 91.6168 197.446C92.1743 196.711 94.6212 187.556 95.2889 186.003C95.9565 184.45 98.794 176.931 98.794 176.931V163.036L63.2218 162.219Z" fill="#575988"/>
<path d="M93.119 112.933L87.3572 123.594L85.8383 126.399L85.608 126.828L70.7528 127.4C70.7528 127.4 70.3289 126.481 69.728 125.056C68.6898 122.587 67.1208 118.592 66.3297 115.221C66.1339 114.414 65.989 113.597 65.8957 112.772C65.6754 110.732 66.0092 109.277 67.3445 109.153C67.6819 109.123 68.022 109.158 68.346 109.255C69.2743 109.523 70.2465 109.615 71.2102 109.526C74.7354 109.107 75.7669 105.462 75.9405 102.036C75.9405 101.794 75.9638 101.552 75.9672 101.313C75.9672 100.571 75.9672 99.8518 75.9171 99.1914C75.8502 98.0712 75.7187 96.9557 75.5232 95.8501C76.4054 95.427 77.3293 95.0929 78.2806 94.8529C81.098 94.1467 85.0672 94.1663 85.1206 99.8551C85.1147 101.116 85.2422 102.373 85.5012 103.608C85.6514 104.312 85.8926 104.994 86.2189 105.639C87.197 107.479 88.5556 107.679 89.1932 107.656C89.311 107.656 89.4285 107.644 89.5438 107.62L93.119 112.933Z" fill="#FFC5CB"/>
<path opacity="0.1" d="M78.2906 119.105C78.4962 119.684 78.6011 120.293 78.6011 120.907C78.6641 121.552 78.6484 122.203 78.5543 122.845C78.4592 123.495 78.1301 124.09 77.6263 124.523" fill="black"/>
<path opacity="0.1" d="M82.4934 104.439C87.4252 104.439 91.4232 100.523 91.4232 95.693C91.4232 90.8629 87.4252 86.9474 82.4934 86.9474C77.5617 86.9474 73.5637 90.8629 73.5637 95.693C73.5637 100.523 77.5617 104.439 82.4934 104.439Z" fill="black"/>
<path d="M91.4199 95.3662C91.4206 97.1237 90.8804 98.8407 89.8698 100.293C88.8591 101.745 87.425 102.866 85.7545 103.508C84.0839 104.15 82.2546 104.284 80.5051 103.892C78.7556 103.501 77.1672 102.602 75.9472 101.313C75.8693 101.235 75.7957 101.154 75.7268 101.068C74.787 99.9994 74.1251 98.724 73.7976 97.3505C73.4701 95.9771 73.4867 94.5465 73.8461 93.1808C74.2054 91.815 74.8968 90.5547 75.8613 89.5073C76.8257 88.46 78.0346 87.6567 79.3847 87.1661C80.7348 86.6754 82.1861 86.512 83.6147 86.6897C85.0433 86.8673 86.4068 87.3809 87.5888 88.1865C88.7708 88.9921 89.7363 90.0658 90.4028 91.316C91.0694 92.5662 91.4172 93.9558 91.4165 95.3662H91.4199Z" fill="#FFC5CB"/>
<path opacity="0.1" d="M68.159 117.183C68.159 117.183 71.3304 125.274 78.0068 123.967C78.0068 123.967 84.7467 124.483 88.6057 119.635C92.4647 114.786 92.6951 147.425 92.6951 147.425L91.1928 169.084C91.1928 169.084 80.4337 175.378 75.7602 174.561C71.0867 173.743 68.8334 171.291 68.8334 171.291C68.8334 171.291 63.9095 166.796 62.5742 166.224C61.2389 165.651 63.1584 137.78 63.1584 137.78L64.744 127.318L68.159 117.183Z" fill="black"/>
<path d="M68.159 116.529C68.159 116.529 71.3304 124.621 78.0068 123.313C78.0068 123.313 84.7467 123.829 88.6057 118.981C92.4647 114.132 92.6951 146.771 92.6951 146.771L91.1928 168.431C91.1928 168.431 80.4337 174.724 75.7602 173.907C71.0867 173.089 68.8334 170.637 68.8334 170.637C68.8334 170.637 63.9095 166.142 62.5742 165.57C61.2389 164.998 63.1584 137.126 63.1584 137.126L64.744 126.664L68.159 116.529Z" fill="#E8F4FF"/>
<path opacity="0.1" d="M67.8252 162.219C67.8252 162.219 75.0024 170.065 74.5851 170.883C74.1678 171.7 67.6583 164.589 67.8252 162.219Z" fill="black"/>
<path opacity="0.1" d="M66.5901 142.707C66.5901 142.707 68.8835 145.846 70.3189 145.519L66.5901 142.707Z" fill="black"/>
<path opacity="0.1" d="M71.5474 109.255C71.5474 109.255 71.5474 109.349 71.524 109.526C71.4472 110.53 71.1601 114.168 70.7729 118.222C70.5559 120.511 70.3089 122.911 70.0552 125.056C69.6412 128.544 69.2006 131.336 68.8267 131.732C67.7418 132.876 68.159 143.665 68.159 143.665V157.315C68.159 157.315 67.2444 161.647 66.4899 162.627C65.7355 163.608 63.8928 167.286 62.4173 167.777C61.8982 168.055 61.4318 168.419 61.0386 168.852C59.7033 170.16 57.8139 172.341 56.3651 174.06C55.17 175.496 54.2854 176.604 54.2854 176.604C54.2854 176.604 48.4434 173.008 50.9471 171.945C52.8199 171.151 54.3688 169.026 55.0264 168.022C55.2501 167.695 55.3603 167.463 55.3603 167.463C55.4785 166.701 55.6559 165.949 55.891 165.213C56.103 164.52 56.4143 163.86 56.8157 163.252C57.1212 162.746 57.6177 162.379 58.1978 162.228C60.3676 161.82 61.4525 141.631 61.4525 141.631L54.7761 127.364L54.1084 125.938C54.1084 125.938 54.943 117.683 55.3603 117.683C55.7775 117.683 56.4452 115.64 56.4452 114.986C56.4452 114.332 58.4481 112.615 58.4481 112.615C58.4481 112.615 63.7426 109.581 64.0764 108.519C64.2533 107.96 66.6802 106.95 68.9402 106.119C70.9698 105.374 72.8626 104.772 72.8626 104.772C73.9676 106.42 71.5474 109.255 71.5474 109.255Z" fill="black"/>
<path d="M71.2135 109.255C71.2135 109.255 71.2135 109.349 71.1901 109.526C71.1133 110.53 70.8263 114.168 70.439 118.222C70.222 120.511 69.975 122.911 69.7213 125.056C69.3074 128.544 68.8667 131.336 68.4928 131.732C67.4079 132.876 67.8252 143.665 67.8252 143.665V157.315C67.8252 157.315 66.9105 161.647 66.1561 162.627C65.4016 163.608 63.5589 167.286 62.0834 167.777C61.5643 168.055 61.098 168.419 60.7047 168.852C59.3694 170.16 57.48 172.341 56.0312 174.06C54.8361 175.496 53.9515 176.604 53.9515 176.604C53.9515 176.604 48.1096 173.008 50.6133 171.945C52.486 171.151 54.0349 169.026 54.6926 168.022C54.9162 167.695 55.0264 167.463 55.0264 167.463C55.1446 166.701 55.3221 165.949 55.5572 165.213C55.7691 164.52 56.0805 163.86 56.4819 163.252C56.7874 162.746 57.2838 162.379 57.8639 162.228C60.0337 161.82 61.1187 141.631 61.1187 141.631L54.4422 127.364L53.7746 125.938C53.7746 125.938 54.6091 117.683 55.0264 117.683C55.4437 117.683 56.1113 115.64 56.1113 114.986C56.1113 114.332 58.1143 112.615 58.1143 112.615C58.1143 112.615 63.4087 109.581 63.7425 108.519C63.9195 107.96 66.3463 106.95 68.6063 106.119C70.636 105.374 72.5288 104.772 72.5288 104.772C73.6337 106.42 71.2135 109.255 71.2135 109.255Z" fill="#FF6484"/>
<path opacity="0.1" d="M104.409 128.034L97.2017 136.309C97.2017 136.309 103.461 168.104 102.71 169.575C102.652 169.697 102.615 169.827 102.6 169.961C102.522 170.722 102.537 171.491 102.643 172.249C102.73 173.05 102.863 173.939 103.014 174.825C103.454 177.408 104.045 179.939 104.045 179.939C104.045 179.939 95.616 181.9 93.0289 181.655C90.4417 181.41 91.944 177.323 92.3612 175.443C92.7785 173.563 89.5237 170.932 89.5237 170.932L84.9337 152.476C84.9337 152.476 84.5998 148.389 83.5984 146.427C82.5969 144.466 83.5149 142.341 83.1811 139.562C82.9441 137.58 84.3995 130.499 85.4978 126.383C85.9151 124.817 86.2823 123.682 86.4993 123.417C86.5087 123.403 86.5199 123.39 86.5327 123.378C87.2003 122.806 86.5327 119.455 86.5327 119.455C86.5327 119.455 88.1183 110.628 87.9514 109.892C87.8579 109.474 88.3821 108.447 88.8527 107.639C89.2099 107.028 89.5371 106.541 89.5371 106.541C89.5371 106.541 92.7652 108.545 98.2999 112.926L98.8007 113.325C104.643 117.984 104.976 127.383 104.976 127.383L104.409 128.034Z" fill="black"/>
<path d="M104.743 128.034L97.5355 136.309C97.5355 136.309 103.795 168.104 103.044 169.575C102.986 169.697 102.949 169.827 102.933 169.961C102.856 170.722 102.871 171.491 102.977 172.249C103.064 173.05 103.197 173.939 103.347 174.825C103.788 177.408 104.379 179.939 104.379 179.939C104.379 179.939 95.9498 181.9 93.3627 181.655C90.7756 181.41 92.2778 177.323 92.6951 175.443C93.1123 173.563 89.8576 170.932 89.8576 170.932L85.2675 152.476C85.2675 152.476 84.9337 148.389 83.9322 146.427C82.9307 144.466 83.8487 142.341 83.5149 139.562C83.2779 137.58 84.7334 130.499 85.8317 126.383C86.2489 124.817 86.6161 123.682 86.8331 123.417C86.8425 123.403 86.8538 123.39 86.8665 123.378C87.5341 122.806 86.8665 119.455 86.8665 119.455C86.8665 119.455 88.4522 110.628 88.2852 109.892C88.1918 109.474 88.7159 108.447 89.1866 107.639C89.5438 107.028 89.8709 106.541 89.8709 106.541C89.8709 106.541 93.099 108.545 98.6338 112.926L99.1345 113.325C104.976 117.984 105.31 127.383 105.31 127.383L104.743 128.034Z" fill="#FF6484"/>
<path opacity="0.1" d="M89.5237 132.467C89.4403 133.121 91.5267 167.858 93.6965 169.902L89.5237 132.467Z" fill="black"/>
<path d="M61.3858 180.772C59.049 182.211 57.2664 178.425 56.0446 174.06C55.4738 172.01 55.0431 169.833 54.7093 168.009C54.5858 167.329 54.4823 166.701 54.3955 166.139C54.1652 164.68 54.0617 163.726 54.0617 163.726L56.5186 163.242L59.236 162.709L59.5698 165.714L59.7267 167.077C59.7267 167.077 60.154 167.77 60.7282 168.852C62.3405 172.017 65.0779 178.52 61.3858 180.772Z" fill="#FFC5CB"/>
<path d="M104.295 170.245L103.711 173.066L103.347 174.842L103.327 174.93C103.327 174.93 96.0333 184.614 93.6965 180.609C91.9106 177.549 96.267 172.53 98.4168 170.337C99.0844 169.656 99.5384 169.248 99.5384 169.248L102.933 169.961L104.295 170.245Z" fill="#FFC5CB"/>
<path d="M84.266 252.372C83.4715 253.147 74.0844 252.372 74.0844 252.372C74.0844 252.372 73.7907 250.083 74.0844 249.878C74.2615 249.619 74.3945 249.334 74.4783 249.034C74.909 247.841 75.4798 245.765 75.4197 245.261C75.3363 244.568 75.3797 241.789 77.2958 241.992C77.2958 241.992 79.7995 237.006 82.5568 243.136V244.607C82.4192 245.394 82.5202 246.204 82.8473 246.935C83.4415 248.072 83.9222 249.262 84.2827 250.489C84.5097 251.336 84.5765 252.065 84.266 252.372Z" fill="#FF6484"/>
<path d="M84.266 252.372C83.4715 253.147 74.0844 252.372 74.0844 252.372C74.0844 252.372 73.7907 250.083 74.0844 249.877C74.2615 249.619 74.3945 249.334 74.4783 249.034C75.7202 248.514 77.4093 248.011 78.591 248.449C80.0832 249.005 82.8373 249.979 84.266 250.489C84.5097 251.336 84.5765 252.065 84.266 252.372Z" fill="#E8F4FF"/>
<path opacity="0.1" d="M75.9204 102.036C76.1574 102.971 76.4846 103.916 76.4979 104.87C76.518 106.178 75.9405 107.44 75.3262 108.617C74.6252 109.964 73.834 111.409 74.0677 112.903C74.1942 113.469 74.3604 114.027 74.5651 114.57C75.0835 116.324 74.9144 118.203 74.0911 119.841C73.5436 120.923 72.422 121.969 71.2235 121.619C71.1334 120.465 70.9865 119.206 70.429 118.222C70.2086 117.823 69.9049 117.473 69.5377 117.196C68.6698 116.542 67.4714 116.405 66.6835 115.666C66.5419 115.533 66.4175 115.384 66.313 115.221C65.9292 114.587 65.7652 113.848 65.8456 113.116C65.8456 113.004 65.869 112.893 65.889 112.789C66.0499 111.993 66.3218 111.223 66.6969 110.5C66.9039 110.062 67.1208 109.624 67.3378 109.192C67.8398 108.215 68.2618 107.201 68.5997 106.158C70.6293 105.413 72.5221 104.811 72.5221 104.811C73.6337 106.446 71.2135 109.294 71.2135 109.294C71.2135 109.294 71.2135 109.389 71.1902 109.565C74.7153 109.107 75.7602 105.462 75.9204 102.036Z" fill="black"/>
<path opacity="0.1" d="M80.9211 89.7362C79.9463 90.0403 79.015 90.6484 78.5843 91.5638C78.1236 92.5773 78.3607 93.7478 78.2505 94.8528C78.2254 95.0951 78.1785 95.3347 78.1103 95.5688C77.6964 96.9256 76.3978 97.8836 75.887 99.1913C75.8503 99.2894 75.8169 99.3875 75.7869 99.4921C75.6521 100.007 75.6282 100.544 75.7168 101.068C74.5235 99.7074 73.7865 98.0203 73.6059 96.2354C73.4252 94.4506 73.8097 92.6546 74.7071 91.0911C75.6045 89.5277 76.9713 88.2725 78.6221 87.496C80.2729 86.7194 82.1277 86.4591 83.9347 86.7504C85.7417 87.0417 87.4135 87.8705 88.723 89.1243C90.0326 90.3781 90.9165 91.9961 91.2549 93.7588C91.5933 95.5214 91.3697 97.3434 90.6145 98.9774C89.8593 100.611 88.609 101.978 87.0334 102.892C87.4106 101.79 87.8079 100.692 88.115 99.5673C88.836 96.9224 88.9596 93.8655 87.2604 91.6913C86.5227 90.7842 85.5252 90.1136 84.3957 89.7652C83.2663 89.4169 82.0564 89.4068 80.9211 89.7362Z" fill="black"/>
<path opacity="0.1" d="M98.36 116.209C98.0663 117.251 97.3185 118.396 96.2169 118.347C95.6928 118.324 95.2154 118.02 94.6913 117.971C93.9469 117.905 93.2425 118.376 92.7952 118.952C92.3894 119.569 92.0366 120.219 91.7403 120.894C90.9191 122.456 89.3101 123.862 87.5342 123.617L87.3506 123.584C87.1685 123.549 86.9907 123.495 86.8198 123.424C85.2274 122.77 84.3662 120.763 84.4229 118.988C84.4897 116.964 85.3543 115.048 85.638 113.04C85.9018 111.19 85.6614 109.304 85.865 107.447C85.9343 106.834 86.0458 106.227 86.1989 105.629C87.177 107.469 88.5356 107.669 89.1732 107.646C89.5304 107.035 89.8576 106.547 89.8576 106.547C89.8576 106.547 93.0856 108.552 98.6204 112.933C98.746 114.031 98.6576 115.143 98.36 116.209Z" fill="black"/>
<path d="M85.7749 80.0197C87.5075 80.631 88.9663 81.8767 90.7422 82.3507C91.3258 82.4632 91.9021 82.6095 92.4681 82.7888C94.471 83.5768 95.1988 85.9438 95.5826 88.0199C96.2737 91.7666 96.7711 95.8076 99.3215 98.6814C99.7755 99.1914 100.303 99.6818 100.513 100.316C100.724 100.95 100.44 101.827 99.7621 101.967C100.924 102.448 101.495 103.854 101.251 105.066C101.007 106.279 100.103 107.28 99.0377 107.947C98.5403 108.274 97.9394 108.601 97.8727 109.176C97.8686 109.485 97.9407 109.79 98.083 110.065C98.771 111.813 98.8704 113.731 98.3667 115.538C98.073 116.578 97.3252 117.726 96.2236 117.677C95.6995 117.654 95.2221 117.35 94.7014 117.301C93.9536 117.235 93.2526 117.706 92.8019 118.281C92.3954 118.899 92.0426 119.548 91.747 120.223C90.9292 121.786 89.3201 123.192 87.5408 122.947C85.4945 122.662 84.3662 120.331 84.4296 118.317C84.493 116.303 85.3643 114.378 85.6481 112.37C85.9084 110.52 85.6681 108.633 85.8751 106.776C86.1755 104.056 87.414 101.529 88.1351 98.8873C88.8561 96.2457 88.9763 93.1855 87.2771 91.0114C86.5402 90.1021 85.5426 89.4295 84.4123 89.08C83.2821 88.7304 82.0709 88.7199 80.9345 89.0497C79.9564 89.3538 79.0283 89.9619 78.5977 90.8773C78.0369 92.1132 78.5143 93.5844 78.1204 94.8823C77.6764 96.3405 76.2075 97.3409 75.7836 98.8056C75.2895 100.568 76.4512 102.359 76.4846 104.184C76.5046 105.491 75.9271 106.753 75.3162 107.93C74.6119 109.277 73.8207 110.723 74.0577 112.217C74.183 112.783 74.3481 113.34 74.5518 113.884C75.0814 115.646 74.917 117.538 74.0911 119.187C73.5436 120.269 72.402 121.315 71.2236 120.966C71.0934 119.347 70.8597 117.523 69.5377 116.542C68.6665 115.888 67.468 115.751 66.6802 115.009C66.3561 114.67 66.1124 114.265 65.9665 113.823C65.8205 113.381 65.7758 112.913 65.8357 112.452C65.9611 111.532 66.2491 110.64 66.6869 109.817C67.645 107.79 68.81 105.769 68.9435 103.54C69.1438 100.175 66.9406 96.8603 67.7418 93.5778C68.4094 90.8315 70.9999 88.9059 71.9813 86.2511C72.5054 84.8257 72.5889 83.155 73.6505 82.0598C75.186 80.4872 77.5328 81.0201 79.4757 80.546C80.377 80.3237 81.1448 79.866 82.0928 79.7123C83.3267 79.5004 84.5955 79.6063 85.7749 80.0197Z" fill="#925978"/>
<path opacity="0.1" d="M62.0734 149.788C62.0734 149.788 62.0734 157.145 62.0734 160.414C62.0734 160.852 62.0734 161.307 62.0467 161.764C61.9332 164.707 61.4759 167.77 61.4759 167.77C60.9418 167 60.2989 166.307 59.5664 165.714C57.9674 164.481 56.6054 164.638 55.5806 165.2C55.1378 165.452 54.737 165.768 54.3922 166.139C54.1618 164.681 54.0583 163.726 54.0583 163.726L56.5153 163.242C56.8208 162.736 57.3173 162.369 57.8973 162.219C60.0672 161.81 61.1521 141.622 61.1521 141.622L54.4756 127.354V126.658L56.7323 123.143C60.4878 119.955 61.4058 124.532 61.4058 124.532C61.4058 124.532 62.0734 136.956 62.0734 137.283C62.0734 137.61 62.0734 149.788 62.0734 149.788Z" fill="black"/>
<path d="M61.4058 149.059C61.4058 149.059 61.4058 156.415 61.4058 159.685C61.4058 160.123 61.4058 160.577 61.3791 161.035C61.2656 163.978 60.8082 167.041 60.8082 167.041C56.1347 160.584 52.8365 166.583 52.8365 166.583L51.795 163.853C51.3964 163.519 51.0579 163.121 50.7935 162.676C48.7606 159.381 50.0057 153.636 50.0057 153.636C50.7168 144.646 53.8013 134.511 53.8013 134.511V125.928L56.0646 122.414C59.8201 119.226 61.4058 123.803 61.4058 123.803C61.4058 123.803 61.4058 136.227 61.4058 136.554C61.4058 136.881 61.4058 149.059 61.4058 149.059Z" fill="#FF6484"/>
<path opacity="0.1" d="M61.3858 160.708C61.2723 163.651 60.8149 166.714 60.8149 166.714C56.1414 160.257 52.8432 166.256 52.8432 166.256L51.8017 163.526C51.4031 163.192 51.0646 162.794 50.8002 162.349C52.9768 161.176 57.7738 159.011 61.3858 160.708Z" fill="black"/>
<path d="M61.3858 161.035C61.2723 163.978 60.8149 167.041 60.8149 167.041C56.1414 160.584 52.8432 166.583 52.8432 166.583L51.8017 163.853C51.4031 163.519 51.0646 163.121 50.8002 162.676C52.9768 161.503 57.7738 159.338 61.3858 161.035Z" fill="#FF6484"/>
<path opacity="0.1" d="M61.3858 161.035C61.2723 163.978 60.8149 167.041 60.8149 167.041C56.1414 160.584 52.8432 166.583 52.8432 166.583L51.8017 163.853C51.4031 163.519 51.0646 163.121 50.8002 162.676C52.9768 161.503 57.7738 159.338 61.3858 161.035Z" fill="white"/>
<path opacity="0.1" d="M55.0632 138.924C55.0632 138.924 56.5654 147.016 58.0676 149.386C59.5698 151.757 55.0632 138.924 55.0632 138.924Z" fill="black"/>
<path opacity="0.1" d="M51.2175 152.656C51.2175 152.656 52.1355 157.56 54.055 158.132C55.9745 158.704 51.2175 152.656 51.2175 152.656Z" fill="black"/>
<path opacity="0.1" d="M102.933 169.961L104.295 170.245L103.711 173.066C103.489 172.78 103.244 172.512 102.977 172.265C101.74 171.11 100.123 170.426 98.4168 170.336C97.6749 170.29 96.9301 170.336 96.2002 170.474C96.5179 169.363 96.728 168.226 96.8278 167.077C96.8872 166.645 96.814 166.206 96.6175 165.815C95.9498 164.916 95.616 156.579 95.616 156.579C95.616 156.579 96.2002 152.329 96.534 151.511C96.8678 150.694 95.0318 146.516 95.1153 145.254C95.1987 143.992 96.2002 133.121 96.2002 132.549C96.2002 131.977 98.37 120.779 102.877 125.029L104.629 127.4L104.743 128.034L97.5355 136.309C97.5355 136.309 103.795 168.103 103.044 169.575C102.986 169.697 102.949 169.827 102.933 169.961Z" fill="black"/>
<path d="M110.478 162.873C109.116 164.206 106.282 168.607 105.504 169.83L105.304 170.157L104.636 173.426C104.636 173.426 102.299 169.503 96.8745 170.484C97.1923 169.373 97.4024 168.236 97.5021 167.087C97.5615 166.655 97.4883 166.216 97.2918 165.825C96.6242 164.926 96.2903 156.589 96.2903 156.589C96.2903 156.589 96.8745 152.339 97.2083 151.521C97.5422 150.704 95.7061 146.526 95.7896 145.264C95.8731 144.002 96.8745 133.131 96.8745 132.559C96.8745 131.987 99.0444 120.789 103.551 125.039L105.304 127.409L106.639 134.847L109.226 147.761C109.226 147.761 109.894 152.829 110.478 153.565C111.062 154.3 112.057 161.32 110.478 162.873Z" fill="#FF6484"/>
<path opacity="0.1" d="M105.497 169.503L105.297 169.83L104.629 173.099C104.629 173.099 102.292 169.176 96.8678 170.157C97.1856 169.046 97.3957 167.909 97.4954 166.76C99.3548 166.874 103.1 167.387 105.497 169.503Z" fill="black"/>
<path d="M105.497 169.83L105.297 170.157L104.629 173.426C104.629 173.426 102.292 169.503 96.8678 170.484C97.1856 169.373 97.3957 168.236 97.4954 167.087C99.3548 167.201 103.1 167.714 105.497 169.83Z" fill="#FF6484"/>
<path opacity="0.1" d="M105.497 169.83L105.297 170.157L104.629 173.426C104.629 173.426 102.292 169.503 96.8678 170.484C97.1856 169.373 97.3957 168.236 97.4954 167.087C99.3548 167.201 103.1 167.714 105.497 169.83Z" fill="white"/>
<path opacity="0.1" d="M100.039 146.852C100.039 146.852 105.714 146.784 106.549 149.677C107.383 152.571 100.039 146.852 100.039 146.852Z" fill="black"/>
<path opacity="0.1" d="M98.9542 155.026C98.9542 155.026 108.552 154.617 108.134 158.704C107.717 162.791 98.9542 155.026 98.9542 155.026Z" fill="black"/>
<path opacity="0.1" d="M99.5384 161.319C99.5384 161.319 100.29 161.156 100.79 162.872C101.291 164.589 99.5384 161.319 99.5384 161.319Z" fill="black"/>
<path opacity="0.1" d="M80.0999 201.288C80.0999 201.288 82.3866 200.634 83.4381 201.288C84.4897 201.942 80.0999 201.288 80.0999 201.288Z" fill="black"/>
<path opacity="0.1" d="M80.5105 203.658C80.5105 203.658 85.9351 203.74 86.4359 204.312C86.9366 204.884 80.5105 203.658 80.5105 203.658Z" fill="black"/>
<g opacity="0.1">
<path d="M68.9569 102.559C69.1171 99.8844 67.7718 97.246 67.6049 94.6272C67.4313 97.2689 68.8 99.9301 68.9402 102.624C68.9473 102.603 68.9529 102.581 68.9569 102.559Z" fill="black"/>
<path d="M75.3296 106.979C74.6352 108.306 73.8608 109.725 74.061 111.2C74.2046 110.078 74.7921 108.993 75.3296 107.963C75.9405 106.786 76.518 105.537 76.5013 104.216C76.5013 104.072 76.4913 103.929 76.4713 103.785C76.3544 104.903 75.8537 105.969 75.3296 106.979Z" fill="black"/>
<path d="M99.7554 100.999C100.003 101.102 100.229 101.248 100.423 101.431C100.59 101.088 100.621 100.696 100.51 100.332C100.51 100.332 100.51 100.303 100.493 100.286C100.446 100.459 100.353 100.616 100.223 100.741C100.093 100.866 99.932 100.955 99.7554 100.999Z" fill="black"/>
<path d="M74.0911 118.203C73.5436 119.285 72.402 120.331 71.2236 119.981C71.0934 118.363 70.8597 116.539 69.5377 115.558C68.6665 114.904 67.468 114.767 66.6836 114.028C66.2136 113.56 65.9215 112.948 65.8557 112.295C65.8557 112.347 65.839 112.4 65.8356 112.452C65.7755 112.913 65.8204 113.381 65.967 113.823C66.1136 114.265 66.3583 114.67 66.6836 115.009C67.468 115.751 68.6665 115.898 69.5377 116.542C70.873 117.523 71.0934 119.347 71.2236 120.965C72.402 121.315 73.5436 120.269 74.0911 119.187C74.6618 118.038 74.9161 116.764 74.8288 115.489C74.7656 116.432 74.515 117.354 74.0911 118.203Z" fill="black"/>
<path d="M101.244 104.099C101.001 105.308 100.096 106.312 99.0344 106.979C98.5336 107.306 97.9328 107.633 97.866 108.208C97.8507 108.432 97.8896 108.656 97.9795 108.862C98.253 108.487 98.6149 108.182 99.0344 107.973C100.096 107.319 101.001 106.302 101.244 105.093C101.309 104.741 101.309 104.381 101.244 104.03C101.246 104.053 101.246 104.076 101.244 104.099Z" fill="black"/>
<path d="M98.3601 114.57C98.0663 115.61 97.3219 116.758 96.2169 116.709C95.6928 116.686 95.2154 116.382 94.6947 116.333C93.9469 116.267 93.2459 116.738 92.7952 117.313C92.3892 117.931 92.0374 118.58 91.7437 119.256C90.9225 120.818 89.3134 122.224 87.5375 121.979C85.7616 121.734 84.6232 119.86 84.4496 118.026C84.4496 118.128 84.4263 118.229 84.4263 118.334C84.3595 120.357 85.4878 122.679 87.5375 122.963C89.3134 123.208 90.9225 121.802 91.7437 120.24C92.0367 119.564 92.3885 118.914 92.7952 118.298C93.2459 117.712 93.9469 117.242 94.6947 117.317C95.2154 117.366 95.6961 117.67 96.2169 117.693C97.3219 117.742 98.0663 116.594 98.3601 115.555C98.6185 114.633 98.7189 113.677 98.6572 112.723C98.6267 113.348 98.5271 113.967 98.3601 114.57Z" fill="black"/>
<path d="M87.2704 91.0374C88.1167 92.1797 88.5829 93.5496 88.6057 94.9607C88.6925 93.1821 88.352 91.4297 87.2704 90.037C86.5336 89.1278 85.5359 88.4551 84.4056 88.1056C83.2754 87.756 82.0642 87.7455 80.9278 88.0753C79.9497 88.3794 79.0217 88.9875 78.591 89.9029C78.0269 91.1388 78.5042 92.6133 78.1103 93.9079C77.6663 95.3661 76.1975 96.3665 75.7736 97.8312C75.65 98.3007 75.6206 98.7892 75.6868 99.2697C75.7047 99.1164 75.7337 98.9646 75.7736 98.8153C76.1842 97.3506 77.653 96.3502 78.1103 94.892C78.5042 93.5843 78.0269 92.1229 78.591 90.887C79.0083 89.9716 79.9263 89.3635 80.9278 89.0594C82.0658 88.7314 83.2781 88.7444 84.4085 89.097C85.5389 89.4495 86.5356 90.1253 87.2704 91.0374Z" fill="black"/>
</g>
<g opacity="0.8">
<path d="M189.864 216.389C204.65 216.389 216.637 204.65 216.637 190.169C216.637 175.687 204.65 163.948 189.864 163.948C175.078 163.948 163.092 175.687 163.092 190.169C163.092 204.65 175.078 216.389 189.864 216.389Z" fill="#1769FF"/>
<path d="M182.003 178.284C183.064 178.276 184.124 178.377 185.164 178.585C186.037 178.752 186.869 179.085 187.611 179.566C188.291 180.024 188.836 180.65 189.19 181.381C189.593 182.259 189.786 183.216 189.754 184.179C189.792 185.237 189.501 186.281 188.92 187.174C188.291 188.031 187.441 188.708 186.456 189.136C187.802 189.462 188.985 190.247 189.794 191.349C190.444 192.38 190.819 193.553 190.888 194.763C190.956 195.972 190.714 197.179 190.185 198.273C189.73 199.129 189.071 199.864 188.265 200.418C187.43 200.987 186.497 201.404 185.511 201.651C184.475 201.916 183.408 202.05 182.337 202.05H170.586V178.284H182.003ZM181.335 187.903C182.166 187.938 182.986 187.709 183.672 187.249C184.286 186.813 184.592 186.092 184.59 185.085C184.608 184.612 184.502 184.143 184.283 183.721C184.091 183.378 183.81 183.091 183.468 182.888C183.106 182.681 182.71 182.541 182.297 182.473C181.841 182.395 181.38 182.357 180.918 182.358H175.911V187.916L181.335 187.903ZM181.642 197.986C182.145 197.988 182.646 197.938 183.138 197.835C183.584 197.748 184.01 197.58 184.393 197.338C184.761 197.101 185.059 196.774 185.261 196.39C185.497 195.913 185.611 195.387 185.595 194.857C185.595 193.641 185.244 192.768 184.54 192.241C183.725 191.685 182.745 191.409 181.752 191.457H175.944V197.996L181.642 197.986ZM197.632 197.486C198.358 198.174 199.399 198.519 200.757 198.519C201.655 198.54 202.537 198.286 203.281 197.793C203.875 197.447 204.331 196.913 204.573 196.279H208.819C208.138 198.343 207.095 199.819 205.691 200.706C204.156 201.632 202.378 202.097 200.577 202.043C199.3 202.06 198.033 201.838 196.841 201.389C195.773 200.985 194.81 200.354 194.02 199.542C193.233 198.717 192.625 197.744 192.234 196.681C191.806 195.507 191.593 194.267 191.607 193.02C191.595 191.792 191.813 190.573 192.251 189.423C192.654 188.354 193.276 187.377 194.08 186.553C194.884 185.729 195.852 185.076 196.925 184.634C198.081 184.155 199.325 183.917 200.58 183.934C201.934 183.903 203.276 184.195 204.489 184.784C205.57 185.328 206.506 186.112 207.223 187.073C207.95 188.054 208.475 189.164 208.769 190.342C209.086 191.593 209.199 192.885 209.103 194.17H196.417C196.484 195.694 196.881 196.806 197.606 197.489L197.632 197.486ZM203.087 188.436C202.508 187.815 201.63 187.504 200.453 187.504C199.792 187.481 199.134 187.612 198.534 187.887C198.061 188.111 197.643 188.435 197.312 188.835C197.018 189.188 196.798 189.595 196.664 190.031C196.551 190.4 196.477 190.779 196.444 191.163H204.282C204.06 189.966 203.657 189.057 203.074 188.436H203.087ZM195.603 179.484H205.407V182.149H195.603V179.484Z" fill="white"/>
</g>
<g opacity="0.8">
<path d="M310.849 205.525C310.849 205.77 310.849 206.019 310.849 206.267C310.666 212.544 308.19 218.548 303.871 223.189C299.551 227.829 293.675 230.798 287.311 231.556C286.242 231.681 285.166 231.743 284.089 231.742C278.794 231.742 273.618 230.204 269.215 227.323C264.812 224.442 261.381 220.346 259.354 215.555C257.328 210.764 256.798 205.491 257.831 200.405C258.865 195.319 261.415 190.647 265.159 186.98C268.904 183.313 273.675 180.816 278.868 179.805C284.062 178.793 289.445 179.313 294.337 181.298C299.229 183.283 303.41 186.644 306.352 190.957C309.293 195.269 310.863 200.339 310.862 205.525H310.849Z" fill="#B3BBC6"/>
<path d="M310.835 206.267C310.653 212.544 308.177 218.548 303.857 223.189C299.538 227.829 293.662 230.798 287.297 231.556L265.439 215.631L268.169 198.303L278.978 198.957L285.127 204.005L289.501 197.025L296.845 203.001L300.794 205.77V197.031L310.748 206.055C310.772 206.127 310.809 206.195 310.835 206.267Z" fill="#666C76"/>
<path d="M282.16 206.169C282.16 200.611 278.671 196.845 272.028 196.845H265.469V215.552H272.165C278.615 215.552 282.16 211.727 282.16 206.169ZM277.396 206.198C277.396 210.21 275.293 211.946 271.918 211.946H270.199V200.451H271.918C275.156 200.451 277.396 202.265 277.396 206.198ZM301.011 215.552V196.845H296.608V207.307L289.577 196.845H284.981V215.549H289.384V204.355L296.911 215.549H301.011V215.552Z" fill="white"/>
</g>
<path d="M290.719 177.631C290.385 176.977 287.271 172.602 287.271 172.602L287.177 172.21L286.156 167.747L286.086 167.42C286.753 167.253 287.234 167.047 287.384 166.789C288.119 165.53 286.763 164 286.763 164L286.479 157.383L285.745 141.363C285.745 141.363 284.219 136.001 283.992 134.746C283.765 133.49 281.676 130.862 281.676 130.862C281.676 130.862 282.126 129.554 281.562 128.619C280.998 127.684 279.753 123.313 279.753 123.313L278.681 111.216L278.171 99.3155C278.683 99.3119 279.194 99.359 279.696 99.4561C279.77 99.515 279.73 99.3678 279.623 99.103C279.649 99.1072 279.674 99.1161 279.696 99.1292C279.87 99.2665 279.406 98.2432 278.905 97.2002L278.845 97.0793C279.085 96.2259 280.08 92.7702 280.771 91.5213C281.285 90.5993 280.297 84.2338 279.543 79.8855C279.489 79.5749 279.436 79.2774 279.386 78.9897C280.611 76.8908 282.016 74.5107 282.016 74.5107C282.016 74.5107 285.575 64.5586 287.044 60.2365C288.512 55.9143 287.044 44.7069 287.044 44.7069C287.044 44.7069 287.044 44.1576 286.963 43.301C286.733 40.9863 285.852 36.4582 282.467 34.6993C277.833 32.293 276.365 29.3407 276.365 29.3407C276.365 29.3407 270.583 24.1882 269.852 25.9177L269.802 25.8196C269.37 24.9549 269.052 24.0397 268.857 23.0962C268.837 22.9981 268.82 22.9 268.804 22.8052C269.542 22.234 270.185 21.5521 270.706 20.7847C270.706 20.9286 270.683 21.0724 270.673 21.2163C270.673 21.3078 270.673 21.3994 270.673 21.4877V21.6119C270.67 21.6718 270.67 21.7318 270.673 21.7917C270.673 21.8277 270.673 21.8636 270.673 21.8996C270.887 21.9201 271.102 21.8763 271.29 21.7741C271.478 21.6719 271.629 21.5161 271.724 21.3275C271.906 20.9501 272.026 20.5475 272.082 20.1341C272.277 19.2537 272.635 18.4159 273.14 17.6625C273.634 16.9203 274.295 16.1749 274.382 15.3281C274.395 15.2042 274.395 15.0793 274.382 14.9554C274.338 14.5239 274.131 14.1217 274.068 13.6934C274.041 13.4763 274.041 13.2567 274.068 13.0396C274.068 12.912 274.098 12.7845 274.118 12.6603C274.138 12.5361 274.171 12.3334 274.195 12.1503C274.218 11.9672 274.238 11.8658 274.255 11.722V11.7056C274.302 11.3289 274.302 10.9479 274.255 10.5712C274.226 10.2229 274.113 9.88634 273.925 9.5895C273.737 9.29265 273.479 9.0441 273.173 8.86454C272.839 8.6978 272.456 8.64549 272.122 8.47875C271.24 8.03738 270.96 6.9781 270.453 6.16076C270.092 5.61588 269.604 5.16294 269.03 4.83943C268.455 4.51593 267.81 4.33117 267.148 4.30047C265.812 4.24816 264.504 4.8203 263.192 4.62741C262.354 4.49663 261.583 4.052 260.735 3.99315C259.496 3.90815 258.382 4.64703 257.377 5.35649C256.666 5.8567 255.908 6.42231 255.674 7.24619C255.487 7.91969 255.674 8.69453 255.287 9.28302C255.037 9.66554 254.583 9.88459 254.302 10.2638C254.071 10.5654 253.953 10.9362 253.968 11.3133C253.968 11.346 253.968 11.382 253.968 11.4179C253.968 11.4539 253.968 11.5356 253.968 11.5945C253.992 11.8462 254.038 12.1012 254.082 12.3497C254.083 12.3758 254.083 12.402 254.082 12.4282C254.182 13.118 253.955 13.6019 253.701 14.2754C253.593 14.5594 253.532 14.8585 253.521 15.1614C253.521 15.1614 253.521 15.1908 253.521 15.2072C253.521 15.2235 253.521 15.2497 253.521 15.2725C253.518 15.3357 253.518 15.399 253.521 15.4622C253.551 15.6972 253.656 15.917 253.822 16.0899C253.905 15.9564 254.019 15.8443 254.155 15.763C254.155 15.861 254.155 15.9591 254.155 16.0605V16.0801C254.156 17.2326 254.393 18.3732 254.852 19.4346C255.31 20.4959 255.982 21.4564 256.826 22.2592C256.826 22.354 256.799 22.4521 256.786 22.5469C256.642 23.5278 256.452 24.6067 256.222 25.6398L256.142 25.9667H254.472C254.472 25.9667 254.756 24.7636 251.985 26.2414C249.215 27.7191 245.823 28.4286 245.309 28.6999C244.795 28.9713 238.529 33.7348 238.529 33.7348C238.529 33.7348 233.101 36.7949 233.271 42.0456L232.65 47.9305L232.2 58.9222C232.2 58.9222 231.352 68.2759 232.2 69.5869C233.048 70.898 234.516 78.666 234.233 79.6501C234.029 80.3629 236.075 85.3716 237.498 88.2911C237.116 88.6853 236.762 89.1048 236.439 89.5466C236.439 89.5466 235.872 91.7371 235.872 91.9561C235.872 91.9561 235.872 91.979 235.899 91.9921C234.647 93.2345 232.65 95.2778 232.65 95.729C232.65 96.3829 233.048 96.955 232.427 96.9158C231.806 96.8766 231.786 97.5893 231.823 98.0241C231.859 98.4589 231.068 97.8083 231.125 98.6257C231.182 99.443 225.36 112.298 225.36 112.298C225.36 112.298 222.706 118.589 221.688 119.628C220.67 120.668 219.257 125.261 219.371 126.955C219.484 128.648 219.541 129.145 219.087 129.145C218.633 129.145 217.732 130.676 217.732 130.676L213.269 144.129C213.269 144.129 211.967 148.284 211.573 148.232C211.179 148.18 210.291 155.372 210.291 155.372C210.291 155.372 209.333 157.504 209.163 157.504C209.129 157.504 209.286 157.658 209.577 157.9L209.383 158.06C208.963 158.412 208.523 158.739 208.064 159.041C208.048 159.041 205.484 157.298 203.725 157.462C201.965 157.625 198.357 158.06 196.544 156.808C195.543 156.108 193.43 155.5 191.73 155.474C190.375 155.454 189.277 155.801 189.2 156.808C189.03 159.047 195.359 163.262 195.359 163.262C195.359 163.262 202.036 165.119 203.327 166.858C204.619 168.597 209.957 171.232 209.957 171.232C209.957 171.232 211.563 170.539 212.167 169.843C212.239 169.776 212.296 169.696 212.334 169.606C212.372 169.516 212.39 169.42 212.387 169.323C212.274 168.502 214.591 165.4 214.591 165.4L214.924 163.86C215.088 163.098 215.295 162.17 215.499 161.355C215.525 161.244 215.552 161.135 215.579 161.029C215.843 161.042 216.108 161.002 216.357 160.911C218.616 160.038 218.844 157.641 218.844 157.641L222.225 150.714C222.225 150.714 223.694 146.722 224.145 146.009C224.595 145.296 228.1 138.136 228.1 138.136C228.1 138.136 228.721 135.073 229.289 134.144C229.856 133.216 229.91 131.202 229.91 131.202C229.91 131.202 231.095 128.138 232.34 126.935C233.237 125.991 234.014 124.945 234.657 123.82C234.657 123.82 239.798 115.888 243.303 113.649C243.303 113.649 251.725 103.585 252.233 102.709C252.74 101.833 254.322 99.5378 256.238 101.614C258.155 103.69 260.191 106.374 260.191 106.374L263.643 115.561L267.485 127.331C267.485 127.331 269.291 130.172 269.181 130.774C269.071 131.375 272.118 136.737 272.118 136.737C272.118 136.737 273.303 138.699 273.08 139.679C272.856 140.66 273.928 141.641 273.928 141.641L274.262 145.633C274.262 145.633 275.507 149.556 275.166 150.174C274.826 150.792 276.355 154.549 276.355 154.549C276.355 154.549 276.355 157.883 276.919 158.979C277.483 160.074 278.171 164.445 278.114 164.772C278.057 165.099 278.114 168.11 278.114 168.11C278.114 168.11 278.511 168.11 279.142 168.09L279.169 168.417L279.449 171.71L279.476 172.014C279.324 172.128 279.2 172.273 279.11 172.439C279.021 172.605 278.969 172.788 278.958 172.975C278.958 173.864 279.092 176.476 279.205 178.533C279.232 179.079 279.262 179.582 279.289 180.004C279.298 180.151 279.337 180.295 279.405 180.427C279.473 180.559 279.568 180.676 279.684 180.771C279.799 180.865 279.934 180.936 280.078 180.978C280.223 181.019 280.374 181.032 280.524 181.014C282.131 180.816 283.76 180.875 285.348 181.191C287.107 181.586 288.917 181.717 290.716 181.577C290.716 181.577 290.839 180.344 290.859 179.239C290.876 178.533 290.849 177.882 290.719 177.631Z" fill="url(#paint1_linear_12_25)"/>
<path d="M286.396 172.756H278.775L278.701 171.876L278.424 168.594L278.217 166.109H284.894L285.301 167.917L286.306 172.363L286.396 172.756Z" fill="#FFAAB0"/>
<path d="M216.347 159.567C216.203 159.704 215.966 160.532 215.726 161.529C215.295 163.281 214.844 165.56 214.844 165.56L214.564 165.625L208.622 167.031C208.622 167.031 205.507 160.058 206.953 159.894C207.463 159.79 207.944 159.58 208.365 159.279C208.841 158.97 209.297 158.632 209.73 158.266C210.521 157.612 211.126 157.004 211.126 157.004C211.126 157.004 216.737 159.185 216.347 159.567Z" fill="#FFAAB0"/>
<path opacity="0.1" d="M216.347 159.567C216.203 159.705 215.966 160.532 215.726 161.529C213.673 161.411 210.568 159.024 209.717 158.259C210.508 157.606 211.112 156.997 211.112 156.997C211.112 156.997 216.737 159.185 216.347 159.567Z" fill="black"/>
<path opacity="0.1" d="M285.298 167.914C283.468 168.398 280.113 168.545 278.421 168.591L278.214 166.106H284.89L285.298 167.914Z" fill="black"/>
<path d="M236.877 91.4559C236.877 91.4559 232.704 95.4871 232.704 96.141C232.704 96.7948 233.094 97.3605 232.484 97.3245C231.873 97.2885 231.853 97.9947 231.889 98.4295C231.926 98.8644 231.148 98.2105 231.202 99.0278C231.255 99.8452 225.527 112.651 225.527 112.651C225.527 112.651 222.913 118.919 221.911 119.952C220.91 120.985 219.518 125.565 219.631 127.256C219.745 128.946 219.798 129.433 219.351 129.433C218.904 129.433 218.016 130.96 218.016 130.96L213.623 144.364C213.623 144.364 212.341 148.507 211.953 148.451C211.566 148.396 210.618 155.588 210.618 155.588C210.618 155.588 209.67 157.713 209.503 157.713C209.336 157.713 214.344 161.964 216.57 161.094C218.797 160.224 219.017 157.825 219.017 157.825L222.355 150.959C222.355 150.959 223.804 146.98 224.248 146.271C224.692 145.561 228.144 138.424 228.144 138.424C228.144 138.424 228.755 135.374 229.312 134.448C229.87 133.523 229.923 131.506 229.923 131.506C229.923 131.506 231.091 128.452 232.317 127.256C233.2 126.313 233.965 125.27 234.597 124.15C234.597 124.15 239.661 116.248 243.109 114.015C243.109 114.015 251.398 103.988 251.899 103.115C252.399 102.242 253.958 99.9563 255.851 102.026C257.744 104.095 259.744 106.766 259.744 106.766L263.139 115.921L266.921 127.635C266.921 127.635 268.703 130.47 268.59 131.068C268.476 131.666 271.484 137.008 271.484 137.008C271.484 137.008 272.653 138.97 272.429 139.951C272.205 140.932 273.263 141.912 273.263 141.912L273.597 145.891C273.597 145.891 274.822 149.815 274.489 150.413C274.155 151.011 275.657 154.771 275.657 154.771C275.657 154.771 275.657 158.096 276.214 159.185C276.772 160.273 277.436 164.635 277.383 164.962C277.329 165.289 277.383 168.287 277.383 168.287C277.383 168.287 285.778 168.231 286.503 166.979C287.227 165.727 285.892 164.2 285.892 164.2L285.612 157.606L284.89 141.641C284.89 141.641 283.388 136.299 283.165 135.047C282.941 133.795 280.885 131.179 280.885 131.179C280.885 131.179 281.329 129.871 280.771 128.943C280.214 128.014 278.992 123.659 278.992 123.659L277.934 111.615L277.389 98.4851L236.877 91.4559Z" fill="#DCE6F2"/>
<path opacity="0.1" d="M278.938 99.9007C278.605 99.6261 264.918 99.5182 264.751 99.5182C264.584 99.5182 259.41 97.501 259.41 97.501C259.41 97.501 247.893 95.6505 246.114 96.4679C244.334 97.2852 238.823 94.9411 238.823 94.9411V93.9047C238.823 93.9047 235.875 92.9239 235.875 92.7081C235.875 92.4923 236.433 90.3083 236.433 90.3083L236.766 90.1939L238.042 89.7656L277.156 95.9219C277.156 95.9219 277.673 96.9616 278.157 97.9783C278.641 98.9951 279.109 100.038 278.938 99.9007Z" fill="black"/>
<path d="M278.938 99.5738C278.605 99.2992 264.918 99.1913 264.751 99.1913C264.584 99.1913 259.41 97.1741 259.41 97.1741C259.41 97.1741 247.893 95.3236 246.114 96.141C244.334 96.9583 238.823 94.6142 238.823 94.6142V93.5778C238.823 93.5778 235.875 92.597 235.875 92.3812C235.875 92.1654 236.433 89.9814 236.433 89.9814L236.766 89.867L238.042 89.4387L277.156 95.595C277.156 95.595 277.673 96.6347 278.157 97.6514C278.641 98.6682 279.109 99.7111 278.938 99.5738Z" fill="#F1FAFF"/>
<path opacity="0.1" d="M215.161 163.693L214.828 165.233C214.828 165.233 214.717 165.383 214.547 165.625L208.622 167.031C208.622 167.031 205.507 160.058 206.953 159.894C207.463 159.79 207.944 159.58 208.365 159.279C208.061 161.463 209.79 163.762 209.79 163.762C212.23 165.56 215.161 163.693 215.161 163.693Z" fill="black"/>
<path d="M215.161 164.023L214.828 165.563C214.828 165.563 212.548 168.669 212.658 169.486C212.661 169.583 212.643 169.679 212.605 169.769C212.568 169.858 212.512 169.939 212.441 170.006C211.847 170.699 210.264 171.389 210.264 171.389C210.264 171.389 205.037 168.774 203.755 167.031C202.473 165.289 195.91 163.435 195.91 163.435C195.91 163.435 189.681 159.237 189.848 157.004C189.921 156.023 191.003 155.657 192.338 155.677C194.007 155.696 196.087 156.308 197.078 157.004C198.861 158.256 202.419 157.821 204.145 157.658C205.871 157.494 208.408 159.234 208.408 159.234C207.831 161.522 209.764 164.089 209.764 164.089C212.231 165.89 215.161 164.023 215.161 164.023Z" fill="#575988"/>
<path d="M212.457 170.003C211.863 170.696 210.281 171.386 210.281 171.386C210.281 171.386 205.053 168.771 203.771 167.028C202.49 165.285 195.927 163.432 195.927 163.432C195.927 163.432 189.697 159.234 189.864 157.001C189.938 156.02 191.019 155.654 192.355 155.673C193.356 157.308 194.835 159.58 195.927 160.215C197.709 161.251 201.214 163.213 201.214 163.213C201.214 163.213 206.776 166.645 207.166 167.028C207.487 167.345 210.708 169.431 212.457 170.003Z" fill="#F1FAFF"/>
<path opacity="0.1" d="M286.403 172.753H278.772L278.698 171.873C279.659 170.987 281.719 170.565 281.719 170.565C283.148 170.137 285.782 171.975 286.303 172.354L286.403 172.753Z" fill="black"/>
<path d="M289.931 179.363C289.911 180.465 289.788 181.691 289.788 181.691C288.017 181.831 286.234 181.702 284.503 181.309C282.942 180.993 281.338 180.934 279.756 181.132C279.608 181.149 279.457 181.136 279.314 181.094C279.171 181.052 279.038 180.982 278.924 180.887C278.81 180.793 278.717 180.677 278.65 180.545C278.584 180.414 278.545 180.271 278.538 180.125C278.514 179.707 278.484 179.203 278.458 178.66C278.344 176.624 278.214 174.021 278.214 173.135C278.214 171.612 281.719 170.902 281.719 170.902C283.308 170.425 286.393 172.756 286.393 172.756C286.393 172.756 289.454 177.114 289.788 177.768C289.918 178.02 289.945 178.667 289.931 179.363Z" fill="#575988"/>
<path d="M289.931 179.363C289.911 180.465 289.788 181.691 289.788 181.691C288.017 181.831 286.234 181.702 284.503 181.309C282.942 180.993 281.338 180.934 279.756 181.132C279.608 181.149 279.457 181.136 279.314 181.094C279.171 181.052 279.038 180.982 278.924 180.887C278.81 180.793 278.717 180.677 278.65 180.546C278.584 180.414 278.545 180.271 278.538 180.125C278.514 179.707 278.484 179.203 278.458 178.66C279.74 178.471 281.629 178.288 282.944 178.585C284.473 178.932 287.985 179.223 289.931 179.363Z" fill="#F1FAFF"/>
<path opacity="0.1" d="M213.926 146.627C213.926 146.627 212.758 148.589 213.926 149.488C215.095 150.387 213.926 146.627 213.926 146.627Z" fill="black"/>
<path opacity="0.1" d="M276.685 154.228C277.019 154.882 277.907 155.863 277.753 157.007C277.6 158.152 276.685 154.228 276.685 154.228Z" fill="black"/>
<path d="M275.657 34.6764C275.657 34.6764 270.559 34.1697 265.275 33.4831L265.058 33.4537C258.922 32.6527 252.626 31.6163 253.845 30.861C254.389 30.5341 254.846 29.7037 255.224 28.6575C255.458 27.9874 255.656 27.3053 255.814 26.6141C255.841 26.5062 255.865 26.3951 255.891 26.2872C256.122 25.2573 256.305 24.1817 256.449 23.2074C256.732 21.2229 256.849 19.6405 256.849 19.6405C256.849 19.6405 269.925 14.7887 268.313 20.8371C268.068 21.8082 268.052 22.8211 268.266 23.7992C268.458 24.7386 268.771 25.6504 269.197 26.5128C271.281 30.8676 275.657 34.6764 275.657 34.6764Z" fill="#FFAAB0"/>
<path opacity="0.1" d="M268.313 20.8338C268.068 21.8049 268.052 22.8178 268.266 23.7959C266.569 25.1438 264.423 25.8291 262.242 25.7198C260.06 25.6106 257.996 24.7145 256.449 23.2041C256.732 21.2196 256.849 19.6372 256.849 19.6372C256.849 19.6372 269.925 14.7854 268.313 20.8338Z" fill="black"/>
<path d="M271.538 16.7405C271.54 19.0384 270.611 21.2431 268.954 22.8697C268.133 23.6751 267.159 24.3144 266.086 24.751C265.013 25.1876 263.863 25.413 262.701 25.4142C261.54 25.4155 260.389 25.1927 259.315 24.7585C258.241 24.3243 257.265 23.6872 256.443 22.8836C254.782 21.2606 253.848 19.058 253.845 16.7602V16.7405C253.845 14.4427 254.777 12.239 256.436 10.6143C258.095 8.98946 260.345 8.07666 262.691 8.07666C265.037 8.07666 267.288 8.98946 268.947 10.6143C270.606 12.239 271.538 14.4427 271.538 16.7405Z" fill="#FFAAB0"/>
<path opacity="0.1" d="M265.392 33.1267C265.367 33.2494 265.327 33.3689 265.275 33.483L265.058 33.4536C258.922 32.6526 252.626 31.6162 253.845 30.861C254.389 30.5341 254.846 29.7036 255.224 28.6574C255.458 27.9874 255.656 27.3052 255.814 26.614C255.841 26.5062 255.865 26.395 255.891 26.2871H256.148C256.168 26.4244 256.816 30.6125 262.554 31.3285L262.748 31.3514C264.988 31.5966 265.559 32.3159 265.392 33.1267Z" fill="black"/>
<path d="M265.058 33.4537C264.778 34.8105 262.414 36.419 262.414 36.419L255.848 35.2191C255.848 35.2191 251.732 31.6228 251.732 31.5149C251.732 31.407 254.179 26.6108 254.179 26.6108H255.814C255.834 26.7482 256.482 30.9362 262.221 31.6522L262.414 31.6751C264.654 31.9236 265.225 32.6429 265.058 33.4537Z" fill="#F1FAFF"/>
<path opacity="0.1" d="M275.657 34.6765C275.657 34.6765 270.419 34.1566 265.058 33.4537C264.778 34.8105 262.414 36.419 262.414 36.419L255.848 35.2192C255.848 35.2192 251.732 31.6228 251.732 31.515C251.732 31.4071 254.179 26.6109 254.179 26.6109H254.262C254.478 27.3359 254.802 28.0256 255.224 28.6575C256.255 30.2007 258.228 31.8909 261.9 31.6784L262.207 31.6555C267.719 31.2076 268.957 27.4707 269.184 26.5095C271.28 30.8676 275.657 34.6765 275.657 34.6765Z" fill="black"/>
<path opacity="0.1" d="M278.157 97.6514L278.047 98.047C276.712 97.0662 266.978 96.4123 266.978 96.4123C266.978 96.4123 264.417 96.1181 261.97 95.7356C260.194 95.4577 258.478 95.1307 257.847 94.8332C257.701 94.7691 257.55 94.7134 257.397 94.6665C255.18 93.9865 248.384 93.1985 248.384 93.1985C248.384 93.1985 245.045 94.6697 243.266 94.0159C241.487 93.362 236.423 90.3084 236.423 90.3084C236.423 90.3084 236.533 90.1449 236.756 89.867L238.032 89.4387L277.146 95.595C277.146 95.595 277.677 96.6347 278.157 97.6514Z" fill="black"/>
<path d="M278.785 80.4217C279.529 84.7569 280.501 91.0963 279.997 92.015C279.215 93.4306 278.047 97.7364 278.047 97.7364C276.712 96.7556 266.977 96.1017 266.977 96.1017C266.977 96.1017 264.417 95.8075 261.97 95.4249C260.194 95.147 258.478 94.8201 257.847 94.5226C257.701 94.4585 257.55 94.4028 257.397 94.3558C255.18 93.6758 248.384 92.8879 248.384 92.8879C248.384 92.8879 245.045 94.3591 243.266 93.7052C241.487 93.0514 236.423 89.9977 236.423 89.9977C237.152 89.0188 237.992 88.1238 238.926 87.3299C240.649 85.8031 243.82 72.67 243.74 72.5065C243.66 72.343 242.875 68.1484 243.099 65.6964C243.323 63.2443 242.431 51.2555 242.431 51.2555C242.431 51.2555 233.482 47.8618 233.325 42.6308C233.168 37.3998 238.499 34.3494 238.499 34.3494C238.499 34.3494 244.675 29.6088 245.175 29.3342C245.676 29.0596 249.014 28.3534 251.742 26.8821C254.469 25.4109 254.189 26.6108 254.189 26.6108C254.189 26.6108 255.304 32.3878 261.923 32.0053C268.543 31.6228 269.267 26.6108 269.267 26.6108C269.979 24.8682 275.68 30.0436 275.68 30.0436C275.68 30.0436 277.126 32.9861 281.689 35.3826C285.027 37.135 285.889 41.6467 286.116 43.9516C286.199 44.8049 286.196 45.3542 286.196 45.3542L272.786 54.7831L278.057 76.3055C278.057 76.3055 278.391 78.0612 278.785 80.4217Z" fill="#575988"/>
<path d="M245.613 91.6194C245.613 91.6194 250.009 99.0278 254.569 96.9583C255.597 96.5007 256.45 95.7362 257.006 94.7743C258.806 91.7272 257.006 87.8399 253.521 86.9278C252.236 86.6008 250.851 86.3949 249.729 86.6008C246.558 87.1501 245.613 91.6194 245.613 91.6194Z" fill="#FFAAB0"/>
<path opacity="0.1" d="M245.613 91.6194C245.613 91.6194 250.009 99.0278 254.569 96.9583C255.597 96.5007 256.45 95.7362 257.006 94.7743C258.806 91.7272 257.006 87.8399 253.521 86.9278C252.236 86.6008 250.851 86.3949 249.729 86.6008C246.558 87.1501 245.613 91.6194 245.613 91.6194Z" fill="black"/>
<path opacity="0.1" d="M239.16 37.511C239.16 37.511 242.628 39.7996 242.702 43.3959L239.16 37.511Z" fill="black"/>
<path opacity="0.1" d="M244.611 39.2535C244.611 39.4726 243.61 54.6197 245.389 59.7951C247.168 64.9706 244.611 39.2535 244.611 39.2535Z" fill="black"/>
<path opacity="0.1" d="M271.538 16.7405C271.541 18.4195 271.044 20.0629 270.105 21.4681C270.105 21.3569 270.105 21.249 270.105 21.1411C270.049 20.2322 269.558 19.4116 269.081 18.627C268.756 18.003 268.301 17.4528 267.745 17.0119C267.583 16.9196 267.432 16.8099 267.295 16.6849C266.988 16.358 267.021 15.8382 266.961 15.3772C266.872 14.7743 266.593 14.2138 266.162 13.7741C265.732 13.3344 265.172 13.0376 264.561 12.9251C264.307 12.8631 264.039 12.9006 263.813 13.0298C263.586 13.1867 263.479 13.4777 263.289 13.6575C262.988 13.9223 262.528 13.8896 262.13 13.8144C261.256 13.6444 260.344 13.3338 259.497 13.6084C258.041 14.0825 257.494 16.0539 256.001 16.4201C255.559 16.4848 255.113 16.5154 254.666 16.5117C254.379 16.5301 254.1 16.614 253.852 16.7569V16.7372C253.852 14.4394 254.784 12.2358 256.443 10.611C258.102 8.98616 260.352 8.07336 262.698 8.07336C265.044 8.07336 267.294 8.98616 268.953 10.611C270.612 12.2358 271.544 14.4394 271.544 16.7372L271.538 16.7405Z" fill="black"/>
<path d="M253.932 10.9896C254.209 10.6267 254.653 10.4077 254.903 10.0252C255.284 9.43994 255.097 8.66836 255.284 7.99814C255.511 7.17752 256.258 6.61518 256.953 6.11497C257.954 5.40878 259.039 4.67316 260.258 4.7549C261.092 4.81375 261.85 5.25838 262.678 5.38916C263.97 5.59513 265.265 5.02626 266.574 5.06222C267.228 5.09437 267.864 5.2798 268.43 5.60294C268.996 5.92608 269.474 6.37748 269.825 6.91924C270.342 7.73004 270.616 8.78606 271.494 9.20781C271.828 9.37455 272.202 9.42686 272.529 9.5936C272.832 9.77432 273.086 10.0231 273.272 10.3193C273.457 10.6155 273.567 10.9506 273.594 11.2969C273.64 11.988 273.591 12.6819 273.447 13.3599C273.382 13.7015 273.366 14.0504 273.4 14.3963C273.46 14.8246 273.667 15.2235 273.711 15.655C273.811 16.6359 273.043 17.4957 272.486 18.3359C271.991 19.0897 271.639 19.9248 271.447 20.8011C271.393 21.2133 271.274 21.6147 271.094 21.9911C271 22.1779 270.852 22.3325 270.667 22.4347C270.482 22.5369 270.27 22.5817 270.059 22.5633C269.995 21.9715 270.146 21.3732 270.105 20.7782C270.049 19.8693 269.558 19.0487 269.081 18.2673C268.757 17.6419 268.302 17.0904 267.745 16.6489C267.584 16.5577 267.433 16.4479 267.298 16.322C266.988 15.9951 267.021 15.4785 266.964 15.0142C266.875 14.412 266.595 13.8522 266.165 13.4131C265.734 12.9741 265.175 12.6777 264.564 12.5655C264.311 12.5024 264.042 12.5388 263.816 12.6668C263.589 12.8238 263.482 13.1147 263.292 13.2945C262.992 13.5594 262.531 13.5299 262.134 13.4515C261.259 13.2847 260.348 12.9709 259.5 13.2455C258.044 13.7196 257.497 15.691 256.005 16.0572C255.563 16.1236 255.116 16.1542 254.669 16.1487C254.444 16.1493 254.222 16.2027 254.023 16.3045C253.823 16.4063 253.651 16.5536 253.521 16.7339C253.074 16.2762 253.164 15.5308 253.384 14.9358C253.641 14.2394 253.875 13.7457 253.748 13.0134C253.621 12.281 253.454 11.6141 253.932 10.9896Z" fill="#794F6A"/>
<path opacity="0.1" d="M221.437 129.871C221.437 129.871 218.266 131.506 219.935 131.833C221.604 132.16 221.437 129.871 221.437 129.871Z" fill="black"/>
<path opacity="0.1" d="M273.681 133.795C273.681 133.795 275.433 131.506 277.353 132.895C279.272 134.285 273.681 133.795 273.681 133.795Z" fill="black"/>
<path opacity="0.1" d="M277.753 135.265C277.753 135.265 279.94 134.531 281.275 135.265H277.753Z" fill="black"/>
<path opacity="0.1" d="M234.54 98.1582C234.54 98.1582 239.213 102.572 240.716 102.735C242.218 102.899 234.54 98.1582 234.54 98.1582Z" fill="black"/>
<path opacity="0.1" d="M235.208 40.1265L233.992 42.6308L233.378 48.5157L232.934 59.4682C232.934 59.4682 232.1 68.7859 232.934 70.0937C233.769 71.4015 235.214 79.1401 234.937 80.1209C234.66 81.1017 238.609 90.256 239.334 90.802C240.058 91.348 242.615 91.4559 244.061 91.1813L246.704 93.6431L254.189 86.8787L249.569 83.4459C249.569 83.4459 250.627 81.7 247.679 79.794C247.679 79.794 246.344 77.6133 246.287 76.469C246.218 74.1347 245.805 71.8223 245.062 69.6033C244.007 66.5529 243.393 49.6077 243.393 49.6077C243.393 49.6077 240.883 37.2363 235.208 40.1265Z" fill="black"/>
<path d="M234.54 40.1265L233.325 42.6308L232.711 48.5157L232.267 59.4682C232.267 59.4682 231.432 68.7859 232.267 70.0937C233.101 71.4015 234.547 79.1401 234.27 80.1209C233.992 81.1017 237.942 90.256 238.666 90.802C239.39 91.348 241.947 91.4559 243.393 91.1813L246.037 93.6431L253.521 86.8787L248.901 83.4459C248.901 83.4459 249.959 81.7 247.012 79.794C247.012 79.794 245.676 77.6133 245.62 76.469C245.55 74.1347 245.138 71.8223 244.394 69.6033C243.339 66.5529 242.725 49.6077 242.725 49.6077C242.725 49.6077 240.215 37.2363 234.54 40.1265Z" fill="#575988"/>
<path opacity="0.1" d="M246.17 81.1018C245.836 81.2653 239.103 87.3692 241.607 87.5327C244.111 87.6962 246.17 81.1018 246.17 81.1018Z" fill="black"/>
<path d="M254.736 88.4579C254.736 88.4579 245.112 89.4387 245.613 93.2541C246.114 97.0695 252.957 100.744 255.127 99.5869C257.297 98.4295 259.133 97.3245 259.133 97.3245L254.736 88.4579Z" fill="#FFAAB0"/>
<path opacity="0.1" d="M284.113 42.7421L285.505 45.3576C285.505 45.3576 286.95 56.5258 285.505 60.8316C284.059 65.1374 280.554 75.0534 280.554 75.0534C280.554 75.0534 276.325 82.3017 276.214 82.6286C276.104 82.9556 268.089 94.2873 266.644 94.8888C265.198 95.4904 262.471 95.1733 262.304 94.5129C262.137 93.8524 258.465 97.3245 258.465 97.3245C258.465 97.3245 251.388 88.9484 252.513 88.0754C253.638 87.2025 257.046 86.9867 257.046 86.9867C257.046 86.9867 257.297 87.8041 257.574 86.1138C257.851 84.4235 259.133 83.5539 260.077 83.6618C261.022 83.7696 260.635 82.7921 260.802 81.7557C260.969 80.7193 263.583 78.8688 263.583 78.8688C263.583 78.8688 264.864 76.8516 264.864 75.6517C264.864 74.4519 267.535 73.4187 267.755 73.4187C267.976 73.4187 267.922 72.9283 267.922 71.1858C267.922 69.4432 269.258 66.334 269.258 66.334L270.082 56.5258L271.531 46.5542C271.531 46.5542 275.49 34.4051 284.113 42.7421Z" fill="black"/>
<path opacity="0.1" d="M278.057 76.3056C278.057 76.3056 278.391 78.0612 278.795 80.4054C278.127 81.5791 277.596 82.5141 277.556 82.6253C277.446 82.9522 269.434 94.2872 267.989 94.8855C266.544 95.4838 263.816 95.1699 263.649 94.5128C263.576 94.2185 262.811 94.7384 261.98 95.4086C260.945 96.2456 259.807 97.3212 259.807 97.3212C259.807 97.3212 258.685 95.9938 257.407 94.3395C255.471 91.8417 253.177 88.6017 253.852 88.0754C254.977 87.2024 258.388 86.9866 258.388 86.9866C258.388 86.9866 258.639 87.804 258.916 86.1137C259.193 84.4235 260.475 83.5538 261.419 83.6617C262.364 83.7696 261.977 82.7887 262.144 81.7556C262.311 80.7225 264.924 78.8655 264.924 78.8655C264.924 78.8655 266.203 76.8515 266.203 75.6517C266.203 74.4518 268.874 73.4187 269.097 73.4187C269.321 73.4187 269.264 72.9283 269.264 71.1824C269.264 69.4366 270.599 66.3339 270.599 66.3339L271.424 56.5257L272.869 46.5541C272.869 46.5541 276.822 34.4018 285.445 42.7387L286.089 43.9517C286.172 44.805 286.169 45.3542 286.169 45.3542L272.759 54.7832L278.057 76.3056Z" fill="black"/>
<path d="M284.78 42.7421L286.172 45.3576C286.172 45.3576 287.618 56.5258 286.172 60.8316C284.727 65.1374 281.222 75.0534 281.222 75.0534C281.222 75.0534 276.992 82.3017 276.882 82.6286C276.772 82.9556 268.757 94.2873 267.311 94.8888C265.866 95.4904 263.139 95.1733 262.972 94.5129C262.805 93.8524 259.133 97.3245 259.133 97.3245C259.133 97.3245 252.056 88.9484 253.181 88.0754C254.306 87.2025 257.714 86.9867 257.714 86.9867C257.714 86.9867 257.964 87.8041 258.241 86.1138C258.518 84.4235 259.8 83.5539 260.745 83.6618C261.69 83.7696 261.303 82.7921 261.469 81.7557C261.636 80.7193 264.25 78.8688 264.25 78.8688C264.25 78.8688 265.532 76.8516 265.532 75.6517C265.532 74.4519 268.203 73.4187 268.423 73.4187C268.643 73.4187 268.59 72.9283 268.59 71.1858C268.59 69.4432 269.925 66.334 269.925 66.334L270.75 56.5258L272.199 46.5542C272.199 46.5542 276.158 34.4051 284.78 42.7421Z" fill="#575988"/>
<path opacity="0.1" d="M259.967 86.5289C259.967 86.5289 260.301 87.2645 261.803 87.5326C263.305 87.8007 259.967 86.5289 259.967 86.5289Z" fill="black"/>
<path opacity="0.1" d="M277.937 42.7943C277.884 42.9578 272.93 48.4405 273.931 49.8693C274.933 51.298 277.937 42.7943 277.937 42.7943Z" fill="black"/>
<path opacity="0.1" d="M272.319 67.9686C272.319 67.9686 275.156 70.6953 274.599 72.0031C274.041 73.3108 272.319 67.9686 272.319 67.9686Z" fill="black"/>
<path opacity="0.1" d="M272.763 62.7932C272.93 63.0646 279.052 63.774 279.386 66.0626C279.72 68.3512 272.763 62.7932 272.763 62.7932Z" fill="black"/>
<g opacity="0.1">
<path d="M273.384 13.785C273.384 13.6608 273.414 13.5333 273.434 13.4058C273.558 12.7825 273.612 12.1477 273.594 11.5128C273.567 11.928 273.494 12.3432 273.434 12.7519C273.367 13.0922 273.35 13.4401 273.384 13.785Z" fill="black"/>
<path d="M253.751 13.1442C253.791 12.9027 253.791 12.6566 253.751 12.4151C253.711 12.183 253.668 11.9509 253.645 11.7188C253.609 12.1715 253.645 12.627 253.751 13.069V13.1442Z" fill="black"/>
<path d="M273.681 15.5669C273.537 16.345 272.94 17.0414 272.482 17.7312C271.986 18.4828 271.634 19.3172 271.444 20.1931C271.387 20.6047 271.268 21.0058 271.09 21.3831C270.998 21.5705 270.849 21.7257 270.664 21.8279C270.479 21.9302 270.267 21.9746 270.055 21.9553C270.057 21.9444 270.057 21.9334 270.055 21.9226C270.037 22.1511 270.037 22.3807 270.055 22.6092C270.267 22.6285 270.479 22.5841 270.664 22.4818C270.849 22.3796 270.998 22.2244 271.09 22.037C271.268 21.6597 271.387 21.2586 271.444 20.847C271.634 19.9711 271.986 19.1367 272.482 18.3851C273.036 17.5449 273.818 16.6981 273.704 15.7009C273.717 15.6552 273.687 15.6127 273.681 15.5669Z" fill="black"/>
<path d="M270.102 20.1734C270.045 19.2646 269.555 18.4407 269.077 17.6593C268.754 17.0285 268.299 16.4715 267.742 16.0246C267.58 15.9324 267.429 15.8227 267.291 15.6977C266.984 15.3707 267.018 14.8509 266.957 14.3899C266.868 13.7876 266.588 13.2278 266.158 12.7888C265.728 12.3497 265.168 12.0534 264.557 11.9411C264.304 11.8781 264.036 11.9145 263.81 12.0425C263.583 12.1994 263.476 12.4904 263.285 12.6735C263.117 12.7827 262.925 12.8534 262.724 12.8806C262.524 12.9077 262.32 12.8906 262.127 12.8304C261.252 12.6604 260.341 12.3465 259.493 12.6244C258.038 13.0952 257.49 15.0667 255.995 15.4328C255.553 15.4988 255.106 15.5305 254.659 15.5276C254.435 15.5267 254.213 15.5791 254.014 15.6805C253.814 15.7819 253.643 15.9291 253.514 16.1096C253.362 15.951 253.261 15.752 253.224 15.5375C253.172 15.7499 253.171 15.9713 253.221 16.1841C253.272 16.3969 253.372 16.5953 253.514 16.7635C253.643 16.583 253.814 16.4357 254.014 16.3344C254.213 16.233 254.435 16.1806 254.659 16.1815C255.106 16.1844 255.553 16.1527 255.995 16.0867C257.484 15.7205 258.038 13.7491 259.493 13.2783C260.341 13.0004 261.252 13.3143 262.127 13.4843C262.32 13.5445 262.524 13.5616 262.724 13.5345C262.925 13.5073 263.117 13.4365 263.285 13.3273C263.492 13.1443 263.583 12.8533 263.81 12.6963C264.036 12.5683 264.304 12.532 264.557 12.595C265.168 12.7072 265.728 13.0036 266.158 13.4427C266.588 13.8817 266.868 14.4415 266.957 15.0438C267.014 15.4949 266.981 16.0017 267.291 16.3515C267.429 16.4766 267.58 16.5863 267.742 16.6785C268.299 17.1254 268.754 17.6824 269.077 18.3132C269.541 19.0749 270.012 19.8727 270.079 20.7521C270.1 20.56 270.108 20.3666 270.102 20.1734Z" fill="black"/>
</g>
<path d="M160.384 48.2804V82.5894C160.383 82.6616 160.397 82.7333 160.425 82.8001C160.453 82.867 160.495 82.9277 160.547 82.9786C160.599 83.0295 160.661 83.0696 160.73 83.0966C160.798 83.1235 160.871 83.1367 160.945 83.1354C170.593 82.8411 178.638 75.0306 178.638 65.4349C178.638 55.8392 170.599 48.0254 160.945 47.7344C160.871 47.7326 160.798 47.7455 160.729 47.7723C160.661 47.7991 160.598 47.8392 160.546 47.8902C160.493 47.9412 160.452 48.0021 160.424 48.0691C160.397 48.1362 160.383 48.2081 160.384 48.2804Z" fill="#61BEEC"/>
<path d="M136.292 95.134V66.7393C136.258 62.1984 137.744 57.7715 140.522 54.1358C143.149 50.7553 147.238 47.6951 153.421 47.7344C153.504 47.734 153.587 47.7496 153.664 47.7804C153.741 47.8112 153.811 47.8566 153.87 47.914C153.93 47.9714 153.977 48.0396 154.009 48.1148C154.041 48.19 154.058 48.2707 154.058 48.3523V77.5807C154.058 77.5807 155.06 93.5549 136.646 95.4446C136.602 95.4473 136.558 95.4413 136.516 95.4271C136.474 95.4128 136.436 95.3906 136.403 95.3617C136.37 95.3329 136.343 95.2978 136.324 95.2588C136.305 95.2197 136.294 95.1773 136.292 95.134Z" fill="#4064AC"/>
<path opacity="0.1" d="M60.3843 44.5304C66.1918 44.5304 70.8997 39.9196 70.8997 34.2318C70.8997 28.5441 66.1918 23.9332 60.3843 23.9332C54.5768 23.9332 49.8688 28.5441 49.8688 34.2318C49.8688 39.9196 54.5768 44.5304 60.3843 44.5304Z" fill="#0056D2"/>
<path opacity="0.1" d="M38.352 16.0867C41.9471 16.0867 44.8615 13.2324 44.8615 9.71137C44.8615 6.19038 41.9471 3.33606 38.352 3.33606C34.7568 3.33606 31.8424 6.19038 31.8424 9.71137C31.8424 13.2324 34.7568 16.0867 38.352 16.0867Z" fill="#0056D2"/>
<path opacity="0.1" d="M4.30532 27.8564C6.5177 27.8564 8.3112 26.0999 8.3112 23.9332C8.3112 21.7664 6.5177 20.0099 4.30532 20.0099C2.09293 20.0099 0.299438 21.7664 0.299438 23.9332C0.299438 26.0999 2.09293 27.8564 4.30532 27.8564Z" fill="#0056D2"/>
<path d="M137.124 219.956C136.803 220.386 136.547 220.858 136.362 221.359C136.316 221.48 136.269 221.62 136.222 221.754C136.138 221.715 136.05 221.686 135.959 221.666C135.57 221.569 135.167 221.535 134.767 221.565C134.767 221.414 134.787 221.238 134.79 221.087C134.84 219.364 134.633 216.961 132.954 217.978C131.345 218.959 132.493 220.594 133.532 221.643L133.799 221.898C132.851 222.552 132.67 224.098 132.514 225.704C132.357 227.309 130.965 229.068 130.04 230.065C129.946 230.166 129.863 230.258 129.779 230.343C129.406 230.05 128.974 229.838 128.51 229.721C128.047 229.605 127.564 229.586 127.092 229.666C127.055 229.526 127.015 229.379 126.969 229.222C126.224 226.564 124.672 221.986 122.689 221.006L122.949 220.679C123.791 219.6 124.739 217.998 123.34 217.589C121.941 217.18 121.814 218.979 121.891 220.326C121.891 220.492 121.918 220.653 121.931 220.803C121.652 220.816 121.378 220.884 121.126 221.005C120.875 221.125 120.651 221.294 120.469 221.503L120.252 221.254C119.117 219.946 117.037 217.864 116.407 219.436C115.822 220.901 117.652 222.801 118.94 223.902L119.02 223.971C118.156 227.41 121.931 230.212 123.964 231.438L124.228 231.595C121.424 234.832 119.691 240.897 119.691 240.897L127.546 242.27C127.546 242.27 132.751 237.869 132.083 233.74H132.136C137.341 232.72 138.522 227.286 137.714 224.059C137.745 224.059 137.775 224.036 137.805 224.02C138.752 223.641 139.583 223.027 140.215 222.238C141.67 220.247 138.619 218.011 137.124 219.956Z" fill="#0056D2"/>
<path opacity="0.1" d="M137.124 219.956C136.803 220.386 136.547 220.858 136.362 221.359C136.316 221.48 136.269 221.62 136.222 221.754C136.138 221.715 136.05 221.686 135.959 221.666C135.57 221.569 135.167 221.535 134.767 221.565C134.767 221.414 134.787 221.238 134.79 221.087C134.84 219.364 134.633 216.961 132.954 217.978C131.345 218.959 132.493 220.594 133.532 221.643L133.799 221.898C132.851 222.552 132.67 224.098 132.514 225.704C132.357 227.309 130.965 229.068 130.04 230.065C129.946 230.166 129.863 230.258 129.779 230.343C129.406 230.05 128.974 229.838 128.51 229.721C128.047 229.605 127.564 229.586 127.092 229.666C127.055 229.526 127.015 229.379 126.969 229.222C126.224 226.564 124.672 221.986 122.689 221.006L122.949 220.679C123.791 219.6 124.739 217.998 123.34 217.589C121.941 217.18 121.814 218.979 121.891 220.326C121.891 220.492 121.918 220.653 121.931 220.803C121.652 220.816 121.378 220.884 121.126 221.005C120.875 221.125 120.651 221.294 120.469 221.503L120.252 221.254C119.117 219.946 117.037 217.864 116.407 219.436C115.822 220.901 117.652 222.801 118.94 223.902L119.02 223.971C118.156 227.41 121.931 230.212 123.964 231.438L124.228 231.595C121.424 234.832 119.691 240.897 119.691 240.897L127.546 242.27C127.546 242.27 132.751 237.869 132.083 233.74H132.136C137.341 232.72 138.522 227.286 137.714 224.059C137.745 224.059 137.775 224.036 137.805 224.02C138.752 223.641 139.583 223.027 140.215 222.238C141.67 220.247 138.619 218.011 137.124 219.956Z" fill="black"/>
<path d="M121.494 222.173L120.576 224.788C120.576 224.788 120.065 224.435 119.421 223.879C118.132 222.778 116.303 220.878 116.887 219.413C117.518 217.841 119.598 219.917 120.733 221.231C121.19 221.767 121.494 222.173 121.494 222.173Z" fill="#0056D2"/>
<path d="M123.43 220.679C123.151 221.037 122.852 221.381 122.535 221.708C122.457 221.25 122.403 220.789 122.372 220.325C122.295 218.978 122.442 217.19 123.821 217.589C125.199 217.988 124.271 219.593 123.43 220.679Z" fill="#0056D2"/>
<path d="M135.271 221.087C135.244 221.954 135.157 222.644 135.157 222.644C134.754 222.341 134.371 222.012 134.012 221.659C132.974 220.603 131.826 218.975 133.435 217.994C135.114 216.961 135.321 219.371 135.271 221.087Z" fill="#0056D2"/>
<path d="M140.696 222.222C140.063 223.01 139.233 223.624 138.285 224.004C138.023 224.117 137.753 224.213 137.477 224.291L136.396 222.804C136.51 222.312 136.66 221.83 136.843 221.359C137.028 220.858 137.284 220.386 137.604 219.956C139.1 218.011 142.151 220.247 140.696 222.222Z" fill="#0056D2"/>
<path opacity="0.1" d="M120.733 221.248C121.19 221.767 121.494 222.173 121.494 222.173L120.576 224.788C120.576 224.788 120.065 224.435 119.421 223.879C119.565 223.037 119.92 222.242 120.456 221.568C120.546 221.463 120.643 221.349 120.733 221.248Z" fill="black"/>
<path opacity="0.1" d="M123.43 220.679C123.151 221.037 122.852 221.381 122.536 221.709C122.457 221.251 122.403 220.789 122.372 220.326C122.754 220.332 123.124 220.455 123.43 220.679Z" fill="black"/>
<path d="M127.947 231.118L125.66 232.099C125.66 232.099 125.163 231.863 124.445 231.428C122.045 229.98 117.221 226.341 120.456 222.052C123.691 217.762 126.388 225.455 127.449 229.218C127.773 230.346 127.947 231.118 127.947 231.118Z" fill="#0056D2"/>
<path opacity="0.1" d="M134.012 221.659C134.344 221.323 134.794 221.125 135.271 221.104C135.244 221.97 135.157 222.66 135.157 222.66C134.753 222.352 134.371 222.018 134.012 221.659Z" fill="black"/>
<path opacity="0.1" d="M138.285 224.004C138.023 224.117 137.753 224.213 137.477 224.291L136.396 222.804C136.51 222.312 136.66 221.83 136.843 221.359C137.541 221.761 138.055 222.751 138.285 224.004Z" fill="black"/>
<path d="M132.617 233.723L132.233 233.789C124.579 234.93 129.709 230.882 129.709 230.882C129.709 230.882 130.043 230.555 130.521 230.065C131.445 229.068 132.834 227.319 132.994 225.704C133.235 223.274 133.512 220.996 136.439 221.666C139.313 222.313 139.854 232.301 132.617 233.723Z" fill="#0056D2"/>
<path d="M132.477 252.388H117.852V256.155H132.477V252.388Z" fill="#D4DFEC"/>
<path d="M134.637 240.148H115.529V253.291H134.637V240.148Z" fill="#D4DFEC"/>
<path opacity="0.1" d="M132.477 252.388H117.852V256.155H132.477V252.388Z" fill="black"/>
<path opacity="0.1" d="M134.637 240.148H115.529V253.291H134.637V240.148Z" fill="black"/>
<path d="M133.438 252.388H118.813V256.155H133.438V252.388Z" fill="#D4DFEC"/>
<path opacity="0.1" d="M127.449 229.222C127.783 230.346 127.947 231.118 127.947 231.118L125.66 232.099C125.66 232.099 125.163 231.863 124.445 231.428C125.34 230.32 126.348 229.48 127.449 229.222Z" fill="black"/>
<path opacity="0.1" d="M132.617 233.724L132.233 233.789C124.579 234.93 129.709 230.882 129.709 230.882C129.709 230.882 130.043 230.555 130.521 230.065C131.949 231.186 132.54 232.448 132.617 233.724Z" fill="black"/>
<path d="M120.159 240.89C120.159 240.89 124.445 225.851 130.457 230.493C136.469 235.136 128.014 242.263 128.014 242.263L120.159 240.89Z" fill="#0056D2"/>
<path opacity="0.1" d="M122.339 224.883C122.604 224.883 122.819 224.672 122.819 224.412C122.819 224.152 122.604 223.941 122.339 223.941C122.073 223.941 121.858 224.152 121.858 224.412C121.858 224.672 122.073 224.883 122.339 224.883Z" fill="black"/>
<path opacity="0.1" d="M122.298 227.08C122.564 227.08 122.779 226.869 122.779 226.609C122.779 226.349 122.564 226.139 122.298 226.139C122.033 226.139 121.818 226.349 121.818 226.609C121.818 226.869 122.033 227.08 122.298 227.08Z" fill="black"/>
<path opacity="0.1" d="M136.239 225.315C136.504 225.315 136.72 225.104 136.72 224.844C136.72 224.584 136.504 224.373 136.239 224.373C135.973 224.373 135.758 224.584 135.758 224.844C135.758 225.104 135.973 225.315 136.239 225.315Z" fill="black"/>
<path opacity="0.1" d="M125.022 236.578C125.288 236.578 125.503 236.367 125.503 236.107C125.503 235.847 125.288 235.636 125.022 235.636C124.757 235.636 124.542 235.847 124.542 236.107C124.542 236.367 124.757 236.578 125.022 236.578Z" fill="black"/>
<path opacity="0.1" d="M135.237 228.963C135.503 228.963 135.718 228.752 135.718 228.492C135.718 228.232 135.503 228.022 135.237 228.022C134.972 228.022 134.757 228.232 134.757 228.492C134.757 228.752 134.972 228.963 135.237 228.963Z" fill="black"/>
<path opacity="0.1" d="M130.27 233.831C130.536 233.831 130.751 233.621 130.751 233.361C130.751 233.101 130.536 232.89 130.27 232.89C130.005 232.89 129.789 233.101 129.789 233.361C129.789 233.621 130.005 233.831 130.27 233.831Z" fill="black"/>
<path opacity="0.1" d="M123.981 225.825C124.246 225.825 124.462 225.614 124.462 225.354C124.462 225.094 124.246 224.883 123.981 224.883C123.715 224.883 123.5 225.094 123.5 225.354C123.5 225.614 123.715 225.825 123.981 225.825Z" fill="black"/>
<path opacity="0.1" d="M134.917 226.727C135.183 226.727 135.398 226.516 135.398 226.256C135.398 225.996 135.183 225.785 134.917 225.785C134.652 225.785 134.436 225.996 134.436 226.256C134.436 226.516 134.652 226.727 134.917 226.727Z" fill="black"/>
<path opacity="0.1" d="M133.275 230.376C133.54 230.376 133.755 230.165 133.755 229.905C133.755 229.645 133.54 229.434 133.275 229.434C133.009 229.434 132.794 229.645 132.794 229.905C132.794 230.165 133.009 230.376 133.275 230.376Z" fill="black"/>
<path opacity="0.1" d="M128.227 236.225C128.493 236.225 128.708 236.014 128.708 235.754C128.708 235.494 128.493 235.283 128.227 235.283C127.962 235.283 127.747 235.494 127.747 235.754C127.747 236.014 127.962 236.225 128.227 236.225Z" fill="black"/>
<path opacity="0.1" d="M127.186 233.91C127.451 233.91 127.666 233.699 127.666 233.439C127.666 233.179 127.451 232.968 127.186 232.968C126.92 232.968 126.705 233.179 126.705 233.439C126.705 233.699 126.92 233.91 127.186 233.91Z" fill="black"/>
<path opacity="0.1" d="M124.702 228.689C124.968 228.689 125.183 228.478 125.183 228.218C125.183 227.958 124.968 227.747 124.702 227.747C124.437 227.747 124.221 227.958 124.221 228.218C124.221 228.478 124.437 228.689 124.702 228.689Z" fill="black"/>
<path opacity="0.1" d="M133.438 252.388H118.813V253.765H133.438V252.388Z" fill="black"/>
<path d="M135.598 240.148H116.49V253.291H135.598V240.148Z" fill="#D4DFEC"/>
<path opacity="0.1" d="M128.868 238.343C129.134 238.343 129.349 238.132 129.349 237.872C129.349 237.612 129.134 237.401 128.868 237.401C128.603 237.401 128.387 237.612 128.387 237.872C128.387 238.132 128.603 238.343 128.868 238.343Z" fill="black"/>
<path opacity="0.1" d="M125.984 238.932C126.249 238.932 126.465 238.721 126.465 238.461C126.465 238.201 126.249 237.99 125.984 237.99C125.718 237.99 125.503 238.201 125.503 238.461C125.503 238.721 125.718 238.932 125.984 238.932Z" fill="black"/>
</g>
<defs>
<linearGradient id="paint0_linear_12_25" x1="78.6311" y1="253.252" x2="78.6311" y2="78.908" gradientUnits="userSpaceOnUse">
<stop stop-color="#808080" stop-opacity="0.25"/>
<stop offset="0.54" stop-color="#808080" stop-opacity="0.12"/>
<stop offset="1" stop-color="#808080" stop-opacity="0.1"/>
</linearGradient>
<linearGradient id="paint1_linear_12_25" x1="240.041" y1="181.626" x2="240.041" y2="3.98008" gradientUnits="userSpaceOnUse">
<stop stop-color="#808080" stop-opacity="0.25"/>
<stop offset="0.54" stop-color="#808080" stop-opacity="0.12"/>
<stop offset="1" stop-color="#808080" stop-opacity="0.1"/>
</linearGradient>
<clipPath id="clip0_12_25">
<rect x="0.299438" y="0.275879" width="361.234" height="257.069" rx="10" fill="white"/>
</clipPath>
</defs>
</svg>
